M48
;DRILL file {KiCad 4.0.7} date 06/30/18 16:30:05
;FORMAT={-:-/ absolute / metric / decimal}
FMAT,2
METRIC,TZ
T1C0.800
T2C0.900
T3C1.300
T4C3.200
%
G90
G05
M71
T1
X125.376Y-43.945
X130.456Y-43.945
X163.675Y-144.295
X168.755Y-144.295
T2
X207.135Y-84.94
T3
X79.25Y-88.2
X79.25Y-98.8
X91.75Y-88.2
X91.75Y-98.8
X109.42Y-41.05
X111.96Y-41.05
X115.06Y-41.05
X117.6Y-41.05
X197.61Y-40.415
X200.15Y-40.415
X202.69Y-40.415
X209.675Y-84.94
X209.675Y-87.48
X209.675Y-90.02
X209.675Y-93.12
X209.675Y-95.66
X209.675Y-98.2
X222.375Y-108.06
X222.375Y-110.6
X222.375Y-113.7
X222.375Y-116.24
X222.375Y-119.2
X222.375Y-121.74
X222.375Y-124.84
X222.375Y-127.38
T4
X80.5Y-43.
X80.5Y-144.
X219.5Y-43.
X219.5Y-144.
T0
M30
