G04 #@! TF.FileFunction,Copper,L2,Bot,Signal*
%FSLAX46Y46*%
G04 Gerber Fmt 4.6, Leading zero omitted, Abs format (unit mm)*
G04 Created by KiCad (PCBNEW 4.0.7) date 07/03/18 00:43:42*
%MOMM*%
%LPD*%
G01*
G04 APERTURE LIST*
%ADD10C,0.100000*%
%ADD11C,0.300000*%
%ADD12O,1.400000X2.540000*%
%ADD13C,2.200000*%
%ADD14C,3.500000*%
%ADD15O,2.540000X1.400000*%
%ADD16C,2.500000*%
%ADD17C,2.000000*%
%ADD18C,3.000000*%
%ADD19C,1.800000*%
%ADD20C,0.250000*%
%ADD21C,1.400000*%
%ADD22C,0.800000*%
%ADD23C,0.254000*%
G04 APERTURE END LIST*
D10*
D11*
X205027857Y-41728571D02*
X205027857Y-40228571D01*
X205599285Y-40228571D01*
X205742143Y-40300000D01*
X205813571Y-40371429D01*
X205885000Y-40514286D01*
X205885000Y-40728571D01*
X205813571Y-40871429D01*
X205742143Y-40942857D01*
X205599285Y-41014286D01*
X205027857Y-41014286D01*
X206385000Y-40228571D02*
X206742143Y-41728571D01*
X207027857Y-40657143D01*
X207313571Y-41728571D01*
X207670714Y-40228571D01*
X208242143Y-41728571D02*
X208242143Y-40228571D01*
X208742143Y-41300000D01*
X209242143Y-40228571D01*
X209242143Y-41728571D01*
X104070715Y-42998571D02*
X104070715Y-41498571D01*
X104713572Y-41641429D02*
X104785001Y-41570000D01*
X104927858Y-41498571D01*
X105285001Y-41498571D01*
X105427858Y-41570000D01*
X105499287Y-41641429D01*
X105570715Y-41784286D01*
X105570715Y-41927143D01*
X105499287Y-42141429D01*
X104642144Y-42998571D01*
X105570715Y-42998571D01*
X107070715Y-42855714D02*
X106999286Y-42927143D01*
X106785000Y-42998571D01*
X106642143Y-42998571D01*
X106427858Y-42927143D01*
X106285000Y-42784286D01*
X106213572Y-42641429D01*
X106142143Y-42355714D01*
X106142143Y-42141429D01*
X106213572Y-41855714D01*
X106285000Y-41712857D01*
X106427858Y-41570000D01*
X106642143Y-41498571D01*
X106785000Y-41498571D01*
X106999286Y-41570000D01*
X107070715Y-41641429D01*
X171524286Y-144598571D02*
X171524286Y-143098571D01*
X172095714Y-143098571D01*
X172238572Y-143170000D01*
X172310000Y-143241429D01*
X172381429Y-143384286D01*
X172381429Y-143598571D01*
X172310000Y-143741429D01*
X172238572Y-143812857D01*
X172095714Y-143884286D01*
X171524286Y-143884286D01*
X173238572Y-144598571D02*
X173095714Y-144527143D01*
X173024286Y-144455714D01*
X172952857Y-144312857D01*
X172952857Y-143884286D01*
X173024286Y-143741429D01*
X173095714Y-143670000D01*
X173238572Y-143598571D01*
X173452857Y-143598571D01*
X173595714Y-143670000D01*
X173667143Y-143741429D01*
X173738572Y-143884286D01*
X173738572Y-144312857D01*
X173667143Y-144455714D01*
X173595714Y-144527143D01*
X173452857Y-144598571D01*
X173238572Y-144598571D01*
X174238572Y-143598571D02*
X174524286Y-144598571D01*
X174810000Y-143884286D01*
X175095715Y-144598571D01*
X175381429Y-143598571D01*
X176524286Y-144527143D02*
X176381429Y-144598571D01*
X176095715Y-144598571D01*
X175952858Y-144527143D01*
X175881429Y-144384286D01*
X175881429Y-143812857D01*
X175952858Y-143670000D01*
X176095715Y-143598571D01*
X176381429Y-143598571D01*
X176524286Y-143670000D01*
X176595715Y-143812857D01*
X176595715Y-143955714D01*
X175881429Y-144098571D01*
X177238572Y-144598571D02*
X177238572Y-143598571D01*
X177238572Y-143884286D02*
X177310000Y-143741429D01*
X177381429Y-143670000D01*
X177524286Y-143598571D01*
X177667143Y-143598571D01*
X179238571Y-144527143D02*
X179381428Y-144598571D01*
X179667143Y-144598571D01*
X179810000Y-144527143D01*
X179881428Y-144384286D01*
X179881428Y-144312857D01*
X179810000Y-144170000D01*
X179667143Y-144098571D01*
X179452857Y-144098571D01*
X179310000Y-144027143D01*
X179238571Y-143884286D01*
X179238571Y-143812857D01*
X179310000Y-143670000D01*
X179452857Y-143598571D01*
X179667143Y-143598571D01*
X179810000Y-143670000D01*
X180381429Y-143598571D02*
X180667143Y-144598571D01*
X180952857Y-143884286D01*
X181238572Y-144598571D01*
X181524286Y-143598571D01*
X182095715Y-144598571D02*
X182095715Y-143598571D01*
X182095715Y-143098571D02*
X182024286Y-143170000D01*
X182095715Y-143241429D01*
X182167143Y-143170000D01*
X182095715Y-143098571D01*
X182095715Y-143241429D01*
X182595715Y-143598571D02*
X183167144Y-143598571D01*
X182810001Y-143098571D02*
X182810001Y-144384286D01*
X182881429Y-144527143D01*
X183024287Y-144598571D01*
X183167144Y-144598571D01*
X184310001Y-144527143D02*
X184167144Y-144598571D01*
X183881430Y-144598571D01*
X183738572Y-144527143D01*
X183667144Y-144455714D01*
X183595715Y-144312857D01*
X183595715Y-143884286D01*
X183667144Y-143741429D01*
X183738572Y-143670000D01*
X183881430Y-143598571D01*
X184167144Y-143598571D01*
X184310001Y-143670000D01*
X184952858Y-144598571D02*
X184952858Y-143098571D01*
X185595715Y-144598571D02*
X185595715Y-143812857D01*
X185524286Y-143670000D01*
X185381429Y-143598571D01*
X185167144Y-143598571D01*
X185024286Y-143670000D01*
X184952858Y-143741429D01*
X222347143Y-105552857D02*
X222418571Y-105338571D01*
X222418571Y-104981428D01*
X222347143Y-104838571D01*
X222275714Y-104767142D01*
X222132857Y-104695714D01*
X221990000Y-104695714D01*
X221847143Y-104767142D01*
X221775714Y-104838571D01*
X221704286Y-104981428D01*
X221632857Y-105267142D01*
X221561429Y-105410000D01*
X221490000Y-105481428D01*
X221347143Y-105552857D01*
X221204286Y-105552857D01*
X221061429Y-105481428D01*
X220990000Y-105410000D01*
X220918571Y-105267142D01*
X220918571Y-104910000D01*
X220990000Y-104695714D01*
X222418571Y-103838571D02*
X222347143Y-103981429D01*
X222275714Y-104052857D01*
X222132857Y-104124286D01*
X221704286Y-104124286D01*
X221561429Y-104052857D01*
X221490000Y-103981429D01*
X221418571Y-103838571D01*
X221418571Y-103624286D01*
X221490000Y-103481429D01*
X221561429Y-103410000D01*
X221704286Y-103338571D01*
X222132857Y-103338571D01*
X222275714Y-103410000D01*
X222347143Y-103481429D01*
X222418571Y-103624286D01*
X222418571Y-103838571D01*
X222418571Y-102695714D02*
X221418571Y-102695714D01*
X221704286Y-102695714D02*
X221561429Y-102624286D01*
X221490000Y-102552857D01*
X221418571Y-102410000D01*
X221418571Y-102267143D01*
X221418571Y-101981429D02*
X221418571Y-101410000D01*
X220918571Y-101767143D02*
X222204286Y-101767143D01*
X222347143Y-101695715D01*
X222418571Y-101552857D01*
X222418571Y-101410000D01*
X222418571Y-100910000D02*
X221418571Y-100910000D01*
X220918571Y-100910000D02*
X220990000Y-100981429D01*
X221061429Y-100910000D01*
X220990000Y-100838572D01*
X220918571Y-100910000D01*
X221061429Y-100910000D01*
X222347143Y-99624286D02*
X222418571Y-99767143D01*
X222418571Y-100052857D01*
X222347143Y-100195714D01*
X222204286Y-100267143D01*
X221632857Y-100267143D01*
X221490000Y-100195714D01*
X221418571Y-100052857D01*
X221418571Y-99767143D01*
X221490000Y-99624286D01*
X221632857Y-99552857D01*
X221775714Y-99552857D01*
X221918571Y-100267143D01*
X222347143Y-98981429D02*
X222418571Y-98838572D01*
X222418571Y-98552857D01*
X222347143Y-98410000D01*
X222204286Y-98338572D01*
X222132857Y-98338572D01*
X221990000Y-98410000D01*
X221918571Y-98552857D01*
X221918571Y-98767143D01*
X221847143Y-98910000D01*
X221704286Y-98981429D01*
X221632857Y-98981429D01*
X221490000Y-98910000D01*
X221418571Y-98767143D01*
X221418571Y-98552857D01*
X221490000Y-98410000D01*
X220918571Y-96552857D02*
X222132857Y-96552857D01*
X222275714Y-96481429D01*
X222347143Y-96410000D01*
X222418571Y-96267143D01*
X222418571Y-95981429D01*
X222347143Y-95838571D01*
X222275714Y-95767143D01*
X222132857Y-95695714D01*
X220918571Y-95695714D01*
X222418571Y-94267142D02*
X222418571Y-94981428D01*
X220918571Y-94981428D01*
X222418571Y-93767142D02*
X220918571Y-93767142D01*
X222418571Y-92909999D01*
X220918571Y-92909999D01*
X221061429Y-92267142D02*
X220990000Y-92195713D01*
X220918571Y-92052856D01*
X220918571Y-91695713D01*
X220990000Y-91552856D01*
X221061429Y-91481427D01*
X221204286Y-91409999D01*
X221347143Y-91409999D01*
X221561429Y-91481427D01*
X222418571Y-92338570D01*
X222418571Y-91409999D01*
X221561429Y-90552856D02*
X221490000Y-90695714D01*
X221418571Y-90767142D01*
X221275714Y-90838571D01*
X221204286Y-90838571D01*
X221061429Y-90767142D01*
X220990000Y-90695714D01*
X220918571Y-90552856D01*
X220918571Y-90267142D01*
X220990000Y-90124285D01*
X221061429Y-90052856D01*
X221204286Y-89981428D01*
X221275714Y-89981428D01*
X221418571Y-90052856D01*
X221490000Y-90124285D01*
X221561429Y-90267142D01*
X221561429Y-90552856D01*
X221632857Y-90695714D01*
X221704286Y-90767142D01*
X221847143Y-90838571D01*
X222132857Y-90838571D01*
X222275714Y-90767142D01*
X222347143Y-90695714D01*
X222418571Y-90552856D01*
X222418571Y-90267142D01*
X222347143Y-90124285D01*
X222275714Y-90052856D01*
X222132857Y-89981428D01*
X221847143Y-89981428D01*
X221704286Y-90052856D01*
X221632857Y-90124285D01*
X221561429Y-90267142D01*
X220918571Y-89052857D02*
X220918571Y-88910000D01*
X220990000Y-88767143D01*
X221061429Y-88695714D01*
X221204286Y-88624285D01*
X221490000Y-88552857D01*
X221847143Y-88552857D01*
X222132857Y-88624285D01*
X222275714Y-88695714D01*
X222347143Y-88767143D01*
X222418571Y-88910000D01*
X222418571Y-89052857D01*
X222347143Y-89195714D01*
X222275714Y-89267143D01*
X222132857Y-89338571D01*
X221847143Y-89410000D01*
X221490000Y-89410000D01*
X221204286Y-89338571D01*
X221061429Y-89267143D01*
X220990000Y-89195714D01*
X220918571Y-89052857D01*
X220918571Y-88052857D02*
X220918571Y-87124286D01*
X221490000Y-87624286D01*
X221490000Y-87410000D01*
X221561429Y-87267143D01*
X221632857Y-87195714D01*
X221775714Y-87124286D01*
X222132857Y-87124286D01*
X222275714Y-87195714D01*
X222347143Y-87267143D01*
X222418571Y-87410000D01*
X222418571Y-87838572D01*
X222347143Y-87981429D01*
X222275714Y-88052857D01*
X222418571Y-85838572D02*
X221632857Y-85838572D01*
X221490000Y-85910001D01*
X221418571Y-86052858D01*
X221418571Y-86338572D01*
X221490000Y-86481429D01*
X222347143Y-85838572D02*
X222418571Y-85981429D01*
X222418571Y-86338572D01*
X222347143Y-86481429D01*
X222204286Y-86552858D01*
X222061429Y-86552858D01*
X221918571Y-86481429D01*
X221847143Y-86338572D01*
X221847143Y-85981429D01*
X221775714Y-85838572D01*
X208611429Y-101188571D02*
X208611429Y-102402857D01*
X208682857Y-102545714D01*
X208754286Y-102617143D01*
X208897143Y-102688571D01*
X209182857Y-102688571D01*
X209325715Y-102617143D01*
X209397143Y-102545714D01*
X209468572Y-102402857D01*
X209468572Y-101188571D01*
X78397143Y-58228571D02*
X78397143Y-56728571D01*
X78968571Y-56728571D01*
X79111429Y-56800000D01*
X79182857Y-56871429D01*
X79254286Y-57014286D01*
X79254286Y-57228571D01*
X79182857Y-57371429D01*
X79111429Y-57442857D01*
X78968571Y-57514286D01*
X78397143Y-57514286D01*
X80111429Y-58228571D02*
X79968571Y-58157143D01*
X79897143Y-58085714D01*
X79825714Y-57942857D01*
X79825714Y-57514286D01*
X79897143Y-57371429D01*
X79968571Y-57300000D01*
X80111429Y-57228571D01*
X80325714Y-57228571D01*
X80468571Y-57300000D01*
X80540000Y-57371429D01*
X80611429Y-57514286D01*
X80611429Y-57942857D01*
X80540000Y-58085714D01*
X80468571Y-58157143D01*
X80325714Y-58228571D01*
X80111429Y-58228571D01*
X81468572Y-58228571D02*
X81325714Y-58157143D01*
X81254286Y-58014286D01*
X81254286Y-56728571D01*
X81897143Y-57228571D02*
X82254286Y-58228571D01*
X82611428Y-57228571D02*
X82254286Y-58228571D01*
X82111428Y-58585714D01*
X82040000Y-58657143D01*
X81897143Y-58728571D01*
X83182857Y-58228571D02*
X83182857Y-57228571D01*
X83182857Y-57371429D02*
X83254285Y-57300000D01*
X83397143Y-57228571D01*
X83611428Y-57228571D01*
X83754285Y-57300000D01*
X83825714Y-57442857D01*
X83825714Y-58228571D01*
X83825714Y-57442857D02*
X83897143Y-57300000D01*
X84040000Y-57228571D01*
X84254285Y-57228571D01*
X84397143Y-57300000D01*
X84468571Y-57442857D01*
X84468571Y-58228571D01*
X85825714Y-58228571D02*
X85825714Y-57442857D01*
X85754285Y-57300000D01*
X85611428Y-57228571D01*
X85325714Y-57228571D01*
X85182857Y-57300000D01*
X85825714Y-58157143D02*
X85682857Y-58228571D01*
X85325714Y-58228571D01*
X85182857Y-58157143D01*
X85111428Y-58014286D01*
X85111428Y-57871429D01*
X85182857Y-57728571D01*
X85325714Y-57657143D01*
X85682857Y-57657143D01*
X85825714Y-57585714D01*
X86540000Y-57228571D02*
X86540000Y-58228571D01*
X86540000Y-57371429D02*
X86611428Y-57300000D01*
X86754286Y-57228571D01*
X86968571Y-57228571D01*
X87111428Y-57300000D01*
X87182857Y-57442857D01*
X87182857Y-58228571D01*
X88468571Y-58157143D02*
X88325714Y-58228571D01*
X88040000Y-58228571D01*
X87897143Y-58157143D01*
X87825714Y-58014286D01*
X87825714Y-57442857D01*
X87897143Y-57300000D01*
X88040000Y-57228571D01*
X88325714Y-57228571D01*
X88468571Y-57300000D01*
X88540000Y-57442857D01*
X88540000Y-57585714D01*
X87825714Y-57728571D01*
X88968571Y-57228571D02*
X89540000Y-57228571D01*
X89182857Y-56728571D02*
X89182857Y-58014286D01*
X89254285Y-58157143D01*
X89397143Y-58228571D01*
X89540000Y-58228571D01*
X89825714Y-57228571D02*
X90397143Y-57228571D01*
X90040000Y-56728571D02*
X90040000Y-58014286D01*
X90111428Y-58157143D01*
X90254286Y-58228571D01*
X90397143Y-58228571D01*
X91468571Y-58157143D02*
X91325714Y-58228571D01*
X91040000Y-58228571D01*
X90897143Y-58157143D01*
X90825714Y-58014286D01*
X90825714Y-57442857D01*
X90897143Y-57300000D01*
X91040000Y-57228571D01*
X91325714Y-57228571D01*
X91468571Y-57300000D01*
X91540000Y-57442857D01*
X91540000Y-57585714D01*
X90825714Y-57728571D01*
X94182857Y-58085714D02*
X94111428Y-58157143D01*
X93897142Y-58228571D01*
X93754285Y-58228571D01*
X93540000Y-58157143D01*
X93397142Y-58014286D01*
X93325714Y-57871429D01*
X93254285Y-57585714D01*
X93254285Y-57371429D01*
X93325714Y-57085714D01*
X93397142Y-56942857D01*
X93540000Y-56800000D01*
X93754285Y-56728571D01*
X93897142Y-56728571D01*
X94111428Y-56800000D01*
X94182857Y-56871429D01*
X94825714Y-58228571D02*
X94825714Y-56728571D01*
X95468571Y-58228571D02*
X95468571Y-57442857D01*
X95397142Y-57300000D01*
X95254285Y-57228571D01*
X95040000Y-57228571D01*
X94897142Y-57300000D01*
X94825714Y-57371429D01*
X96754285Y-58157143D02*
X96611428Y-58228571D01*
X96325714Y-58228571D01*
X96182857Y-58157143D01*
X96111428Y-58014286D01*
X96111428Y-57442857D01*
X96182857Y-57300000D01*
X96325714Y-57228571D01*
X96611428Y-57228571D01*
X96754285Y-57300000D01*
X96825714Y-57442857D01*
X96825714Y-57585714D01*
X96111428Y-57728571D01*
X97325714Y-57228571D02*
X97682857Y-58228571D01*
X98039999Y-57228571D01*
X99254285Y-58228571D02*
X99254285Y-57442857D01*
X99182856Y-57300000D01*
X99039999Y-57228571D01*
X98754285Y-57228571D01*
X98611428Y-57300000D01*
X99254285Y-58157143D02*
X99111428Y-58228571D01*
X98754285Y-58228571D01*
X98611428Y-58157143D01*
X98539999Y-58014286D01*
X98539999Y-57871429D01*
X98611428Y-57728571D01*
X98754285Y-57657143D01*
X99111428Y-57657143D01*
X99254285Y-57585714D01*
X100182857Y-58228571D02*
X100039999Y-58157143D01*
X99968571Y-58014286D01*
X99968571Y-56728571D01*
X100754285Y-58228571D02*
X100754285Y-57228571D01*
X100754285Y-56728571D02*
X100682856Y-56800000D01*
X100754285Y-56871429D01*
X100825713Y-56800000D01*
X100754285Y-56728571D01*
X100754285Y-56871429D01*
X102039999Y-58157143D02*
X101897142Y-58228571D01*
X101611428Y-58228571D01*
X101468571Y-58157143D01*
X101397142Y-58014286D01*
X101397142Y-57442857D01*
X101468571Y-57300000D01*
X101611428Y-57228571D01*
X101897142Y-57228571D01*
X102039999Y-57300000D01*
X102111428Y-57442857D01*
X102111428Y-57585714D01*
X101397142Y-57728571D01*
X102754285Y-58228571D02*
X102754285Y-57228571D01*
X102754285Y-57514286D02*
X102825713Y-57371429D01*
X102897142Y-57300000D01*
X103039999Y-57228571D01*
X103182856Y-57228571D01*
X78397143Y-60778571D02*
X78397143Y-59278571D01*
X78897143Y-60350000D01*
X79397143Y-59278571D01*
X79397143Y-60778571D01*
X80968572Y-60635714D02*
X80897143Y-60707143D01*
X80682857Y-60778571D01*
X80540000Y-60778571D01*
X80325715Y-60707143D01*
X80182857Y-60564286D01*
X80111429Y-60421429D01*
X80040000Y-60135714D01*
X80040000Y-59921429D01*
X80111429Y-59635714D01*
X80182857Y-59492857D01*
X80325715Y-59350000D01*
X80540000Y-59278571D01*
X80682857Y-59278571D01*
X80897143Y-59350000D01*
X80968572Y-59421429D01*
X81397143Y-59278571D02*
X82254286Y-59278571D01*
X81825715Y-60778571D02*
X81825715Y-59278571D01*
X83825714Y-59421429D02*
X83897143Y-59350000D01*
X84040000Y-59278571D01*
X84397143Y-59278571D01*
X84540000Y-59350000D01*
X84611429Y-59421429D01*
X84682857Y-59564286D01*
X84682857Y-59707143D01*
X84611429Y-59921429D01*
X83754286Y-60778571D01*
X84682857Y-60778571D01*
X85611428Y-59278571D02*
X85754285Y-59278571D01*
X85897142Y-59350000D01*
X85968571Y-59421429D01*
X86040000Y-59564286D01*
X86111428Y-59850000D01*
X86111428Y-60207143D01*
X86040000Y-60492857D01*
X85968571Y-60635714D01*
X85897142Y-60707143D01*
X85754285Y-60778571D01*
X85611428Y-60778571D01*
X85468571Y-60707143D01*
X85397142Y-60635714D01*
X85325714Y-60492857D01*
X85254285Y-60207143D01*
X85254285Y-59850000D01*
X85325714Y-59564286D01*
X85397142Y-59421429D01*
X85468571Y-59350000D01*
X85611428Y-59278571D01*
X87539999Y-60778571D02*
X86682856Y-60778571D01*
X87111428Y-60778571D02*
X87111428Y-59278571D01*
X86968571Y-59492857D01*
X86825713Y-59635714D01*
X86682856Y-59707143D01*
X88039999Y-59278571D02*
X89039999Y-59278571D01*
X88397142Y-60778571D01*
X89611427Y-60207143D02*
X90754284Y-60207143D01*
X91397141Y-59421429D02*
X91468570Y-59350000D01*
X91611427Y-59278571D01*
X91968570Y-59278571D01*
X92111427Y-59350000D01*
X92182856Y-59421429D01*
X92254284Y-59564286D01*
X92254284Y-59707143D01*
X92182856Y-59921429D01*
X91325713Y-60778571D01*
X92254284Y-60778571D01*
X93182855Y-59278571D02*
X93325712Y-59278571D01*
X93468569Y-59350000D01*
X93539998Y-59421429D01*
X93611427Y-59564286D01*
X93682855Y-59850000D01*
X93682855Y-60207143D01*
X93611427Y-60492857D01*
X93539998Y-60635714D01*
X93468569Y-60707143D01*
X93325712Y-60778571D01*
X93182855Y-60778571D01*
X93039998Y-60707143D01*
X92968569Y-60635714D01*
X92897141Y-60492857D01*
X92825712Y-60207143D01*
X92825712Y-59850000D01*
X92897141Y-59564286D01*
X92968569Y-59421429D01*
X93039998Y-59350000D01*
X93182855Y-59278571D01*
X95111426Y-60778571D02*
X94254283Y-60778571D01*
X94682855Y-60778571D02*
X94682855Y-59278571D01*
X94539998Y-59492857D01*
X94397140Y-59635714D01*
X94254283Y-59707143D01*
X95968569Y-59921429D02*
X95825711Y-59850000D01*
X95754283Y-59778571D01*
X95682854Y-59635714D01*
X95682854Y-59564286D01*
X95754283Y-59421429D01*
X95825711Y-59350000D01*
X95968569Y-59278571D01*
X96254283Y-59278571D01*
X96397140Y-59350000D01*
X96468569Y-59421429D01*
X96539997Y-59564286D01*
X96539997Y-59635714D01*
X96468569Y-59778571D01*
X96397140Y-59850000D01*
X96254283Y-59921429D01*
X95968569Y-59921429D01*
X95825711Y-59992857D01*
X95754283Y-60064286D01*
X95682854Y-60207143D01*
X95682854Y-60492857D01*
X95754283Y-60635714D01*
X95825711Y-60707143D01*
X95968569Y-60778571D01*
X96254283Y-60778571D01*
X96397140Y-60707143D01*
X96468569Y-60635714D01*
X96539997Y-60492857D01*
X96539997Y-60207143D01*
X96468569Y-60064286D01*
X96397140Y-59992857D01*
X96254283Y-59921429D01*
X78397143Y-63328571D02*
X78397143Y-61828571D01*
X78968571Y-61828571D01*
X79111429Y-61900000D01*
X79182857Y-61971429D01*
X79254286Y-62114286D01*
X79254286Y-62328571D01*
X79182857Y-62471429D01*
X79111429Y-62542857D01*
X78968571Y-62614286D01*
X78397143Y-62614286D01*
X79897143Y-63328571D02*
X79897143Y-61828571D01*
X81468572Y-63185714D02*
X81397143Y-63257143D01*
X81182857Y-63328571D01*
X81040000Y-63328571D01*
X80825715Y-63257143D01*
X80682857Y-63114286D01*
X80611429Y-62971429D01*
X80540000Y-62685714D01*
X80540000Y-62471429D01*
X80611429Y-62185714D01*
X80682857Y-62042857D01*
X80825715Y-61900000D01*
X81040000Y-61828571D01*
X81182857Y-61828571D01*
X81397143Y-61900000D01*
X81468572Y-61971429D01*
X82397143Y-61828571D02*
X82682857Y-61828571D01*
X82825715Y-61900000D01*
X82968572Y-62042857D01*
X83040000Y-62328571D01*
X83040000Y-62828571D01*
X82968572Y-63114286D01*
X82825715Y-63257143D01*
X82682857Y-63328571D01*
X82397143Y-63328571D01*
X82254286Y-63257143D01*
X82111429Y-63114286D01*
X82040000Y-62828571D01*
X82040000Y-62328571D01*
X82111429Y-62042857D01*
X82254286Y-61900000D01*
X82397143Y-61828571D01*
X83468572Y-61828571D02*
X84325715Y-61828571D01*
X83897144Y-63328571D02*
X83897144Y-61828571D01*
X84611429Y-61828571D02*
X85468572Y-61828571D01*
X85040001Y-63328571D02*
X85040001Y-61828571D01*
X85968572Y-62542857D02*
X86468572Y-62542857D01*
X86682858Y-63328571D02*
X85968572Y-63328571D01*
X85968572Y-61828571D01*
X86682858Y-61828571D01*
X88397143Y-62900000D02*
X89111429Y-62900000D01*
X88254286Y-63328571D02*
X88754286Y-61828571D01*
X89254286Y-63328571D01*
X89968572Y-63328571D02*
X89825714Y-63257143D01*
X89754286Y-63114286D01*
X89754286Y-61828571D01*
X91111428Y-63257143D02*
X90968571Y-63328571D01*
X90682857Y-63328571D01*
X90540000Y-63257143D01*
X90468571Y-63114286D01*
X90468571Y-62542857D01*
X90540000Y-62400000D01*
X90682857Y-62328571D01*
X90968571Y-62328571D01*
X91111428Y-62400000D01*
X91182857Y-62542857D01*
X91182857Y-62685714D01*
X90468571Y-62828571D01*
X91682857Y-63328571D02*
X92468571Y-62328571D01*
X91682857Y-62328571D02*
X92468571Y-63328571D01*
X93682857Y-63328571D02*
X93682857Y-62542857D01*
X93611428Y-62400000D01*
X93468571Y-62328571D01*
X93182857Y-62328571D01*
X93040000Y-62400000D01*
X93682857Y-63257143D02*
X93540000Y-63328571D01*
X93182857Y-63328571D01*
X93040000Y-63257143D01*
X92968571Y-63114286D01*
X92968571Y-62971429D01*
X93040000Y-62828571D01*
X93182857Y-62757143D01*
X93540000Y-62757143D01*
X93682857Y-62685714D01*
X94397143Y-62328571D02*
X94397143Y-63328571D01*
X94397143Y-62471429D02*
X94468571Y-62400000D01*
X94611429Y-62328571D01*
X94825714Y-62328571D01*
X94968571Y-62400000D01*
X95040000Y-62542857D01*
X95040000Y-63328571D01*
X96397143Y-63328571D02*
X96397143Y-61828571D01*
X96397143Y-63257143D02*
X96254286Y-63328571D01*
X95968572Y-63328571D01*
X95825714Y-63257143D01*
X95754286Y-63185714D01*
X95682857Y-63042857D01*
X95682857Y-62614286D01*
X95754286Y-62471429D01*
X95825714Y-62400000D01*
X95968572Y-62328571D01*
X96254286Y-62328571D01*
X96397143Y-62400000D01*
X97111429Y-63328571D02*
X97111429Y-62328571D01*
X97111429Y-62614286D02*
X97182857Y-62471429D01*
X97254286Y-62400000D01*
X97397143Y-62328571D01*
X97540000Y-62328571D01*
X98611428Y-63257143D02*
X98468571Y-63328571D01*
X98182857Y-63328571D01*
X98040000Y-63257143D01*
X97968571Y-63114286D01*
X97968571Y-62542857D01*
X98040000Y-62400000D01*
X98182857Y-62328571D01*
X98468571Y-62328571D01*
X98611428Y-62400000D01*
X98682857Y-62542857D01*
X98682857Y-62685714D01*
X97968571Y-62828571D01*
D10*
X169500000Y-103500000D02*
X163500000Y-103500000D01*
X169500000Y-112500000D02*
X169500000Y-103500000D01*
X163500000Y-112500000D02*
X169500000Y-112500000D01*
X163500000Y-103500000D02*
X163500000Y-112500000D01*
X75500000Y-147000000D02*
G75*
G03X77500000Y-149000000I2000000J0D01*
G01*
X77500000Y-38000000D02*
G75*
G03X75500000Y-40000000I0J-2000000D01*
G01*
X224500000Y-40000000D02*
G75*
G03X222500000Y-38000000I-2000000J0D01*
G01*
X222500000Y-149000000D02*
G75*
G03X224500000Y-147000000I0J2000000D01*
G01*
X224500000Y-40000000D02*
X224500000Y-147000000D01*
X77500000Y-38000000D02*
X222500000Y-38000000D01*
X77500000Y-149000000D02*
X222500000Y-149000000D01*
X75500000Y-40000000D02*
X75500000Y-147000000D01*
D12*
X213925000Y-68960000D03*
X211385000Y-68960000D03*
D13*
X202690000Y-42955000D03*
X200150000Y-42955000D03*
X197610000Y-42955000D03*
X219835000Y-113700000D03*
X219835000Y-116240000D03*
X219835000Y-110600000D03*
X219835000Y-108060000D03*
X219835000Y-119200000D03*
X219835000Y-121740000D03*
X219835000Y-127380000D03*
X219835000Y-124840000D03*
X109420000Y-43590000D03*
X111960000Y-43590000D03*
X117600000Y-43590000D03*
X115060000Y-43590000D03*
D14*
X205865000Y-144285000D03*
X205865000Y-139205000D03*
D15*
X208180000Y-68960000D03*
X198020000Y-68960000D03*
D16*
X209090000Y-53750000D03*
X216610000Y-53750000D03*
D15*
X179040000Y-128900000D03*
X173960000Y-128900000D03*
D13*
X190690000Y-66420000D03*
X190690000Y-63880000D03*
X190690000Y-61340000D03*
X190690000Y-58800000D03*
X190690000Y-56260000D03*
X190690000Y-53720000D03*
X190690000Y-51180000D03*
X190690000Y-48640000D03*
X137410000Y-71500000D03*
X137410000Y-68960000D03*
X137410000Y-66420000D03*
X137410000Y-63880000D03*
X137410000Y-61340000D03*
X137410000Y-58800000D03*
X137410000Y-56260000D03*
X137410000Y-53720000D03*
X137410000Y-51180000D03*
X137410000Y-48640000D03*
X190690000Y-68960000D03*
X190690000Y-71500000D03*
X82250000Y-112805000D03*
D15*
X98820000Y-112805000D03*
X88660000Y-112805000D03*
D17*
X189075000Y-128900000D03*
X184075000Y-128900000D03*
D13*
X207135000Y-84940000D03*
X207135000Y-87480000D03*
X207135000Y-90020000D03*
X207135000Y-98200000D03*
X207135000Y-95660000D03*
X207135000Y-93120000D03*
X93750000Y-96000000D03*
X93750000Y-93500000D03*
X93750000Y-91000000D03*
X85500000Y-85250000D03*
X88000000Y-85250000D03*
X83000000Y-85250000D03*
D18*
X91750000Y-98800000D03*
X91750000Y-88200000D03*
X79250000Y-88200000D03*
X79250000Y-98800000D03*
D15*
X88750000Y-100950000D03*
X82250000Y-100950000D03*
X82250000Y-105450000D03*
X88750000Y-105450000D03*
D12*
X130456000Y-49025000D03*
X125376000Y-49025000D03*
D17*
X130456000Y-43945000D03*
X125376000Y-43945000D03*
D13*
X205990000Y-129000000D03*
D15*
X205425000Y-105520000D03*
X205425000Y-102980000D03*
X205425000Y-108060000D03*
X205425000Y-110600000D03*
X205425000Y-113140000D03*
X205425000Y-115680000D03*
X205425000Y-118220000D03*
X205425000Y-120760000D03*
X205425000Y-123300000D03*
X213925000Y-123300000D03*
X213925000Y-120760000D03*
X213925000Y-118220000D03*
X213925000Y-115680000D03*
X213925000Y-113140000D03*
X213925000Y-110600000D03*
X213925000Y-108060000D03*
X213925000Y-105520000D03*
X213925000Y-102980000D03*
D12*
X163675000Y-139215000D03*
X168755000Y-139215000D03*
D17*
X163675000Y-144295000D03*
X168755000Y-144295000D03*
D13*
X152300000Y-133460000D03*
X147220000Y-133460000D03*
X144680000Y-133460000D03*
X142140000Y-133460000D03*
X139600000Y-133460000D03*
X137060000Y-133460000D03*
X134520000Y-133460000D03*
X131980000Y-133460000D03*
X187860000Y-85200000D03*
X185320000Y-85200000D03*
X182780000Y-85200000D03*
X180240000Y-85200000D03*
X177700000Y-85200000D03*
X175160000Y-85200000D03*
X172620000Y-85200000D03*
X170080000Y-85200000D03*
X165000000Y-85200000D03*
X162460000Y-85200000D03*
X159920000Y-85200000D03*
X157380000Y-85200000D03*
X154840000Y-85200000D03*
X152300000Y-85200000D03*
X149760000Y-85200000D03*
X147220000Y-85200000D03*
X127916000Y-85200000D03*
X143156000Y-85200000D03*
X140616000Y-85200000D03*
X138076000Y-85200000D03*
X120296000Y-85200000D03*
X122836000Y-85200000D03*
X125376000Y-85200000D03*
X130456000Y-85200000D03*
X132996000Y-85200000D03*
X135536000Y-85200000D03*
X129440000Y-133460000D03*
X154840000Y-133460000D03*
X157380000Y-133460000D03*
X159920000Y-133460000D03*
X162460000Y-133460000D03*
X165000000Y-133460000D03*
X167540000Y-133460000D03*
X170080000Y-133460000D03*
X175160000Y-133460000D03*
X177700000Y-133460000D03*
X180240000Y-133460000D03*
X182780000Y-133460000D03*
X185320000Y-133460000D03*
X187860000Y-133460000D03*
X190400000Y-133460000D03*
X192940000Y-133460000D03*
X195480000Y-85200000D03*
X198020000Y-85200000D03*
X195480000Y-87740000D03*
X198020000Y-87740000D03*
X195480000Y-90280000D03*
X198020000Y-90280000D03*
X195480000Y-92820000D03*
X198020000Y-92820000D03*
X195480000Y-95360000D03*
X198020000Y-95360000D03*
X195480000Y-97900000D03*
X198020000Y-97900000D03*
X195480000Y-100440000D03*
X198020000Y-100440000D03*
X195480000Y-102980000D03*
X198020000Y-102980000D03*
X195480000Y-105520000D03*
X198020000Y-105520000D03*
X195480000Y-108060000D03*
X198020000Y-108060000D03*
X195480000Y-110600000D03*
X198020000Y-110600000D03*
X195480000Y-113140000D03*
X198020000Y-113140000D03*
X195480000Y-115680000D03*
X198020000Y-115680000D03*
X195480000Y-118220000D03*
X198020000Y-118220000D03*
X195480000Y-120760000D03*
X198020000Y-120760000D03*
X195480000Y-123300000D03*
X198020000Y-123300000D03*
X195480000Y-125840000D03*
X198020000Y-125840000D03*
X195480000Y-128380000D03*
X198020000Y-128380000D03*
D19*
X159510000Y-75975000D03*
X188720000Y-46765000D03*
X156970000Y-75975000D03*
X186180000Y-46765000D03*
X183640000Y-46765000D03*
X154430000Y-75975000D03*
X188085000Y-56290000D03*
X196975000Y-131220000D03*
X200648500Y-123282500D03*
X193165000Y-53750000D03*
X195070000Y-51210000D03*
X135536000Y-81739000D03*
X159914000Y-81739000D03*
X202055000Y-87405000D03*
X202055000Y-89945000D03*
X202055000Y-95660000D03*
X202055000Y-93120000D03*
D20*
X215390000Y-57465000D02*
X217930000Y-57465000D01*
X207770000Y-57465000D02*
X210310000Y-57465000D01*
X209040000Y-56195000D02*
X209040000Y-58735000D01*
X172385000Y-124870000D02*
X174925000Y-124870000D01*
X178100000Y-124870000D02*
X180640000Y-124870000D01*
X179370000Y-123600000D02*
X179370000Y-126140000D01*
D21*
X174550000Y-131220000D02*
X172645000Y-133125000D01*
X174550000Y-131220000D02*
X176870000Y-128900000D01*
X179040000Y-128900000D02*
X176870000Y-128900000D01*
X163675000Y-137650000D02*
X163675000Y-139215000D01*
X165660000Y-135665000D02*
X171375000Y-135665000D01*
X163675000Y-137650000D02*
X165660000Y-135665000D01*
X172645000Y-134395000D02*
X171375000Y-135665000D01*
X172645000Y-133125000D02*
X172645000Y-134395000D01*
X205865000Y-139205000D02*
X168765000Y-139205000D01*
X168765000Y-139205000D02*
X168755000Y-139215000D01*
D22*
X188720000Y-46765000D02*
X159510000Y-75975000D01*
X186180000Y-46765000D02*
X156970000Y-75975000D01*
X183640000Y-46765000D02*
X154430000Y-75975000D01*
X198020000Y-123300000D02*
X200631000Y-123300000D01*
X196975000Y-131220000D02*
X195705000Y-131220000D01*
X188085000Y-58290000D02*
X188085000Y-56290000D01*
X188085000Y-58290000D02*
X188085000Y-82420000D01*
X188085000Y-82420000D02*
X189942500Y-84277500D01*
X189942500Y-125457500D02*
X189942500Y-84277500D01*
X195705000Y-131220000D02*
X189942500Y-125457500D01*
X200631000Y-123300000D02*
X200648500Y-123282500D01*
X190690000Y-56260000D02*
X190115000Y-56260000D01*
X193165000Y-53750000D02*
X193165000Y-72165000D01*
X191260000Y-123600000D02*
X193500000Y-125840000D01*
X193500000Y-125840000D02*
X195480000Y-125840000D01*
X191260000Y-122255000D02*
X191260000Y-123600000D01*
X191260000Y-74959000D02*
X191260000Y-122255000D01*
X191260000Y-74705000D02*
X191260000Y-74959000D01*
X191260000Y-74070000D02*
X191260000Y-74705000D01*
X193070000Y-72260000D02*
X191260000Y-74070000D01*
X193165000Y-72165000D02*
X193070000Y-72260000D01*
X193070000Y-53845000D02*
X193165000Y-53750000D01*
X193212500Y-121012500D02*
X193212500Y-122377500D01*
X193212500Y-74117500D02*
X193212500Y-121012500D01*
X194135000Y-123300000D02*
X195480000Y-123300000D01*
X193212500Y-122377500D02*
X194135000Y-123300000D01*
X195070000Y-72260000D02*
X193212500Y-74117500D01*
X195070000Y-51210000D02*
X195070000Y-72260000D01*
X198020000Y-105520000D02*
X205425000Y-105520000D01*
X205425000Y-102980000D02*
X198020000Y-102980000D01*
X205425000Y-108060000D02*
X198020000Y-108060000D01*
X198020000Y-110600000D02*
X205425000Y-110600000D01*
X205425000Y-113140000D02*
X198020000Y-113140000D01*
X198020000Y-115680000D02*
X205425000Y-115680000D01*
X205425000Y-118220000D02*
X198020000Y-118220000D01*
X198020000Y-120760000D02*
X205425000Y-120760000D01*
X135536000Y-81739000D02*
X159914000Y-81739000D01*
X202055000Y-87405000D02*
X200785000Y-87405000D01*
X200450000Y-87740000D02*
X198020000Y-87740000D01*
X200785000Y-87405000D02*
X200450000Y-87740000D01*
X200785000Y-89945000D02*
X202055000Y-89945000D01*
X198020000Y-90280000D02*
X200450000Y-90280000D01*
X200785000Y-89945000D02*
X200450000Y-90280000D01*
X200485000Y-95360000D02*
X198020000Y-95360000D01*
X200785000Y-95660000D02*
X200485000Y-95360000D01*
X202055000Y-95660000D02*
X200785000Y-95660000D01*
X200485000Y-92820000D02*
X198020000Y-92820000D01*
X200785000Y-93120000D02*
X200485000Y-92820000D01*
X202055000Y-93120000D02*
X200785000Y-93120000D01*
D23*
G36*
X194495918Y-127310004D02*
X194656139Y-127376534D01*
X195480000Y-128200395D01*
X196303305Y-127377090D01*
X196461515Y-127311719D01*
X196750075Y-127023662D01*
X197035918Y-127310004D01*
X197196139Y-127376534D01*
X198020000Y-128200395D01*
X198843305Y-127377090D01*
X199001515Y-127311719D01*
X199411950Y-126902000D01*
X209548000Y-126902000D01*
X209548000Y-146968000D01*
X202817000Y-146968000D01*
X202817000Y-145979528D01*
X204350077Y-145979528D01*
X204540364Y-146324271D01*
X205421591Y-146675956D01*
X206370323Y-146663641D01*
X207189636Y-146324271D01*
X207379923Y-145979528D01*
X205865000Y-144464605D01*
X204350077Y-145979528D01*
X202817000Y-145979528D01*
X202817000Y-143841591D01*
X203474044Y-143841591D01*
X203486359Y-144790323D01*
X203825729Y-145609636D01*
X204170472Y-145799923D01*
X205685395Y-144285000D01*
X206044605Y-144285000D01*
X207559528Y-145799923D01*
X207904271Y-145609636D01*
X208255956Y-144728409D01*
X208243641Y-143779677D01*
X207904271Y-142960364D01*
X207559528Y-142770077D01*
X206044605Y-144285000D01*
X205685395Y-144285000D01*
X204170472Y-142770077D01*
X203825729Y-142960364D01*
X203474044Y-143841591D01*
X202817000Y-143841591D01*
X202817000Y-142590472D01*
X204350077Y-142590472D01*
X205865000Y-144105395D01*
X207379923Y-142590472D01*
X207189636Y-142245729D01*
X206308409Y-141894044D01*
X205359677Y-141906359D01*
X204540364Y-142245729D01*
X204350077Y-142590472D01*
X202817000Y-142590472D01*
X202817000Y-140540000D01*
X203836037Y-140540000D01*
X203841916Y-140554229D01*
X204512242Y-141225726D01*
X205388513Y-141589585D01*
X206337325Y-141590413D01*
X207214229Y-141228084D01*
X207885726Y-140557758D01*
X208249585Y-139681487D01*
X208250413Y-138732675D01*
X207888084Y-137855771D01*
X207217758Y-137184274D01*
X206341487Y-136820415D01*
X205392675Y-136819587D01*
X204515771Y-137181916D01*
X203844274Y-137852242D01*
X203836900Y-137870000D01*
X202817000Y-137870000D01*
X202817000Y-130224868D01*
X204944737Y-130224868D01*
X205055641Y-130502099D01*
X205701593Y-130745323D01*
X206391453Y-130722836D01*
X206924359Y-130502099D01*
X207035263Y-130224868D01*
X205990000Y-129179605D01*
X204944737Y-130224868D01*
X202817000Y-130224868D01*
X202817000Y-129950000D01*
X202806994Y-129900590D01*
X202778553Y-129858965D01*
X202736159Y-129831685D01*
X202690000Y-129823000D01*
X198978001Y-129823000D01*
X199065263Y-129604868D01*
X198020000Y-128559605D01*
X196974737Y-129604868D01*
X197006804Y-129685028D01*
X196671009Y-129684735D01*
X196458124Y-129772697D01*
X196525263Y-129604868D01*
X195480000Y-128559605D01*
X195465858Y-128573748D01*
X195286253Y-128394143D01*
X195300395Y-128380000D01*
X195659605Y-128380000D01*
X196464116Y-129184511D01*
X196517901Y-129314359D01*
X196644682Y-129365077D01*
X196704868Y-129425263D01*
X196750000Y-129407208D01*
X196795132Y-129425263D01*
X196855318Y-129365077D01*
X196982099Y-129314359D01*
X197028037Y-129192358D01*
X197840395Y-128380000D01*
X198199605Y-128380000D01*
X199244868Y-129425263D01*
X199522099Y-129314359D01*
X199749061Y-128711593D01*
X204244677Y-128711593D01*
X204267164Y-129401453D01*
X204487901Y-129934359D01*
X204765132Y-130045263D01*
X205810395Y-129000000D01*
X206169605Y-129000000D01*
X207214868Y-130045263D01*
X207492099Y-129934359D01*
X207735323Y-129288407D01*
X207712836Y-128598547D01*
X207492099Y-128065641D01*
X207214868Y-127954737D01*
X206169605Y-129000000D01*
X205810395Y-129000000D01*
X204765132Y-127954737D01*
X204487901Y-128065641D01*
X204244677Y-128711593D01*
X199749061Y-128711593D01*
X199765323Y-128668407D01*
X199742836Y-127978547D01*
X199658579Y-127775132D01*
X204944737Y-127775132D01*
X205990000Y-128820395D01*
X207035263Y-127775132D01*
X206924359Y-127497901D01*
X206278407Y-127254677D01*
X205588547Y-127277164D01*
X205055641Y-127497901D01*
X204944737Y-127775132D01*
X199658579Y-127775132D01*
X199522099Y-127445641D01*
X199244868Y-127334737D01*
X198199605Y-128380000D01*
X197840395Y-128380000D01*
X197035884Y-127575489D01*
X196982099Y-127445641D01*
X196855318Y-127394923D01*
X196795132Y-127334737D01*
X196750000Y-127352792D01*
X196704868Y-127334737D01*
X196644682Y-127394923D01*
X196517901Y-127445641D01*
X196471963Y-127567642D01*
X195659605Y-128380000D01*
X195300395Y-128380000D01*
X194255132Y-127334737D01*
X193977901Y-127445641D01*
X193927000Y-127580823D01*
X193927000Y-126902000D01*
X194088626Y-126902000D01*
X194495918Y-127310004D01*
X194495918Y-127310004D01*
G37*
X194495918Y-127310004D02*
X194656139Y-127376534D01*
X195480000Y-128200395D01*
X196303305Y-127377090D01*
X196461515Y-127311719D01*
X196750075Y-127023662D01*
X197035918Y-127310004D01*
X197196139Y-127376534D01*
X198020000Y-128200395D01*
X198843305Y-127377090D01*
X199001515Y-127311719D01*
X199411950Y-126902000D01*
X209548000Y-126902000D01*
X209548000Y-146968000D01*
X202817000Y-146968000D01*
X202817000Y-145979528D01*
X204350077Y-145979528D01*
X204540364Y-146324271D01*
X205421591Y-146675956D01*
X206370323Y-146663641D01*
X207189636Y-146324271D01*
X207379923Y-145979528D01*
X205865000Y-144464605D01*
X204350077Y-145979528D01*
X202817000Y-145979528D01*
X202817000Y-143841591D01*
X203474044Y-143841591D01*
X203486359Y-144790323D01*
X203825729Y-145609636D01*
X204170472Y-145799923D01*
X205685395Y-144285000D01*
X206044605Y-144285000D01*
X207559528Y-145799923D01*
X207904271Y-145609636D01*
X208255956Y-144728409D01*
X208243641Y-143779677D01*
X207904271Y-142960364D01*
X207559528Y-142770077D01*
X206044605Y-144285000D01*
X205685395Y-144285000D01*
X204170472Y-142770077D01*
X203825729Y-142960364D01*
X203474044Y-143841591D01*
X202817000Y-143841591D01*
X202817000Y-142590472D01*
X204350077Y-142590472D01*
X205865000Y-144105395D01*
X207379923Y-142590472D01*
X207189636Y-142245729D01*
X206308409Y-141894044D01*
X205359677Y-141906359D01*
X204540364Y-142245729D01*
X204350077Y-142590472D01*
X202817000Y-142590472D01*
X202817000Y-140540000D01*
X203836037Y-140540000D01*
X203841916Y-140554229D01*
X204512242Y-141225726D01*
X205388513Y-141589585D01*
X206337325Y-141590413D01*
X207214229Y-141228084D01*
X207885726Y-140557758D01*
X208249585Y-139681487D01*
X208250413Y-138732675D01*
X207888084Y-137855771D01*
X207217758Y-137184274D01*
X206341487Y-136820415D01*
X205392675Y-136819587D01*
X204515771Y-137181916D01*
X203844274Y-137852242D01*
X203836900Y-137870000D01*
X202817000Y-137870000D01*
X202817000Y-130224868D01*
X204944737Y-130224868D01*
X205055641Y-130502099D01*
X205701593Y-130745323D01*
X206391453Y-130722836D01*
X206924359Y-130502099D01*
X207035263Y-130224868D01*
X205990000Y-129179605D01*
X204944737Y-130224868D01*
X202817000Y-130224868D01*
X202817000Y-129950000D01*
X202806994Y-129900590D01*
X202778553Y-129858965D01*
X202736159Y-129831685D01*
X202690000Y-129823000D01*
X198978001Y-129823000D01*
X199065263Y-129604868D01*
X198020000Y-128559605D01*
X196974737Y-129604868D01*
X197006804Y-129685028D01*
X196671009Y-129684735D01*
X196458124Y-129772697D01*
X196525263Y-129604868D01*
X195480000Y-128559605D01*
X195465858Y-128573748D01*
X195286253Y-128394143D01*
X195300395Y-128380000D01*
X195659605Y-128380000D01*
X196464116Y-129184511D01*
X196517901Y-129314359D01*
X196644682Y-129365077D01*
X196704868Y-129425263D01*
X196750000Y-129407208D01*
X196795132Y-129425263D01*
X196855318Y-129365077D01*
X196982099Y-129314359D01*
X197028037Y-129192358D01*
X197840395Y-128380000D01*
X198199605Y-128380000D01*
X199244868Y-129425263D01*
X199522099Y-129314359D01*
X199749061Y-128711593D01*
X204244677Y-128711593D01*
X204267164Y-129401453D01*
X204487901Y-129934359D01*
X204765132Y-130045263D01*
X205810395Y-129000000D01*
X206169605Y-129000000D01*
X207214868Y-130045263D01*
X207492099Y-129934359D01*
X207735323Y-129288407D01*
X207712836Y-128598547D01*
X207492099Y-128065641D01*
X207214868Y-127954737D01*
X206169605Y-129000000D01*
X205810395Y-129000000D01*
X204765132Y-127954737D01*
X204487901Y-128065641D01*
X204244677Y-128711593D01*
X199749061Y-128711593D01*
X199765323Y-128668407D01*
X199742836Y-127978547D01*
X199658579Y-127775132D01*
X204944737Y-127775132D01*
X205990000Y-128820395D01*
X207035263Y-127775132D01*
X206924359Y-127497901D01*
X206278407Y-127254677D01*
X205588547Y-127277164D01*
X205055641Y-127497901D01*
X204944737Y-127775132D01*
X199658579Y-127775132D01*
X199522099Y-127445641D01*
X199244868Y-127334737D01*
X198199605Y-128380000D01*
X197840395Y-128380000D01*
X197035884Y-127575489D01*
X196982099Y-127445641D01*
X196855318Y-127394923D01*
X196795132Y-127334737D01*
X196750000Y-127352792D01*
X196704868Y-127334737D01*
X196644682Y-127394923D01*
X196517901Y-127445641D01*
X196471963Y-127567642D01*
X195659605Y-128380000D01*
X195300395Y-128380000D01*
X194255132Y-127334737D01*
X193977901Y-127445641D01*
X193927000Y-127580823D01*
X193927000Y-126902000D01*
X194088626Y-126902000D01*
X194495918Y-127310004D01*
M02*
