M48
;DRILL file {KiCad 4.0.7} date 06/30/18 16:30:05
;FORMAT={-:-/ absolute / metric / decimal}
FMAT,2
METRIC,TZ
T1C0.800
T2C0.900
T3C1.000
T4C1.500
%
G90
G05
M71
T1
X82.25Y-100.95
X82.25Y-105.45
X88.66Y-112.805
X88.75Y-100.95
X88.75Y-105.45
X98.82Y-112.805
X125.376Y-49.025
X130.456Y-49.025
X163.675Y-139.215
X168.755Y-139.215
X173.96Y-128.9
X179.04Y-128.9
X184.075Y-128.9
X189.075Y-128.9
X198.02Y-68.96
X205.425Y-102.98
X205.425Y-105.52
X205.425Y-108.06
X205.425Y-110.6
X205.425Y-113.14
X205.425Y-115.68
X205.425Y-118.22
X205.425Y-120.76
X205.425Y-123.3
X208.18Y-68.96
X211.385Y-68.96
X213.925Y-68.96
X213.925Y-102.98
X213.925Y-105.52
X213.925Y-108.06
X213.925Y-110.6
X213.925Y-113.14
X213.925Y-115.68
X213.925Y-118.22
X213.925Y-120.76
X213.925Y-123.3
T2
X82.25Y-112.805
X83.Y-85.25
X85.5Y-85.25
X88.Y-85.25
X93.75Y-91.
X93.75Y-93.5
X93.75Y-96.
X109.42Y-43.59
X111.96Y-43.59
X115.06Y-43.59
X117.6Y-43.59
X120.296Y-85.2
X122.836Y-85.2
X125.376Y-85.2
X127.916Y-85.2
X129.44Y-133.46
X130.456Y-85.2
X131.98Y-133.46
X132.996Y-85.2
X134.52Y-133.46
X135.536Y-81.739
X135.536Y-85.2
X137.06Y-133.46
X137.41Y-48.64
X137.41Y-51.18
X137.41Y-53.72
X137.41Y-56.26
X137.41Y-58.8
X137.41Y-61.34
X137.41Y-63.88
X137.41Y-66.42
X137.41Y-68.96
X137.41Y-71.5
X138.076Y-85.2
X139.6Y-133.46
X140.616Y-85.2
X142.14Y-133.46
X143.156Y-85.2
X144.68Y-133.46
X147.22Y-85.2
X147.22Y-133.46
X149.76Y-85.2
X152.3Y-85.2
X152.3Y-133.46
X154.43Y-75.975
X154.84Y-85.2
X154.84Y-133.46
X156.97Y-75.975
X157.38Y-85.2
X157.38Y-133.46
X159.51Y-75.975
X159.914Y-81.739
X159.92Y-85.2
X159.92Y-133.46
X162.46Y-85.2
X162.46Y-133.46
X165.Y-85.2
X165.Y-133.46
X167.54Y-133.46
X170.08Y-85.2
X170.08Y-133.46
X172.62Y-85.2
X175.16Y-85.2
X175.16Y-133.46
X177.7Y-85.2
X177.7Y-133.46
X180.24Y-85.2
X180.24Y-133.46
X182.78Y-85.2
X182.78Y-133.46
X183.64Y-46.765
X185.32Y-85.2
X185.32Y-133.46
X186.18Y-46.765
X187.86Y-85.2
X187.86Y-133.46
X188.085Y-56.29
X188.72Y-46.765
X190.4Y-133.46
X190.69Y-48.64
X190.69Y-51.18
X190.69Y-53.72
X190.69Y-56.26
X190.69Y-58.8
X190.69Y-61.34
X190.69Y-63.88
X190.69Y-66.42
X190.69Y-68.96
X190.69Y-71.5
X192.94Y-133.46
X193.165Y-53.75
X195.07Y-51.21
X195.48Y-85.2
X195.48Y-87.74
X195.48Y-90.28
X195.48Y-92.82
X195.48Y-95.36
X195.48Y-97.9
X195.48Y-100.44
X195.48Y-102.98
X195.48Y-105.52
X195.48Y-108.06
X195.48Y-110.6
X195.48Y-113.14
X195.48Y-115.68
X195.48Y-118.22
X195.48Y-120.76
X195.48Y-123.3
X195.48Y-125.84
X195.48Y-128.38
X196.975Y-131.22
X197.61Y-42.955
X198.02Y-85.2
X198.02Y-87.74
X198.02Y-90.28
X198.02Y-92.82
X198.02Y-95.36
X198.02Y-97.9
X198.02Y-100.44
X198.02Y-102.98
X198.02Y-105.52
X198.02Y-108.06
X198.02Y-110.6
X198.02Y-113.14
X198.02Y-115.68
X198.02Y-118.22
X198.02Y-120.76
X198.02Y-123.3
X198.02Y-125.84
X198.02Y-128.38
X200.15Y-42.955
X200.648Y-123.282
X202.055Y-87.405
X202.055Y-89.945
X202.055Y-93.12
X202.055Y-95.66
X202.69Y-42.955
X205.99Y-129.
X207.135Y-87.48
X207.135Y-90.02
X207.135Y-93.12
X207.135Y-95.66
X207.135Y-98.2
X219.835Y-108.06
X219.835Y-110.6
X219.835Y-113.7
X219.835Y-116.24
X219.835Y-119.2
X219.835Y-121.74
X219.835Y-124.84
X219.835Y-127.38
T3
X209.09Y-53.75
X216.61Y-53.75
T4
X205.865Y-139.205
X205.865Y-144.285
T0
M30
