M48
;DRILL file {KiCad (5.0.0)} date 05/16/19 14:07:57
;FORMAT={-:-/ absolute / metric / decimal}
FMAT,2
METRIC,TZ
T1C0.800
%
G90
G05
M71
T1
X176.53Y-95.25
X152.4Y-102.87
X139.7Y-83.82
X139.7Y-91.44
X149.86Y-83.82
X149.86Y-91.44
X142.24Y-96.52
X142.24Y-99.06
X142.24Y-101.6
X142.24Y-104.14
X144.78Y-97.79
X144.78Y-100.33
X144.78Y-102.87
X144.78Y-105.41
X137.16Y-78.74
X147.32Y-78.74
X152.4Y-72.39
X152.4Y-80.01
X162.56Y-72.39
X162.56Y-80.01
X165.1Y-83.82
X165.1Y-91.44
X175.26Y-83.82
X175.26Y-91.44
X166.37Y-95.25
X137.16Y-74.93
X147.32Y-74.93
X152.4Y-95.25
X162.56Y-95.25
X162.56Y-102.87
X166.37Y-99.06
X176.53Y-99.06
T0
M30
