M48
;DRILL file {KiCad (5.0.0)} date 05/16/19 09:16:04
;FORMAT={-:-/ absolute / metric / decimal}
FMAT,2
METRIC,TZ
T1C0.800
%
G90
G05
M71
T1
X152.4Y-95.25
X152.4Y-102.87
X162.56Y-95.25
X162.56Y-102.87
X166.37Y-95.25
X176.53Y-95.25
X137.16Y-78.74
X147.32Y-78.74
X130.73Y-84.17
X130.73Y-86.71
X130.73Y-89.25
X130.73Y-91.79
X133.27Y-85.44
X133.27Y-87.98
X133.27Y-90.52
X133.27Y-93.06
X152.4Y-72.39
X152.4Y-80.01
X162.56Y-72.39
X162.56Y-80.01
X166.37Y-99.06
X176.53Y-99.06
X165.1Y-83.82
X165.1Y-91.44
X175.26Y-83.82
X175.26Y-91.44
X139.7Y-83.82
X139.7Y-91.44
X149.86Y-83.82
X149.86Y-91.44
X137.16Y-74.93
X147.32Y-74.93
T0
M30
