M48
;DRILL file {KiCad 4.0.7} date 06/30/18 16:25:35
;FORMAT={-:-/ absolute / metric / decimal}
FMAT,2
METRIC,TZ
T1C0.900
T2C1.000
%
G90
G05
M71
T1
X154.735Y-80.425
X154.735Y-83.6
X155.37Y-75.345
X159.815Y-83.96
X159.815Y-86.5
X159.815Y-89.04
X159.815Y-96.173
X162.355Y-83.96
X162.355Y-86.5
X162.355Y-89.04
X162.355Y-99.983
T2
X120.Y-86.5
X120.Y-91.5
X125.Y-86.5
X125.Y-91.5
X133.5Y-73.
X133.5Y-78.
X133.5Y-100.
X133.5Y-105.
X138.5Y-73.
X138.5Y-78.
X138.5Y-100.
X138.5Y-105.
X147.Y-86.5
X147.Y-91.5
X152.Y-86.5
X152.Y-91.5
T0
M30
