G04 #@! TF.FileFunction,Copper,L2,Bot,Signal*
%FSLAX46Y46*%
G04 Gerber Fmt 4.6, Leading zero omitted, Abs format (unit mm)*
G04 Created by KiCad (PCBNEW 4.0.7) date 06/30/18 16:25:32*
%MOMM*%
%LPD*%
G01*
G04 APERTURE LIST*
%ADD10C,0.100000*%
%ADD11C,2.500000*%
%ADD12C,2.200000*%
%ADD13C,1.800000*%
%ADD14C,0.800000*%
%ADD15C,0.254000*%
G04 APERTURE END LIST*
D10*
D11*
X138500000Y-73000000D03*
X133500000Y-73000000D03*
X133500000Y-78000000D03*
X138500000Y-78000000D03*
X125000000Y-86500000D03*
X120000000Y-86500000D03*
X120000000Y-91500000D03*
X125000000Y-91500000D03*
X152000000Y-86500000D03*
X147000000Y-86500000D03*
X147000000Y-91500000D03*
X152000000Y-91500000D03*
X138500000Y-100000000D03*
X133500000Y-100000000D03*
X133500000Y-105000000D03*
X138500000Y-105000000D03*
D12*
X159815000Y-96173000D03*
X162355000Y-89040000D03*
X162355000Y-86500000D03*
X162355000Y-83960000D03*
X159815000Y-89040000D03*
X159815000Y-86500000D03*
X159815000Y-83960000D03*
D13*
X154735000Y-83600000D03*
X154735000Y-80425000D03*
X162355000Y-99983000D03*
X155370000Y-75345000D03*
D14*
X152000000Y-86500000D02*
X152000000Y-86335000D01*
X152000000Y-86335000D02*
X154735000Y-83600000D01*
X125000000Y-84760000D02*
X129335000Y-80425000D01*
X129335000Y-80425000D02*
X154735000Y-80425000D01*
X125000000Y-86500000D02*
X125000000Y-84760000D01*
X125000000Y-86500000D02*
X125165000Y-86500000D01*
X151395000Y-100000000D02*
X162338000Y-100000000D01*
X162338000Y-100000000D02*
X162355000Y-99983000D01*
X151395000Y-100000000D02*
X151416000Y-100000000D01*
X138500000Y-100000000D02*
X151395000Y-100000000D01*
X153025000Y-73000000D02*
X151395000Y-73000000D01*
X138500000Y-73000000D02*
X150925000Y-73000000D01*
X150925000Y-73000000D02*
X151395000Y-73000000D01*
X155370000Y-75345000D02*
X153025000Y-73000000D01*
D15*
G36*
X163488338Y-69821046D02*
X163902333Y-70097669D01*
X164178953Y-70511660D01*
X164290000Y-71069931D01*
X164290000Y-106930069D01*
X164178953Y-107488340D01*
X163902333Y-107902331D01*
X163488338Y-108178954D01*
X162930069Y-108290000D01*
X118069931Y-108290000D01*
X117511660Y-108178953D01*
X117097669Y-107902333D01*
X116821046Y-107488338D01*
X116710000Y-106930069D01*
X116710000Y-105373305D01*
X131614674Y-105373305D01*
X131901043Y-106066372D01*
X132430839Y-106597093D01*
X133123405Y-106884672D01*
X133873305Y-106885326D01*
X134566372Y-106598957D01*
X134832472Y-106333320D01*
X137346285Y-106333320D01*
X137475533Y-106626123D01*
X138175806Y-106894388D01*
X138925435Y-106874250D01*
X139524467Y-106626123D01*
X139653715Y-106333320D01*
X138500000Y-105179605D01*
X137346285Y-106333320D01*
X134832472Y-106333320D01*
X135097093Y-106069161D01*
X135384672Y-105376595D01*
X135385283Y-104675806D01*
X136605612Y-104675806D01*
X136625750Y-105425435D01*
X136873877Y-106024467D01*
X137166680Y-106153715D01*
X138320395Y-105000000D01*
X138679605Y-105000000D01*
X139833320Y-106153715D01*
X140126123Y-106024467D01*
X140394388Y-105324194D01*
X140374250Y-104574565D01*
X140126123Y-103975533D01*
X139833320Y-103846285D01*
X138679605Y-105000000D01*
X138320395Y-105000000D01*
X137166680Y-103846285D01*
X136873877Y-103975533D01*
X136605612Y-104675806D01*
X135385283Y-104675806D01*
X135385326Y-104626695D01*
X135098957Y-103933628D01*
X134832475Y-103666680D01*
X137346285Y-103666680D01*
X138500000Y-104820395D01*
X139653715Y-103666680D01*
X139524467Y-103373877D01*
X138824194Y-103105612D01*
X138074565Y-103125750D01*
X137475533Y-103373877D01*
X137346285Y-103666680D01*
X134832475Y-103666680D01*
X134569161Y-103402907D01*
X133876595Y-103115328D01*
X133126695Y-103114674D01*
X132433628Y-103401043D01*
X131902907Y-103930839D01*
X131615328Y-104623405D01*
X131614674Y-105373305D01*
X116710000Y-105373305D01*
X116710000Y-102942619D01*
X120264613Y-102942619D01*
X120604155Y-103764372D01*
X121232321Y-104393636D01*
X122053481Y-104734611D01*
X122942619Y-104735387D01*
X123764372Y-104395845D01*
X124393636Y-103767679D01*
X124734611Y-102946519D01*
X124735387Y-102057381D01*
X124395845Y-101235628D01*
X123767679Y-100606364D01*
X123206410Y-100373305D01*
X131614674Y-100373305D01*
X131901043Y-101066372D01*
X132430839Y-101597093D01*
X133123405Y-101884672D01*
X133873305Y-101885326D01*
X134566372Y-101598957D01*
X135097093Y-101069161D01*
X135384672Y-100376595D01*
X135384674Y-100373305D01*
X136614674Y-100373305D01*
X136901043Y-101066372D01*
X137430839Y-101597093D01*
X138123405Y-101884672D01*
X138873305Y-101885326D01*
X139566372Y-101598957D01*
X140097093Y-101069161D01*
X140111278Y-101035000D01*
X147804030Y-101035000D01*
X147606364Y-101232321D01*
X147265389Y-102053481D01*
X147264613Y-102942619D01*
X147604155Y-103764372D01*
X148232321Y-104393636D01*
X149053481Y-104734611D01*
X149942619Y-104735387D01*
X150764372Y-104395845D01*
X151393636Y-103767679D01*
X151734611Y-102946519D01*
X151735387Y-102057381D01*
X151395845Y-101235628D01*
X151195567Y-101035000D01*
X161236240Y-101035000D01*
X161484357Y-101283551D01*
X162048330Y-101517733D01*
X162658991Y-101518265D01*
X163223371Y-101285068D01*
X163655551Y-100853643D01*
X163889733Y-100289670D01*
X163890265Y-99679009D01*
X163657068Y-99114629D01*
X163225643Y-98682449D01*
X162661670Y-98448267D01*
X162051009Y-98447735D01*
X161486629Y-98680932D01*
X161202064Y-98965000D01*
X140111920Y-98965000D01*
X140098957Y-98933628D01*
X139569161Y-98402907D01*
X138876595Y-98115328D01*
X138126695Y-98114674D01*
X137433628Y-98401043D01*
X136902907Y-98930839D01*
X136615328Y-99623405D01*
X136614674Y-100373305D01*
X135384674Y-100373305D01*
X135385326Y-99626695D01*
X135098957Y-98933628D01*
X134569161Y-98402907D01*
X133876595Y-98115328D01*
X133126695Y-98114674D01*
X132433628Y-98401043D01*
X131902907Y-98930839D01*
X131615328Y-99623405D01*
X131614674Y-100373305D01*
X123206410Y-100373305D01*
X122946519Y-100265389D01*
X122057381Y-100264613D01*
X121235628Y-100604155D01*
X120606364Y-101232321D01*
X120265389Y-102053481D01*
X120264613Y-102942619D01*
X116710000Y-102942619D01*
X116710000Y-97397868D01*
X158769737Y-97397868D01*
X158880641Y-97675099D01*
X159526593Y-97918323D01*
X160216453Y-97895836D01*
X160749359Y-97675099D01*
X160860263Y-97397868D01*
X159815000Y-96352605D01*
X158769737Y-97397868D01*
X116710000Y-97397868D01*
X116710000Y-95884593D01*
X158069677Y-95884593D01*
X158092164Y-96574453D01*
X158312901Y-97107359D01*
X158590132Y-97218263D01*
X159635395Y-96173000D01*
X159994605Y-96173000D01*
X161039868Y-97218263D01*
X161317099Y-97107359D01*
X161560323Y-96461407D01*
X161537836Y-95771547D01*
X161317099Y-95238641D01*
X161039868Y-95127737D01*
X159994605Y-96173000D01*
X159635395Y-96173000D01*
X158590132Y-95127737D01*
X158312901Y-95238641D01*
X158069677Y-95884593D01*
X116710000Y-95884593D01*
X116710000Y-94948132D01*
X158769737Y-94948132D01*
X159815000Y-95993395D01*
X160860263Y-94948132D01*
X160749359Y-94670901D01*
X160103407Y-94427677D01*
X159413547Y-94450164D01*
X158880641Y-94670901D01*
X158769737Y-94948132D01*
X116710000Y-94948132D01*
X116710000Y-91873305D01*
X118114674Y-91873305D01*
X118401043Y-92566372D01*
X118930839Y-93097093D01*
X119623405Y-93384672D01*
X120373305Y-93385326D01*
X121066372Y-93098957D01*
X121332472Y-92833320D01*
X123846285Y-92833320D01*
X123975533Y-93126123D01*
X124675806Y-93394388D01*
X125425435Y-93374250D01*
X126024467Y-93126123D01*
X126153715Y-92833320D01*
X125000000Y-91679605D01*
X123846285Y-92833320D01*
X121332472Y-92833320D01*
X121597093Y-92569161D01*
X121884672Y-91876595D01*
X121885283Y-91175806D01*
X123105612Y-91175806D01*
X123125750Y-91925435D01*
X123373877Y-92524467D01*
X123666680Y-92653715D01*
X124820395Y-91500000D01*
X125179605Y-91500000D01*
X126333320Y-92653715D01*
X126626123Y-92524467D01*
X126875574Y-91873305D01*
X145114674Y-91873305D01*
X145401043Y-92566372D01*
X145930839Y-93097093D01*
X146623405Y-93384672D01*
X147373305Y-93385326D01*
X148066372Y-93098957D01*
X148332472Y-92833320D01*
X150846285Y-92833320D01*
X150975533Y-93126123D01*
X151675806Y-93394388D01*
X152425435Y-93374250D01*
X153024467Y-93126123D01*
X153153715Y-92833320D01*
X152000000Y-91679605D01*
X150846285Y-92833320D01*
X148332472Y-92833320D01*
X148597093Y-92569161D01*
X148884672Y-91876595D01*
X148885283Y-91175806D01*
X150105612Y-91175806D01*
X150125750Y-91925435D01*
X150373877Y-92524467D01*
X150666680Y-92653715D01*
X151820395Y-91500000D01*
X152179605Y-91500000D01*
X153333320Y-92653715D01*
X153626123Y-92524467D01*
X153894388Y-91824194D01*
X153874250Y-91074565D01*
X153626123Y-90475533D01*
X153333320Y-90346285D01*
X152179605Y-91500000D01*
X151820395Y-91500000D01*
X150666680Y-90346285D01*
X150373877Y-90475533D01*
X150105612Y-91175806D01*
X148885283Y-91175806D01*
X148885326Y-91126695D01*
X148598957Y-90433628D01*
X148332475Y-90166680D01*
X150846285Y-90166680D01*
X152000000Y-91320395D01*
X153055527Y-90264868D01*
X158769737Y-90264868D01*
X158880641Y-90542099D01*
X159526593Y-90785323D01*
X160216453Y-90762836D01*
X160749359Y-90542099D01*
X160860263Y-90264868D01*
X159815000Y-89219605D01*
X158769737Y-90264868D01*
X153055527Y-90264868D01*
X153153715Y-90166680D01*
X153024467Y-89873877D01*
X152324194Y-89605612D01*
X151574565Y-89625750D01*
X150975533Y-89873877D01*
X150846285Y-90166680D01*
X148332475Y-90166680D01*
X148069161Y-89902907D01*
X147376595Y-89615328D01*
X146626695Y-89614674D01*
X145933628Y-89901043D01*
X145402907Y-90430839D01*
X145115328Y-91123405D01*
X145114674Y-91873305D01*
X126875574Y-91873305D01*
X126894388Y-91824194D01*
X126874250Y-91074565D01*
X126626123Y-90475533D01*
X126333320Y-90346285D01*
X125179605Y-91500000D01*
X124820395Y-91500000D01*
X123666680Y-90346285D01*
X123373877Y-90475533D01*
X123105612Y-91175806D01*
X121885283Y-91175806D01*
X121885326Y-91126695D01*
X121598957Y-90433628D01*
X121332475Y-90166680D01*
X123846285Y-90166680D01*
X125000000Y-91320395D01*
X126153715Y-90166680D01*
X126024467Y-89873877D01*
X125324194Y-89605612D01*
X124574565Y-89625750D01*
X123975533Y-89873877D01*
X123846285Y-90166680D01*
X121332475Y-90166680D01*
X121069161Y-89902907D01*
X120376595Y-89615328D01*
X119626695Y-89614674D01*
X118933628Y-89901043D01*
X118402907Y-90430839D01*
X118115328Y-91123405D01*
X118114674Y-91873305D01*
X116710000Y-91873305D01*
X116710000Y-88751593D01*
X158069677Y-88751593D01*
X158092164Y-89441453D01*
X158312901Y-89974359D01*
X158590132Y-90085263D01*
X159635395Y-89040000D01*
X158590132Y-87994737D01*
X158312901Y-88105641D01*
X158069677Y-88751593D01*
X116710000Y-88751593D01*
X116710000Y-86873305D01*
X118114674Y-86873305D01*
X118401043Y-87566372D01*
X118930839Y-88097093D01*
X119623405Y-88384672D01*
X120373305Y-88385326D01*
X121066372Y-88098957D01*
X121597093Y-87569161D01*
X121884672Y-86876595D01*
X121884674Y-86873305D01*
X123114674Y-86873305D01*
X123401043Y-87566372D01*
X123930839Y-88097093D01*
X124623405Y-88384672D01*
X125373305Y-88385326D01*
X126066372Y-88098957D01*
X126597093Y-87569161D01*
X126884672Y-86876595D01*
X126884674Y-86873305D01*
X145114674Y-86873305D01*
X145401043Y-87566372D01*
X145930839Y-88097093D01*
X146623405Y-88384672D01*
X147373305Y-88385326D01*
X148066372Y-88098957D01*
X148597093Y-87569161D01*
X148884672Y-86876595D01*
X148884674Y-86873305D01*
X150114674Y-86873305D01*
X150401043Y-87566372D01*
X150930839Y-88097093D01*
X151623405Y-88384672D01*
X152373305Y-88385326D01*
X153066372Y-88098957D01*
X153597093Y-87569161D01*
X153884672Y-86876595D01*
X153885326Y-86126695D01*
X153822958Y-85975753D01*
X154663773Y-85134938D01*
X155038991Y-85135265D01*
X155603371Y-84902068D01*
X156035551Y-84470643D01*
X156104913Y-84303599D01*
X158079699Y-84303599D01*
X158343281Y-84941515D01*
X158631338Y-85230075D01*
X158344996Y-85515918D01*
X158080301Y-86153373D01*
X158079699Y-86843599D01*
X158343281Y-87481515D01*
X158830918Y-87970004D01*
X158991139Y-88036534D01*
X159815000Y-88860395D01*
X160638305Y-88037090D01*
X160796515Y-87971719D01*
X161085075Y-87683662D01*
X161171338Y-87770075D01*
X160884996Y-88055918D01*
X160818466Y-88216139D01*
X159994605Y-89040000D01*
X160817910Y-89863305D01*
X160883281Y-90021515D01*
X161370918Y-90510004D01*
X162008373Y-90774699D01*
X162698599Y-90775301D01*
X163336515Y-90511719D01*
X163825004Y-90024082D01*
X164089699Y-89386627D01*
X164090301Y-88696401D01*
X163826719Y-88058485D01*
X163538662Y-87769925D01*
X163825004Y-87484082D01*
X164089699Y-86846627D01*
X164090301Y-86156401D01*
X163826719Y-85518485D01*
X163538662Y-85229925D01*
X163825004Y-84944082D01*
X164089699Y-84306627D01*
X164090301Y-83616401D01*
X163826719Y-82978485D01*
X163339082Y-82489996D01*
X162701627Y-82225301D01*
X162011401Y-82224699D01*
X161373485Y-82488281D01*
X161084925Y-82776338D01*
X160799082Y-82489996D01*
X160161627Y-82225301D01*
X159471401Y-82224699D01*
X158833485Y-82488281D01*
X158344996Y-82975918D01*
X158080301Y-83613373D01*
X158079699Y-84303599D01*
X156104913Y-84303599D01*
X156269733Y-83906670D01*
X156270265Y-83296009D01*
X156037068Y-82731629D01*
X155605643Y-82299449D01*
X155041670Y-82065267D01*
X154431009Y-82064735D01*
X153866629Y-82297932D01*
X153434449Y-82729357D01*
X153200267Y-83293330D01*
X153199938Y-83671351D01*
X152256065Y-84615223D01*
X151626695Y-84614674D01*
X150933628Y-84901043D01*
X150402907Y-85430839D01*
X150115328Y-86123405D01*
X150114674Y-86873305D01*
X148884674Y-86873305D01*
X148885326Y-86126695D01*
X148598957Y-85433628D01*
X148069161Y-84902907D01*
X147376595Y-84615328D01*
X146626695Y-84614674D01*
X145933628Y-84901043D01*
X145402907Y-85430839D01*
X145115328Y-86123405D01*
X145114674Y-86873305D01*
X126884674Y-86873305D01*
X126885326Y-86126695D01*
X126598957Y-85433628D01*
X126194873Y-85028839D01*
X129763711Y-81460000D01*
X153599270Y-81460000D01*
X153864357Y-81725551D01*
X154428330Y-81959733D01*
X155038991Y-81960265D01*
X155603371Y-81727068D01*
X156035551Y-81295643D01*
X156269733Y-80731670D01*
X156270265Y-80121009D01*
X156037068Y-79556629D01*
X155605643Y-79124449D01*
X155041670Y-78890267D01*
X154431009Y-78889735D01*
X153866629Y-79122932D01*
X153599094Y-79390000D01*
X139628696Y-79390000D01*
X139653715Y-79333320D01*
X138500000Y-78179605D01*
X137346285Y-79333320D01*
X137371304Y-79390000D01*
X134775694Y-79390000D01*
X135097093Y-79069161D01*
X135384672Y-78376595D01*
X135385283Y-77675806D01*
X136605612Y-77675806D01*
X136625750Y-78425435D01*
X136873877Y-79024467D01*
X137166680Y-79153715D01*
X138320395Y-78000000D01*
X138679605Y-78000000D01*
X139833320Y-79153715D01*
X140126123Y-79024467D01*
X140394388Y-78324194D01*
X140374250Y-77574565D01*
X140126123Y-76975533D01*
X139833320Y-76846285D01*
X138679605Y-78000000D01*
X138320395Y-78000000D01*
X137166680Y-76846285D01*
X136873877Y-76975533D01*
X136605612Y-77675806D01*
X135385283Y-77675806D01*
X135385326Y-77626695D01*
X135098957Y-76933628D01*
X134832475Y-76666680D01*
X137346285Y-76666680D01*
X138500000Y-77820395D01*
X139653715Y-76666680D01*
X139524467Y-76373877D01*
X138824194Y-76105612D01*
X138074565Y-76125750D01*
X137475533Y-76373877D01*
X137346285Y-76666680D01*
X134832475Y-76666680D01*
X134569161Y-76402907D01*
X133876595Y-76115328D01*
X133126695Y-76114674D01*
X132433628Y-76401043D01*
X131902907Y-76930839D01*
X131615328Y-77623405D01*
X131614674Y-78373305D01*
X131901043Y-79066372D01*
X132224107Y-79390000D01*
X129335005Y-79390000D01*
X129335000Y-79389999D01*
X128938923Y-79468785D01*
X128603144Y-79693144D01*
X128603142Y-79693147D01*
X124268144Y-84028144D01*
X124043785Y-84363923D01*
X123964999Y-84760000D01*
X123965000Y-84760005D01*
X123965000Y-84888080D01*
X123933628Y-84901043D01*
X123402907Y-85430839D01*
X123115328Y-86123405D01*
X123114674Y-86873305D01*
X121884674Y-86873305D01*
X121885326Y-86126695D01*
X121598957Y-85433628D01*
X121069161Y-84902907D01*
X120376595Y-84615328D01*
X119626695Y-84614674D01*
X118933628Y-84901043D01*
X118402907Y-85430839D01*
X118115328Y-86123405D01*
X118114674Y-86873305D01*
X116710000Y-86873305D01*
X116710000Y-75942619D01*
X120264613Y-75942619D01*
X120604155Y-76764372D01*
X121232321Y-77393636D01*
X122053481Y-77734611D01*
X122942619Y-77735387D01*
X123764372Y-77395845D01*
X124393636Y-76767679D01*
X124734611Y-75946519D01*
X124735387Y-75057381D01*
X124395845Y-74235628D01*
X123767679Y-73606364D01*
X123206410Y-73373305D01*
X131614674Y-73373305D01*
X131901043Y-74066372D01*
X132430839Y-74597093D01*
X133123405Y-74884672D01*
X133873305Y-74885326D01*
X134566372Y-74598957D01*
X135097093Y-74069161D01*
X135384672Y-73376595D01*
X135384674Y-73373305D01*
X136614674Y-73373305D01*
X136901043Y-74066372D01*
X137430839Y-74597093D01*
X138123405Y-74884672D01*
X138873305Y-74885326D01*
X139566372Y-74598957D01*
X140097093Y-74069161D01*
X140111278Y-74035000D01*
X147804030Y-74035000D01*
X147606364Y-74232321D01*
X147265389Y-75053481D01*
X147264613Y-75942619D01*
X147604155Y-76764372D01*
X148232321Y-77393636D01*
X149053481Y-77734611D01*
X149942619Y-77735387D01*
X150764372Y-77395845D01*
X151393636Y-76767679D01*
X151734611Y-75946519D01*
X151735387Y-75057381D01*
X151395845Y-74235628D01*
X151195567Y-74035000D01*
X152596288Y-74035000D01*
X153835062Y-75273773D01*
X153834735Y-75648991D01*
X154067932Y-76213371D01*
X154499357Y-76645551D01*
X155063330Y-76879733D01*
X155673991Y-76880265D01*
X156238371Y-76647068D01*
X156670551Y-76215643D01*
X156904733Y-75651670D01*
X156905265Y-75041009D01*
X156672068Y-74476629D01*
X156240643Y-74044449D01*
X155676670Y-73810267D01*
X155298649Y-73809938D01*
X153756856Y-72268144D01*
X153421077Y-72043785D01*
X153025000Y-71964999D01*
X153024995Y-71965000D01*
X140111920Y-71965000D01*
X140098957Y-71933628D01*
X139569161Y-71402907D01*
X138876595Y-71115328D01*
X138126695Y-71114674D01*
X137433628Y-71401043D01*
X136902907Y-71930839D01*
X136615328Y-72623405D01*
X136614674Y-73373305D01*
X135384674Y-73373305D01*
X135385326Y-72626695D01*
X135098957Y-71933628D01*
X134569161Y-71402907D01*
X133876595Y-71115328D01*
X133126695Y-71114674D01*
X132433628Y-71401043D01*
X131902907Y-71930839D01*
X131615328Y-72623405D01*
X131614674Y-73373305D01*
X123206410Y-73373305D01*
X122946519Y-73265389D01*
X122057381Y-73264613D01*
X121235628Y-73604155D01*
X120606364Y-74232321D01*
X120265389Y-75053481D01*
X120264613Y-75942619D01*
X116710000Y-75942619D01*
X116710000Y-71069931D01*
X116821046Y-70511662D01*
X117097669Y-70097667D01*
X117511660Y-69821047D01*
X118069931Y-69710000D01*
X162930069Y-69710000D01*
X163488338Y-69821046D01*
X163488338Y-69821046D01*
G37*
X163488338Y-69821046D02*
X163902333Y-70097669D01*
X164178953Y-70511660D01*
X164290000Y-71069931D01*
X164290000Y-106930069D01*
X164178953Y-107488340D01*
X163902333Y-107902331D01*
X163488338Y-108178954D01*
X162930069Y-108290000D01*
X118069931Y-108290000D01*
X117511660Y-108178953D01*
X117097669Y-107902333D01*
X116821046Y-107488338D01*
X116710000Y-106930069D01*
X116710000Y-105373305D01*
X131614674Y-105373305D01*
X131901043Y-106066372D01*
X132430839Y-106597093D01*
X133123405Y-106884672D01*
X133873305Y-106885326D01*
X134566372Y-106598957D01*
X134832472Y-106333320D01*
X137346285Y-106333320D01*
X137475533Y-106626123D01*
X138175806Y-106894388D01*
X138925435Y-106874250D01*
X139524467Y-106626123D01*
X139653715Y-106333320D01*
X138500000Y-105179605D01*
X137346285Y-106333320D01*
X134832472Y-106333320D01*
X135097093Y-106069161D01*
X135384672Y-105376595D01*
X135385283Y-104675806D01*
X136605612Y-104675806D01*
X136625750Y-105425435D01*
X136873877Y-106024467D01*
X137166680Y-106153715D01*
X138320395Y-105000000D01*
X138679605Y-105000000D01*
X139833320Y-106153715D01*
X140126123Y-106024467D01*
X140394388Y-105324194D01*
X140374250Y-104574565D01*
X140126123Y-103975533D01*
X139833320Y-103846285D01*
X138679605Y-105000000D01*
X138320395Y-105000000D01*
X137166680Y-103846285D01*
X136873877Y-103975533D01*
X136605612Y-104675806D01*
X135385283Y-104675806D01*
X135385326Y-104626695D01*
X135098957Y-103933628D01*
X134832475Y-103666680D01*
X137346285Y-103666680D01*
X138500000Y-104820395D01*
X139653715Y-103666680D01*
X139524467Y-103373877D01*
X138824194Y-103105612D01*
X138074565Y-103125750D01*
X137475533Y-103373877D01*
X137346285Y-103666680D01*
X134832475Y-103666680D01*
X134569161Y-103402907D01*
X133876595Y-103115328D01*
X133126695Y-103114674D01*
X132433628Y-103401043D01*
X131902907Y-103930839D01*
X131615328Y-104623405D01*
X131614674Y-105373305D01*
X116710000Y-105373305D01*
X116710000Y-102942619D01*
X120264613Y-102942619D01*
X120604155Y-103764372D01*
X121232321Y-104393636D01*
X122053481Y-104734611D01*
X122942619Y-104735387D01*
X123764372Y-104395845D01*
X124393636Y-103767679D01*
X124734611Y-102946519D01*
X124735387Y-102057381D01*
X124395845Y-101235628D01*
X123767679Y-100606364D01*
X123206410Y-100373305D01*
X131614674Y-100373305D01*
X131901043Y-101066372D01*
X132430839Y-101597093D01*
X133123405Y-101884672D01*
X133873305Y-101885326D01*
X134566372Y-101598957D01*
X135097093Y-101069161D01*
X135384672Y-100376595D01*
X135384674Y-100373305D01*
X136614674Y-100373305D01*
X136901043Y-101066372D01*
X137430839Y-101597093D01*
X138123405Y-101884672D01*
X138873305Y-101885326D01*
X139566372Y-101598957D01*
X140097093Y-101069161D01*
X140111278Y-101035000D01*
X147804030Y-101035000D01*
X147606364Y-101232321D01*
X147265389Y-102053481D01*
X147264613Y-102942619D01*
X147604155Y-103764372D01*
X148232321Y-104393636D01*
X149053481Y-104734611D01*
X149942619Y-104735387D01*
X150764372Y-104395845D01*
X151393636Y-103767679D01*
X151734611Y-102946519D01*
X151735387Y-102057381D01*
X151395845Y-101235628D01*
X151195567Y-101035000D01*
X161236240Y-101035000D01*
X161484357Y-101283551D01*
X162048330Y-101517733D01*
X162658991Y-101518265D01*
X163223371Y-101285068D01*
X163655551Y-100853643D01*
X163889733Y-100289670D01*
X163890265Y-99679009D01*
X163657068Y-99114629D01*
X163225643Y-98682449D01*
X162661670Y-98448267D01*
X162051009Y-98447735D01*
X161486629Y-98680932D01*
X161202064Y-98965000D01*
X140111920Y-98965000D01*
X140098957Y-98933628D01*
X139569161Y-98402907D01*
X138876595Y-98115328D01*
X138126695Y-98114674D01*
X137433628Y-98401043D01*
X136902907Y-98930839D01*
X136615328Y-99623405D01*
X136614674Y-100373305D01*
X135384674Y-100373305D01*
X135385326Y-99626695D01*
X135098957Y-98933628D01*
X134569161Y-98402907D01*
X133876595Y-98115328D01*
X133126695Y-98114674D01*
X132433628Y-98401043D01*
X131902907Y-98930839D01*
X131615328Y-99623405D01*
X131614674Y-100373305D01*
X123206410Y-100373305D01*
X122946519Y-100265389D01*
X122057381Y-100264613D01*
X121235628Y-100604155D01*
X120606364Y-101232321D01*
X120265389Y-102053481D01*
X120264613Y-102942619D01*
X116710000Y-102942619D01*
X116710000Y-97397868D01*
X158769737Y-97397868D01*
X158880641Y-97675099D01*
X159526593Y-97918323D01*
X160216453Y-97895836D01*
X160749359Y-97675099D01*
X160860263Y-97397868D01*
X159815000Y-96352605D01*
X158769737Y-97397868D01*
X116710000Y-97397868D01*
X116710000Y-95884593D01*
X158069677Y-95884593D01*
X158092164Y-96574453D01*
X158312901Y-97107359D01*
X158590132Y-97218263D01*
X159635395Y-96173000D01*
X159994605Y-96173000D01*
X161039868Y-97218263D01*
X161317099Y-97107359D01*
X161560323Y-96461407D01*
X161537836Y-95771547D01*
X161317099Y-95238641D01*
X161039868Y-95127737D01*
X159994605Y-96173000D01*
X159635395Y-96173000D01*
X158590132Y-95127737D01*
X158312901Y-95238641D01*
X158069677Y-95884593D01*
X116710000Y-95884593D01*
X116710000Y-94948132D01*
X158769737Y-94948132D01*
X159815000Y-95993395D01*
X160860263Y-94948132D01*
X160749359Y-94670901D01*
X160103407Y-94427677D01*
X159413547Y-94450164D01*
X158880641Y-94670901D01*
X158769737Y-94948132D01*
X116710000Y-94948132D01*
X116710000Y-91873305D01*
X118114674Y-91873305D01*
X118401043Y-92566372D01*
X118930839Y-93097093D01*
X119623405Y-93384672D01*
X120373305Y-93385326D01*
X121066372Y-93098957D01*
X121332472Y-92833320D01*
X123846285Y-92833320D01*
X123975533Y-93126123D01*
X124675806Y-93394388D01*
X125425435Y-93374250D01*
X126024467Y-93126123D01*
X126153715Y-92833320D01*
X125000000Y-91679605D01*
X123846285Y-92833320D01*
X121332472Y-92833320D01*
X121597093Y-92569161D01*
X121884672Y-91876595D01*
X121885283Y-91175806D01*
X123105612Y-91175806D01*
X123125750Y-91925435D01*
X123373877Y-92524467D01*
X123666680Y-92653715D01*
X124820395Y-91500000D01*
X125179605Y-91500000D01*
X126333320Y-92653715D01*
X126626123Y-92524467D01*
X126875574Y-91873305D01*
X145114674Y-91873305D01*
X145401043Y-92566372D01*
X145930839Y-93097093D01*
X146623405Y-93384672D01*
X147373305Y-93385326D01*
X148066372Y-93098957D01*
X148332472Y-92833320D01*
X150846285Y-92833320D01*
X150975533Y-93126123D01*
X151675806Y-93394388D01*
X152425435Y-93374250D01*
X153024467Y-93126123D01*
X153153715Y-92833320D01*
X152000000Y-91679605D01*
X150846285Y-92833320D01*
X148332472Y-92833320D01*
X148597093Y-92569161D01*
X148884672Y-91876595D01*
X148885283Y-91175806D01*
X150105612Y-91175806D01*
X150125750Y-91925435D01*
X150373877Y-92524467D01*
X150666680Y-92653715D01*
X151820395Y-91500000D01*
X152179605Y-91500000D01*
X153333320Y-92653715D01*
X153626123Y-92524467D01*
X153894388Y-91824194D01*
X153874250Y-91074565D01*
X153626123Y-90475533D01*
X153333320Y-90346285D01*
X152179605Y-91500000D01*
X151820395Y-91500000D01*
X150666680Y-90346285D01*
X150373877Y-90475533D01*
X150105612Y-91175806D01*
X148885283Y-91175806D01*
X148885326Y-91126695D01*
X148598957Y-90433628D01*
X148332475Y-90166680D01*
X150846285Y-90166680D01*
X152000000Y-91320395D01*
X153055527Y-90264868D01*
X158769737Y-90264868D01*
X158880641Y-90542099D01*
X159526593Y-90785323D01*
X160216453Y-90762836D01*
X160749359Y-90542099D01*
X160860263Y-90264868D01*
X159815000Y-89219605D01*
X158769737Y-90264868D01*
X153055527Y-90264868D01*
X153153715Y-90166680D01*
X153024467Y-89873877D01*
X152324194Y-89605612D01*
X151574565Y-89625750D01*
X150975533Y-89873877D01*
X150846285Y-90166680D01*
X148332475Y-90166680D01*
X148069161Y-89902907D01*
X147376595Y-89615328D01*
X146626695Y-89614674D01*
X145933628Y-89901043D01*
X145402907Y-90430839D01*
X145115328Y-91123405D01*
X145114674Y-91873305D01*
X126875574Y-91873305D01*
X126894388Y-91824194D01*
X126874250Y-91074565D01*
X126626123Y-90475533D01*
X126333320Y-90346285D01*
X125179605Y-91500000D01*
X124820395Y-91500000D01*
X123666680Y-90346285D01*
X123373877Y-90475533D01*
X123105612Y-91175806D01*
X121885283Y-91175806D01*
X121885326Y-91126695D01*
X121598957Y-90433628D01*
X121332475Y-90166680D01*
X123846285Y-90166680D01*
X125000000Y-91320395D01*
X126153715Y-90166680D01*
X126024467Y-89873877D01*
X125324194Y-89605612D01*
X124574565Y-89625750D01*
X123975533Y-89873877D01*
X123846285Y-90166680D01*
X121332475Y-90166680D01*
X121069161Y-89902907D01*
X120376595Y-89615328D01*
X119626695Y-89614674D01*
X118933628Y-89901043D01*
X118402907Y-90430839D01*
X118115328Y-91123405D01*
X118114674Y-91873305D01*
X116710000Y-91873305D01*
X116710000Y-88751593D01*
X158069677Y-88751593D01*
X158092164Y-89441453D01*
X158312901Y-89974359D01*
X158590132Y-90085263D01*
X159635395Y-89040000D01*
X158590132Y-87994737D01*
X158312901Y-88105641D01*
X158069677Y-88751593D01*
X116710000Y-88751593D01*
X116710000Y-86873305D01*
X118114674Y-86873305D01*
X118401043Y-87566372D01*
X118930839Y-88097093D01*
X119623405Y-88384672D01*
X120373305Y-88385326D01*
X121066372Y-88098957D01*
X121597093Y-87569161D01*
X121884672Y-86876595D01*
X121884674Y-86873305D01*
X123114674Y-86873305D01*
X123401043Y-87566372D01*
X123930839Y-88097093D01*
X124623405Y-88384672D01*
X125373305Y-88385326D01*
X126066372Y-88098957D01*
X126597093Y-87569161D01*
X126884672Y-86876595D01*
X126884674Y-86873305D01*
X145114674Y-86873305D01*
X145401043Y-87566372D01*
X145930839Y-88097093D01*
X146623405Y-88384672D01*
X147373305Y-88385326D01*
X148066372Y-88098957D01*
X148597093Y-87569161D01*
X148884672Y-86876595D01*
X148884674Y-86873305D01*
X150114674Y-86873305D01*
X150401043Y-87566372D01*
X150930839Y-88097093D01*
X151623405Y-88384672D01*
X152373305Y-88385326D01*
X153066372Y-88098957D01*
X153597093Y-87569161D01*
X153884672Y-86876595D01*
X153885326Y-86126695D01*
X153822958Y-85975753D01*
X154663773Y-85134938D01*
X155038991Y-85135265D01*
X155603371Y-84902068D01*
X156035551Y-84470643D01*
X156104913Y-84303599D01*
X158079699Y-84303599D01*
X158343281Y-84941515D01*
X158631338Y-85230075D01*
X158344996Y-85515918D01*
X158080301Y-86153373D01*
X158079699Y-86843599D01*
X158343281Y-87481515D01*
X158830918Y-87970004D01*
X158991139Y-88036534D01*
X159815000Y-88860395D01*
X160638305Y-88037090D01*
X160796515Y-87971719D01*
X161085075Y-87683662D01*
X161171338Y-87770075D01*
X160884996Y-88055918D01*
X160818466Y-88216139D01*
X159994605Y-89040000D01*
X160817910Y-89863305D01*
X160883281Y-90021515D01*
X161370918Y-90510004D01*
X162008373Y-90774699D01*
X162698599Y-90775301D01*
X163336515Y-90511719D01*
X163825004Y-90024082D01*
X164089699Y-89386627D01*
X164090301Y-88696401D01*
X163826719Y-88058485D01*
X163538662Y-87769925D01*
X163825004Y-87484082D01*
X164089699Y-86846627D01*
X164090301Y-86156401D01*
X163826719Y-85518485D01*
X163538662Y-85229925D01*
X163825004Y-84944082D01*
X164089699Y-84306627D01*
X164090301Y-83616401D01*
X163826719Y-82978485D01*
X163339082Y-82489996D01*
X162701627Y-82225301D01*
X162011401Y-82224699D01*
X161373485Y-82488281D01*
X161084925Y-82776338D01*
X160799082Y-82489996D01*
X160161627Y-82225301D01*
X159471401Y-82224699D01*
X158833485Y-82488281D01*
X158344996Y-82975918D01*
X158080301Y-83613373D01*
X158079699Y-84303599D01*
X156104913Y-84303599D01*
X156269733Y-83906670D01*
X156270265Y-83296009D01*
X156037068Y-82731629D01*
X155605643Y-82299449D01*
X155041670Y-82065267D01*
X154431009Y-82064735D01*
X153866629Y-82297932D01*
X153434449Y-82729357D01*
X153200267Y-83293330D01*
X153199938Y-83671351D01*
X152256065Y-84615223D01*
X151626695Y-84614674D01*
X150933628Y-84901043D01*
X150402907Y-85430839D01*
X150115328Y-86123405D01*
X150114674Y-86873305D01*
X148884674Y-86873305D01*
X148885326Y-86126695D01*
X148598957Y-85433628D01*
X148069161Y-84902907D01*
X147376595Y-84615328D01*
X146626695Y-84614674D01*
X145933628Y-84901043D01*
X145402907Y-85430839D01*
X145115328Y-86123405D01*
X145114674Y-86873305D01*
X126884674Y-86873305D01*
X126885326Y-86126695D01*
X126598957Y-85433628D01*
X126194873Y-85028839D01*
X129763711Y-81460000D01*
X153599270Y-81460000D01*
X153864357Y-81725551D01*
X154428330Y-81959733D01*
X155038991Y-81960265D01*
X155603371Y-81727068D01*
X156035551Y-81295643D01*
X156269733Y-80731670D01*
X156270265Y-80121009D01*
X156037068Y-79556629D01*
X155605643Y-79124449D01*
X155041670Y-78890267D01*
X154431009Y-78889735D01*
X153866629Y-79122932D01*
X153599094Y-79390000D01*
X139628696Y-79390000D01*
X139653715Y-79333320D01*
X138500000Y-78179605D01*
X137346285Y-79333320D01*
X137371304Y-79390000D01*
X134775694Y-79390000D01*
X135097093Y-79069161D01*
X135384672Y-78376595D01*
X135385283Y-77675806D01*
X136605612Y-77675806D01*
X136625750Y-78425435D01*
X136873877Y-79024467D01*
X137166680Y-79153715D01*
X138320395Y-78000000D01*
X138679605Y-78000000D01*
X139833320Y-79153715D01*
X140126123Y-79024467D01*
X140394388Y-78324194D01*
X140374250Y-77574565D01*
X140126123Y-76975533D01*
X139833320Y-76846285D01*
X138679605Y-78000000D01*
X138320395Y-78000000D01*
X137166680Y-76846285D01*
X136873877Y-76975533D01*
X136605612Y-77675806D01*
X135385283Y-77675806D01*
X135385326Y-77626695D01*
X135098957Y-76933628D01*
X134832475Y-76666680D01*
X137346285Y-76666680D01*
X138500000Y-77820395D01*
X139653715Y-76666680D01*
X139524467Y-76373877D01*
X138824194Y-76105612D01*
X138074565Y-76125750D01*
X137475533Y-76373877D01*
X137346285Y-76666680D01*
X134832475Y-76666680D01*
X134569161Y-76402907D01*
X133876595Y-76115328D01*
X133126695Y-76114674D01*
X132433628Y-76401043D01*
X131902907Y-76930839D01*
X131615328Y-77623405D01*
X131614674Y-78373305D01*
X131901043Y-79066372D01*
X132224107Y-79390000D01*
X129335005Y-79390000D01*
X129335000Y-79389999D01*
X128938923Y-79468785D01*
X128603144Y-79693144D01*
X128603142Y-79693147D01*
X124268144Y-84028144D01*
X124043785Y-84363923D01*
X123964999Y-84760000D01*
X123965000Y-84760005D01*
X123965000Y-84888080D01*
X123933628Y-84901043D01*
X123402907Y-85430839D01*
X123115328Y-86123405D01*
X123114674Y-86873305D01*
X121884674Y-86873305D01*
X121885326Y-86126695D01*
X121598957Y-85433628D01*
X121069161Y-84902907D01*
X120376595Y-84615328D01*
X119626695Y-84614674D01*
X118933628Y-84901043D01*
X118402907Y-85430839D01*
X118115328Y-86123405D01*
X118114674Y-86873305D01*
X116710000Y-86873305D01*
X116710000Y-75942619D01*
X120264613Y-75942619D01*
X120604155Y-76764372D01*
X121232321Y-77393636D01*
X122053481Y-77734611D01*
X122942619Y-77735387D01*
X123764372Y-77395845D01*
X124393636Y-76767679D01*
X124734611Y-75946519D01*
X124735387Y-75057381D01*
X124395845Y-74235628D01*
X123767679Y-73606364D01*
X123206410Y-73373305D01*
X131614674Y-73373305D01*
X131901043Y-74066372D01*
X132430839Y-74597093D01*
X133123405Y-74884672D01*
X133873305Y-74885326D01*
X134566372Y-74598957D01*
X135097093Y-74069161D01*
X135384672Y-73376595D01*
X135384674Y-73373305D01*
X136614674Y-73373305D01*
X136901043Y-74066372D01*
X137430839Y-74597093D01*
X138123405Y-74884672D01*
X138873305Y-74885326D01*
X139566372Y-74598957D01*
X140097093Y-74069161D01*
X140111278Y-74035000D01*
X147804030Y-74035000D01*
X147606364Y-74232321D01*
X147265389Y-75053481D01*
X147264613Y-75942619D01*
X147604155Y-76764372D01*
X148232321Y-77393636D01*
X149053481Y-77734611D01*
X149942619Y-77735387D01*
X150764372Y-77395845D01*
X151393636Y-76767679D01*
X151734611Y-75946519D01*
X151735387Y-75057381D01*
X151395845Y-74235628D01*
X151195567Y-74035000D01*
X152596288Y-74035000D01*
X153835062Y-75273773D01*
X153834735Y-75648991D01*
X154067932Y-76213371D01*
X154499357Y-76645551D01*
X155063330Y-76879733D01*
X155673991Y-76880265D01*
X156238371Y-76647068D01*
X156670551Y-76215643D01*
X156904733Y-75651670D01*
X156905265Y-75041009D01*
X156672068Y-74476629D01*
X156240643Y-74044449D01*
X155676670Y-73810267D01*
X155298649Y-73809938D01*
X153756856Y-72268144D01*
X153421077Y-72043785D01*
X153025000Y-71964999D01*
X153024995Y-71965000D01*
X140111920Y-71965000D01*
X140098957Y-71933628D01*
X139569161Y-71402907D01*
X138876595Y-71115328D01*
X138126695Y-71114674D01*
X137433628Y-71401043D01*
X136902907Y-71930839D01*
X136615328Y-72623405D01*
X136614674Y-73373305D01*
X135384674Y-73373305D01*
X135385326Y-72626695D01*
X135098957Y-71933628D01*
X134569161Y-71402907D01*
X133876595Y-71115328D01*
X133126695Y-71114674D01*
X132433628Y-71401043D01*
X131902907Y-71930839D01*
X131615328Y-72623405D01*
X131614674Y-73373305D01*
X123206410Y-73373305D01*
X122946519Y-73265389D01*
X122057381Y-73264613D01*
X121235628Y-73604155D01*
X120606364Y-74232321D01*
X120265389Y-75053481D01*
X120264613Y-75942619D01*
X116710000Y-75942619D01*
X116710000Y-71069931D01*
X116821046Y-70511662D01*
X117097669Y-70097667D01*
X117511660Y-69821047D01*
X118069931Y-69710000D01*
X162930069Y-69710000D01*
X163488338Y-69821046D01*
M02*
