M48
;DRILL file {KiCad (5.0.0)} date 06/19/19 14:48:31
;FORMAT={-:-/ absolute / metric / decimal}
FMAT,2
METRIC,TZ
T1C0.800
T2C0.900
T3C1.000
T4C1.300
%
G90
G05
M71
T1
X18.288Y-55.88
X18.288Y-60.88
X100.918Y-49.53
X105.918Y-49.53
X99.822Y-5.08
X102.362Y-5.08
X26.71Y-91.44
X29.21Y-91.44
X31.71Y-91.44
X74.168Y-72.136
X74.168Y-77.136
X18.288Y-91.44
X23.288Y-91.44
X131.572Y-53.848
X131.572Y-56.388
X131.572Y-58.928
X131.572Y-61.468
X131.572Y-64.008
X131.572Y-66.548
X131.572Y-69.088
X131.572Y-71.628
X131.572Y-74.168
X139.192Y-53.848
X139.192Y-56.388
X139.192Y-58.928
X139.192Y-61.468
X139.192Y-64.008
X139.192Y-66.548
X139.192Y-69.088
X139.192Y-71.628
X139.192Y-74.168
X91.948Y-77.216
X91.948Y-92.456
X69.85Y-55.372
X69.85Y-57.912
X69.85Y-60.452
X69.85Y-62.992
X72.39Y-56.642
X72.39Y-59.182
X72.39Y-61.722
X72.39Y-64.262
X67.816Y-19.572
X67.816Y-45.072
X70.356Y-19.572
X70.356Y-45.072
X72.896Y-19.572
X72.896Y-45.072
X75.436Y-19.572
X75.436Y-45.072
X77.976Y-19.572
X77.976Y-45.072
X80.516Y-19.572
X80.516Y-45.072
X83.056Y-19.572
X83.056Y-45.072
X85.596Y-19.572
X85.596Y-45.072
X88.136Y-19.572
X88.136Y-45.072
X90.676Y-19.572
X90.676Y-45.072
X93.216Y-19.572
X93.216Y-45.072
X95.756Y-19.572
X95.756Y-45.072
X98.296Y-19.572
X98.296Y-45.072
X100.836Y-19.572
X100.836Y-45.072
X103.376Y-19.572
X103.376Y-45.072
X55.626Y-88.9
X70.866Y-88.9
X7.62Y-78.74
X7.62Y-86.36
X10.16Y-78.74
X10.16Y-86.36
X12.7Y-78.74
X12.7Y-86.36
X15.24Y-78.74
X15.24Y-86.36
X17.78Y-78.74
X17.78Y-86.36
X20.32Y-78.74
X20.32Y-86.36
X22.86Y-78.74
X22.86Y-86.36
X25.4Y-78.74
X25.4Y-86.36
X27.94Y-78.74
X27.94Y-86.36
X30.48Y-78.74
X30.48Y-86.36
X33.02Y-78.74
X33.02Y-86.36
X35.56Y-78.74
X35.56Y-86.36
X38.1Y-78.74
X38.1Y-86.36
X40.64Y-78.74
X40.64Y-86.36
X80.581Y-13.144
X83.121Y-13.144
X85.661Y-13.144
X88.201Y-13.144
X90.742Y-13.144
X93.281Y-13.144
X95.822Y-13.144
X98.361Y-13.144
X100.901Y-13.144
X90.932Y-8.89
X95.932Y-8.89
X132.334Y-86.995
X147.574Y-86.995
X110.236Y-84.074
X110.236Y-91.694
X111.75Y-53.05
X111.75Y-57.55
X118.25Y-53.05
X118.25Y-57.55
X55.626Y-84.074
X70.866Y-84.074
X60.325Y-92.71
X62.865Y-92.71
X56.652Y-5.08
X59.192Y-5.08
X120.904Y-84.328
X120.904Y-94.488
X59.436Y-75.692
X60.706Y-73.152
X61.976Y-75.692
X63.246Y-73.152
X64.516Y-75.692
X65.786Y-73.152
X67.056Y-75.692
X68.326Y-73.152
X31.75Y-28.05
X31.75Y-32.55
X38.25Y-28.05
X38.25Y-32.55
X132.334Y-83.185
X142.494Y-83.185
X124.968Y-79.248
X124.968Y-94.488
X79.756Y-51.816
X79.756Y-54.356
X79.756Y-56.896
X79.756Y-59.436
X79.756Y-61.976
X79.756Y-64.516
X79.756Y-67.056
X79.756Y-69.596
X79.756Y-72.136
X79.756Y-74.676
X79.756Y-77.216
X79.756Y-79.756
X79.756Y-82.296
X79.756Y-84.836
X87.376Y-51.816
X87.376Y-54.356
X87.376Y-56.896
X87.376Y-59.436
X87.376Y-61.976
X87.376Y-64.516
X87.376Y-67.056
X87.376Y-69.596
X87.376Y-72.136
X87.376Y-74.676
X87.376Y-77.216
X87.376Y-79.756
X87.376Y-82.296
X87.376Y-84.836
X93.726Y-54.61
X93.726Y-57.15
X93.726Y-59.69
X93.726Y-62.23
X96.266Y-55.88
X96.266Y-58.42
X96.266Y-60.96
X96.266Y-63.5
T2
X40.64Y-57.15
X40.64Y-72.39
X43.18Y-57.15
X43.18Y-72.39
X45.72Y-57.15
X45.72Y-72.39
X48.26Y-57.15
X48.26Y-72.39
X106.75Y-62.5
X106.75Y-65.
X106.75Y-67.5
X112.5Y-73.25
X115.Y-73.25
X117.5Y-73.25
X26.75Y-37.5
X26.75Y-40.
X26.75Y-42.5
X32.5Y-48.25
X35.Y-48.25
X37.5Y-48.25
T3
X130.75Y-3.
X130.75Y-37.
X134.25Y-3.
X15.75Y-3.
X15.75Y-37.
X19.25Y-3.
T4
X10.668Y-65.532
X10.668Y-70.612
X10.668Y-52.07
X10.668Y-57.15
X132.334Y-91.44
X137.414Y-91.44
T0
M30
