M48
;DRILL file {KiCad (5.0.0)} date 05/16/19 09:18:37
;FORMAT={-:-/ absolute / metric / decimal}
FMAT,2
METRIC,TZ
T1C0.800
T2C0.900
T3C1.000
T4C1.300
%
G90
G05
M71
T1
X54.61Y-5.
X57.15Y-5.
X45.974Y-15.748
X48.514Y-15.748
X51.054Y-15.748
X53.594Y-15.748
X56.134Y-15.748
X58.674Y-15.748
X61.214Y-15.748
X63.754Y-15.748
X66.294Y-15.748
X133.604Y-50.8
X133.604Y-53.34
X133.604Y-55.88
X133.604Y-58.42
X136.144Y-52.07
X136.144Y-54.61
X136.144Y-57.15
X136.144Y-59.69
X101.75Y-53.05
X101.75Y-57.55
X108.25Y-53.05
X108.25Y-57.55
X91.46Y-4.
X94.Y-4.
X41.75Y-28.05
X41.75Y-32.55
X48.25Y-28.05
X48.25Y-32.55
X95.25Y-86.36
X105.41Y-86.36
X93.345Y-8.255
X93.345Y-10.795
X93.345Y-13.335
X93.345Y-15.875
X93.345Y-18.415
X93.345Y-20.955
X93.345Y-23.495
X93.345Y-26.035
X93.345Y-28.575
X93.345Y-31.115
X93.345Y-33.655
X93.345Y-36.195
X93.345Y-38.735
X93.345Y-41.275
X100.965Y-8.255
X100.965Y-10.795
X100.965Y-13.335
X100.965Y-15.875
X100.965Y-18.415
X100.965Y-20.955
X100.965Y-23.495
X100.965Y-26.035
X100.965Y-28.575
X100.965Y-31.115
X100.965Y-33.655
X100.965Y-36.195
X100.965Y-38.735
X100.965Y-41.275
X90.17Y-90.17
X105.41Y-90.17
X22.162Y-89.344
X22.162Y-96.965
X24.701Y-89.344
X24.701Y-96.965
X27.241Y-89.344
X27.241Y-96.965
X29.781Y-89.344
X29.781Y-96.965
X32.322Y-89.344
X32.322Y-96.965
X34.861Y-89.344
X34.861Y-96.965
X37.401Y-89.344
X37.401Y-96.965
X39.941Y-89.344
X39.941Y-96.965
X42.481Y-89.344
X42.481Y-96.965
X45.021Y-89.344
X45.021Y-96.965
X47.561Y-89.344
X47.561Y-96.965
X50.101Y-89.344
X50.101Y-96.965
X52.642Y-89.344
X52.642Y-96.965
X55.181Y-89.344
X55.181Y-96.965
X69.215Y-60.325
X69.215Y-62.865
X69.215Y-65.405
X69.215Y-67.945
X69.215Y-70.485
X69.215Y-73.025
X69.215Y-75.565
X69.215Y-78.105
X69.215Y-80.645
X76.835Y-60.325
X76.835Y-62.865
X76.835Y-65.405
X76.835Y-67.945
X76.835Y-70.485
X76.835Y-73.025
X76.835Y-75.565
X76.835Y-78.105
X76.835Y-80.645
X22.86Y-51.435
X27.86Y-51.435
X22.735Y-55.83
X22.735Y-81.33
X25.275Y-55.83
X25.275Y-81.33
X27.815Y-55.83
X27.815Y-81.33
X30.355Y-55.83
X30.355Y-81.33
X32.895Y-55.83
X32.895Y-81.33
X35.435Y-55.83
X35.435Y-81.33
X37.975Y-55.83
X37.975Y-81.33
X40.515Y-55.83
X40.515Y-81.33
X43.055Y-55.83
X43.055Y-81.33
X45.595Y-55.83
X45.595Y-81.33
X48.135Y-55.83
X48.135Y-81.33
X50.675Y-55.83
X50.675Y-81.33
X53.215Y-55.83
X53.215Y-81.33
X55.755Y-55.83
X55.755Y-81.33
X58.295Y-55.83
X58.295Y-81.33
X104.775Y-33.655
X104.775Y-48.895
X59.055Y-29.549
X59.055Y-44.789
X88.9Y-28.575
X88.9Y-33.575
X7.366Y-49.53
X7.366Y-52.07
X7.366Y-54.61
X7.366Y-57.15
X9.906Y-50.8
X9.906Y-53.34
X9.906Y-55.88
X9.906Y-58.42
X30.416Y-85.534
X32.916Y-85.534
X35.416Y-85.534
X63.767Y-20.041
X68.767Y-20.041
X76.835Y-29.549
X76.835Y-37.169
X38.116Y-85.534
X43.116Y-85.534
X64.135Y-29.549
X64.135Y-39.709
X85.09Y-95.25
X87.63Y-95.25
X125.095Y-82.55
X130.095Y-82.55
X70.764Y-53.27
X72.034Y-50.73
X73.304Y-53.27
X74.574Y-50.73
X75.844Y-53.27
X77.114Y-50.73
X78.384Y-53.27
X79.654Y-50.73
T2
X96.75Y-62.5
X96.75Y-65.
X96.75Y-67.5
X102.5Y-73.25
X105.Y-73.25
X107.5Y-73.25
X36.75Y-37.5
X36.75Y-40.
X36.75Y-42.5
X42.5Y-48.25
X45.Y-48.25
X47.5Y-48.25
X60.325Y-86.995
X60.325Y-89.535
X60.325Y-92.075
X60.325Y-94.615
X75.565Y-86.995
X75.565Y-89.535
X75.565Y-92.075
X75.565Y-94.615
T3
X15.75Y-3.
X15.75Y-37.
X19.25Y-3.
X130.75Y-3.
X130.75Y-37.
X134.25Y-3.
T4
X105.41Y-94.615
X110.49Y-94.615
X120.015Y-94.615
X125.095Y-94.615
X132.08Y-94.615
X137.16Y-94.615
T0
M30
