M48
;DRILL file {KiCad (5.0.0)} date 05/20/19 16:18:25
;FORMAT={-:-/ absolute / metric / decimal}
FMAT,2
METRIC,TZ
T1C0.800
T2C0.900
T3C1.000
T4C1.300
%
G90
G05
M71
T1
X188.214Y-125.73
X203.454Y-125.73
X125.73Y-48.895
X128.27Y-48.895
X130.81Y-48.895
X133.35Y-48.895
X135.89Y-48.895
X138.43Y-48.895
X140.97Y-48.895
X143.51Y-48.895
X146.05Y-48.895
X116.205Y-131.445
X118.745Y-131.445
X147.828Y-115.951
X147.828Y-131.191
X120.525Y-58.37
X120.525Y-83.87
X123.065Y-58.37
X123.065Y-83.87
X125.605Y-58.37
X125.605Y-83.87
X128.145Y-58.37
X128.145Y-83.87
X130.685Y-58.37
X130.685Y-83.87
X133.225Y-58.37
X133.225Y-83.87
X135.765Y-58.37
X135.765Y-83.87
X138.305Y-58.37
X138.305Y-83.87
X140.845Y-58.37
X140.845Y-83.87
X143.385Y-58.37
X143.385Y-83.87
X145.925Y-58.37
X145.925Y-83.87
X148.465Y-58.37
X148.465Y-83.87
X151.005Y-58.37
X151.005Y-83.87
X153.545Y-58.37
X153.545Y-83.87
X156.085Y-58.37
X156.085Y-83.87
X118.11Y-53.975
X123.11Y-53.975
X176.784Y-123.063
X176.784Y-133.223
X135.636Y-90.551
X135.636Y-93.091
X135.636Y-95.631
X135.636Y-98.171
X135.636Y-100.711
X135.636Y-103.251
X135.636Y-105.791
X135.636Y-108.331
X135.636Y-110.871
X135.636Y-113.411
X135.636Y-115.951
X135.636Y-118.491
X135.636Y-121.031
X135.636Y-123.571
X143.256Y-90.551
X143.256Y-93.091
X143.256Y-95.631
X143.256Y-98.171
X143.256Y-100.711
X143.256Y-103.251
X143.256Y-105.791
X143.256Y-108.331
X143.256Y-110.871
X143.256Y-113.411
X143.256Y-115.951
X143.256Y-118.491
X143.256Y-121.031
X143.256Y-123.571
X125.73Y-94.107
X125.73Y-96.647
X125.73Y-99.187
X125.73Y-101.727
X128.27Y-95.377
X128.27Y-97.917
X128.27Y-100.457
X128.27Y-102.997
X87.63Y-66.785
X87.63Y-71.285
X94.13Y-66.785
X94.13Y-71.285
X155.702Y-43.815
X158.242Y-43.815
X166.116Y-122.809
X166.116Y-130.429
X112.532Y-43.815
X115.072Y-43.815
X82.59Y-130.175
X85.09Y-130.175
X87.59Y-130.175
X149.606Y-93.345
X149.606Y-95.885
X149.606Y-98.425
X149.606Y-100.965
X152.146Y-94.615
X152.146Y-97.155
X152.146Y-99.695
X152.146Y-102.235
X167.63Y-91.785
X167.63Y-96.285
X174.13Y-91.785
X174.13Y-96.285
X63.5Y-117.475
X63.5Y-125.095
X66.04Y-117.475
X66.04Y-125.095
X68.58Y-117.475
X68.58Y-125.095
X71.12Y-117.475
X71.12Y-125.095
X73.66Y-117.475
X73.66Y-125.095
X76.2Y-117.475
X76.2Y-125.095
X78.74Y-117.475
X78.74Y-125.095
X81.28Y-117.475
X81.28Y-125.095
X83.82Y-117.475
X83.82Y-125.095
X86.36Y-117.475
X86.36Y-125.095
X88.9Y-117.475
X88.9Y-125.095
X91.44Y-117.475
X91.44Y-125.095
X93.98Y-117.475
X93.98Y-125.095
X96.52Y-117.475
X96.52Y-125.095
X187.452Y-92.583
X187.452Y-95.123
X187.452Y-97.663
X187.452Y-100.203
X187.452Y-102.743
X187.452Y-105.283
X187.452Y-107.823
X187.452Y-110.363
X187.452Y-112.903
X195.072Y-92.583
X195.072Y-95.123
X195.072Y-97.663
X195.072Y-100.203
X195.072Y-102.743
X195.072Y-105.283
X195.072Y-107.823
X195.072Y-110.363
X195.072Y-112.903
X74.168Y-94.615
X74.168Y-99.615
X140.97Y-43.815
X145.97Y-43.815
X74.168Y-130.175
X79.168Y-130.175
X180.848Y-117.983
X180.848Y-133.223
X115.316Y-114.427
X116.586Y-111.887
X117.856Y-114.427
X119.126Y-111.887
X120.396Y-114.427
X121.666Y-111.887
X122.936Y-114.427
X124.206Y-111.887
X130.048Y-110.871
X130.048Y-115.871
X188.214Y-121.92
X198.374Y-121.92
T2
X96.52Y-95.885
X96.52Y-111.125
X99.06Y-95.885
X99.06Y-111.125
X101.6Y-95.885
X101.6Y-111.125
X104.14Y-95.885
X104.14Y-111.125
X82.63Y-76.235
X82.63Y-78.735
X82.63Y-81.235
X88.38Y-86.985
X90.88Y-86.985
X93.38Y-86.985
X162.63Y-101.235
X162.63Y-103.735
X162.63Y-106.235
X168.38Y-111.985
X170.88Y-111.985
X173.38Y-111.985
T3
X186.63Y-41.735
X186.63Y-75.735
X190.13Y-41.735
X71.63Y-41.735
X71.63Y-75.735
X75.13Y-41.735
T4
X66.548Y-90.805
X66.548Y-95.885
X66.548Y-104.267
X66.548Y-109.347
X188.214Y-130.175
X193.294Y-130.175
T0
M30
