M48
;DRILL file {KiCad (5.0.0)} date 05/28/19 11:22:09
;FORMAT={-:-/ absolute / metric / decimal}
FMAT,2
METRIC,TZ
T1C0.800
T2C0.900
T3C1.000
T4C1.300
%
G90
G05
M71
T1
X18.288Y-91.44
X23.288Y-91.44
X71.755Y-13.335
X74.295Y-13.335
X76.835Y-13.335
X79.375Y-13.335
X81.915Y-13.335
X84.455Y-13.335
X86.995Y-13.335
X89.535Y-13.335
X92.075Y-13.335
X59.436Y-75.692
X60.706Y-73.152
X61.976Y-75.692
X63.246Y-73.152
X64.516Y-75.692
X65.786Y-73.152
X67.056Y-75.692
X68.326Y-73.152
X132.334Y-83.185
X142.494Y-83.185
X132.334Y-86.995
X147.574Y-86.995
X64.645Y-19.635
X64.645Y-45.135
X67.185Y-19.635
X67.185Y-45.135
X69.725Y-19.635
X69.725Y-45.135
X72.265Y-19.635
X72.265Y-45.135
X74.805Y-19.635
X74.805Y-45.135
X77.345Y-19.635
X77.345Y-45.135
X79.885Y-19.635
X79.885Y-45.135
X82.425Y-19.635
X82.425Y-45.135
X84.965Y-19.635
X84.965Y-45.135
X87.505Y-19.635
X87.505Y-45.135
X90.045Y-19.635
X90.045Y-45.135
X92.585Y-19.635
X92.585Y-45.135
X95.125Y-19.635
X95.125Y-45.135
X97.665Y-19.635
X97.665Y-45.135
X100.205Y-19.635
X100.205Y-45.135
X85.09Y-5.08
X90.09Y-5.08
X124.968Y-79.248
X124.968Y-94.488
X99.822Y-5.08
X102.362Y-5.08
X74.168Y-72.136
X74.168Y-77.136
X110.236Y-84.074
X110.236Y-91.694
X93.726Y-54.61
X93.726Y-57.15
X93.726Y-59.69
X93.726Y-62.23
X96.266Y-55.88
X96.266Y-58.42
X96.266Y-60.96
X96.266Y-63.5
X79.756Y-51.816
X79.756Y-54.356
X79.756Y-56.896
X79.756Y-59.436
X79.756Y-61.976
X79.756Y-64.516
X79.756Y-67.056
X79.756Y-69.596
X79.756Y-72.136
X79.756Y-74.676
X79.756Y-77.216
X79.756Y-79.756
X79.756Y-82.296
X79.756Y-84.836
X87.376Y-51.816
X87.376Y-54.356
X87.376Y-56.896
X87.376Y-59.436
X87.376Y-61.976
X87.376Y-64.516
X87.376Y-67.056
X87.376Y-69.596
X87.376Y-72.136
X87.376Y-74.676
X87.376Y-77.216
X87.376Y-79.756
X87.376Y-82.296
X87.376Y-84.836
X26.71Y-91.44
X29.21Y-91.44
X31.71Y-91.44
X56.652Y-5.08
X59.192Y-5.08
X18.288Y-55.88
X18.288Y-60.88
X120.904Y-84.328
X120.904Y-94.488
X60.325Y-92.71
X62.865Y-92.71
X111.75Y-53.05
X111.75Y-57.55
X118.25Y-53.05
X118.25Y-57.55
X69.85Y-55.372
X69.85Y-57.912
X69.85Y-60.452
X69.85Y-62.992
X72.39Y-56.642
X72.39Y-59.182
X72.39Y-61.722
X72.39Y-64.262
X7.62Y-78.74
X7.62Y-86.36
X10.16Y-78.74
X10.16Y-86.36
X12.7Y-78.74
X12.7Y-86.36
X15.24Y-78.74
X15.24Y-86.36
X17.78Y-78.74
X17.78Y-86.36
X20.32Y-78.74
X20.32Y-86.36
X22.86Y-78.74
X22.86Y-86.36
X25.4Y-78.74
X25.4Y-86.36
X27.94Y-78.74
X27.94Y-86.36
X30.48Y-78.74
X30.48Y-86.36
X33.02Y-78.74
X33.02Y-86.36
X35.56Y-78.74
X35.56Y-86.36
X38.1Y-78.74
X38.1Y-86.36
X40.64Y-78.74
X40.64Y-86.36
X62.23Y-15.24
X67.23Y-15.24
X31.75Y-28.05
X31.75Y-32.55
X38.25Y-28.05
X38.25Y-32.55
X91.948Y-77.216
X91.948Y-92.456
X131.572Y-53.848
X131.572Y-56.388
X131.572Y-58.928
X131.572Y-61.468
X131.572Y-64.008
X131.572Y-66.548
X131.572Y-69.088
X131.572Y-71.628
X131.572Y-74.168
X139.192Y-53.848
X139.192Y-56.388
X139.192Y-58.928
X139.192Y-61.468
X139.192Y-64.008
X139.192Y-66.548
X139.192Y-69.088
X139.192Y-71.628
X139.192Y-74.168
T2
X40.64Y-57.15
X40.64Y-72.39
X43.18Y-57.15
X43.18Y-72.39
X45.72Y-57.15
X45.72Y-72.39
X48.26Y-57.15
X48.26Y-72.39
X106.75Y-62.5
X106.75Y-65.
X106.75Y-67.5
X112.5Y-73.25
X115.Y-73.25
X117.5Y-73.25
X26.75Y-37.5
X26.75Y-40.
X26.75Y-42.5
X32.5Y-48.25
X35.Y-48.25
X37.5Y-48.25
T3
X130.75Y-3.
X130.75Y-37.
X134.25Y-3.
X15.75Y-3.
X15.75Y-37.
X19.25Y-3.
T4
X10.668Y-65.532
X10.668Y-70.612
X10.668Y-52.07
X10.668Y-57.15
X132.334Y-91.44
X137.414Y-91.44
T0
M30
