G04 #@! TF.FileFunction,Copper,L1,Top,Signal*
%FSLAX46Y46*%
G04 Gerber Fmt 4.6, Leading zero omitted, Abs format (unit mm)*
G04 Created by KiCad (PCBNEW 4.0.7) date 06/30/18 16:29:44*
%MOMM*%
%LPD*%
G01*
G04 APERTURE LIST*
%ADD10C,0.100000*%
%ADD11C,0.300000*%
%ADD12O,1.400000X2.540000*%
%ADD13C,2.200000*%
%ADD14C,3.500000*%
%ADD15O,2.540000X1.400000*%
%ADD16C,2.000000*%
%ADD17C,3.000000*%
%ADD18C,1.800000*%
%ADD19C,1.400000*%
%ADD20C,0.800000*%
%ADD21C,1.000000*%
%ADD22C,0.250000*%
%ADD23C,0.254000*%
G04 APERTURE END LIST*
D10*
D11*
X200123571Y-132566429D02*
X198623571Y-132566429D01*
X198623571Y-133137857D01*
X198695000Y-133280715D01*
X198766429Y-133352143D01*
X198909286Y-133423572D01*
X199123571Y-133423572D01*
X199266429Y-133352143D01*
X199337857Y-133280715D01*
X199409286Y-133137857D01*
X199409286Y-132566429D01*
X200123571Y-134280715D02*
X200052143Y-134137857D01*
X199980714Y-134066429D01*
X199837857Y-133995000D01*
X199409286Y-133995000D01*
X199266429Y-134066429D01*
X199195000Y-134137857D01*
X199123571Y-134280715D01*
X199123571Y-134495000D01*
X199195000Y-134637857D01*
X199266429Y-134709286D01*
X199409286Y-134780715D01*
X199837857Y-134780715D01*
X199980714Y-134709286D01*
X200052143Y-134637857D01*
X200123571Y-134495000D01*
X200123571Y-134280715D01*
X199123571Y-135280715D02*
X200123571Y-135566429D01*
X199409286Y-135852143D01*
X200123571Y-136137858D01*
X199123571Y-136423572D01*
X200052143Y-137566429D02*
X200123571Y-137423572D01*
X200123571Y-137137858D01*
X200052143Y-136995001D01*
X199909286Y-136923572D01*
X199337857Y-136923572D01*
X199195000Y-136995001D01*
X199123571Y-137137858D01*
X199123571Y-137423572D01*
X199195000Y-137566429D01*
X199337857Y-137637858D01*
X199480714Y-137637858D01*
X199623571Y-136923572D01*
X200123571Y-138280715D02*
X199123571Y-138280715D01*
X199409286Y-138280715D02*
X199266429Y-138352143D01*
X199195000Y-138423572D01*
X199123571Y-138566429D01*
X199123571Y-138709286D01*
X200052143Y-140280714D02*
X200123571Y-140423571D01*
X200123571Y-140709286D01*
X200052143Y-140852143D01*
X199909286Y-140923571D01*
X199837857Y-140923571D01*
X199695000Y-140852143D01*
X199623571Y-140709286D01*
X199623571Y-140495000D01*
X199552143Y-140352143D01*
X199409286Y-140280714D01*
X199337857Y-140280714D01*
X199195000Y-140352143D01*
X199123571Y-140495000D01*
X199123571Y-140709286D01*
X199195000Y-140852143D01*
X200052143Y-142209286D02*
X200123571Y-142066429D01*
X200123571Y-141780715D01*
X200052143Y-141637857D01*
X199980714Y-141566429D01*
X199837857Y-141495000D01*
X199409286Y-141495000D01*
X199266429Y-141566429D01*
X199195000Y-141637857D01*
X199123571Y-141780715D01*
X199123571Y-142066429D01*
X199195000Y-142209286D01*
X200123571Y-142852143D02*
X199123571Y-142852143D01*
X199409286Y-142852143D02*
X199266429Y-142923571D01*
X199195000Y-142995000D01*
X199123571Y-143137857D01*
X199123571Y-143280714D01*
X200052143Y-144352142D02*
X200123571Y-144209285D01*
X200123571Y-143923571D01*
X200052143Y-143780714D01*
X199909286Y-143709285D01*
X199337857Y-143709285D01*
X199195000Y-143780714D01*
X199123571Y-143923571D01*
X199123571Y-144209285D01*
X199195000Y-144352142D01*
X199337857Y-144423571D01*
X199480714Y-144423571D01*
X199623571Y-143709285D01*
X199123571Y-144923571D02*
X200123571Y-145209285D01*
X199409286Y-145494999D01*
X200123571Y-145780714D01*
X199123571Y-146066428D01*
D10*
X158000000Y-102000000D02*
X152000000Y-102000000D01*
X158000000Y-111000000D02*
X158000000Y-102000000D01*
X152000000Y-111000000D02*
X158000000Y-111000000D01*
X152000000Y-102000000D02*
X152000000Y-111000000D01*
X68000000Y-145500000D02*
G75*
G03X70000000Y-147500000I2000000J0D01*
G01*
X70000000Y-68500000D02*
G75*
G03X68000000Y-70500000I0J-2000000D01*
G01*
X213000000Y-70500000D02*
G75*
G03X211000000Y-68500000I-2000000J0D01*
G01*
X211000000Y-147500000D02*
G75*
G03X213000000Y-145500000I0J2000000D01*
G01*
X213000000Y-70500000D02*
X213000000Y-145500000D01*
X70000000Y-68500000D02*
X211000000Y-68500000D01*
X70000000Y-147500000D02*
X211000000Y-147500000D01*
X68000000Y-70500000D02*
X68000000Y-145500000D01*
D12*
X202425000Y-78285000D03*
X199885000Y-78285000D03*
D13*
X140800000Y-76380000D03*
X138260000Y-76380000D03*
X135720000Y-76380000D03*
X97920000Y-74475000D03*
X100460000Y-74475000D03*
X106100000Y-74475000D03*
X103560000Y-74475000D03*
D14*
X194365000Y-142795000D03*
X194365000Y-137715000D03*
D15*
X196680000Y-78285000D03*
X186520000Y-78285000D03*
X166770000Y-127400000D03*
X161690000Y-127400000D03*
X84910000Y-125305000D03*
X74750000Y-125305000D03*
D16*
X177045000Y-127400000D03*
X172045000Y-127400000D03*
D13*
X208335000Y-109100000D03*
X208335000Y-106560000D03*
X208335000Y-104020000D03*
X208335000Y-112200000D03*
X208335000Y-114740000D03*
X208335000Y-117280000D03*
X208335000Y-125460000D03*
X208335000Y-122920000D03*
X208335000Y-120380000D03*
X195635000Y-83440000D03*
X195635000Y-85980000D03*
X195635000Y-88520000D03*
X195635000Y-96700000D03*
X195635000Y-94160000D03*
X195635000Y-91620000D03*
X71175000Y-125305000D03*
X86250000Y-110500000D03*
X86250000Y-108000000D03*
X86250000Y-105500000D03*
X78000000Y-99750000D03*
X80500000Y-99750000D03*
X75500000Y-99750000D03*
D17*
X84250000Y-113300000D03*
X84250000Y-102700000D03*
X71750000Y-102700000D03*
X71750000Y-113300000D03*
D15*
X81250000Y-115450000D03*
X74750000Y-115450000D03*
X74750000Y-119950000D03*
X81250000Y-119950000D03*
D13*
X195000000Y-127500000D03*
D15*
X193925000Y-104020000D03*
X193925000Y-101480000D03*
X193925000Y-106560000D03*
X193925000Y-109100000D03*
X193925000Y-111640000D03*
X193925000Y-114180000D03*
X193925000Y-116720000D03*
X193925000Y-119260000D03*
X193925000Y-121800000D03*
X202425000Y-121800000D03*
X202425000Y-119260000D03*
X202425000Y-116720000D03*
X202425000Y-114180000D03*
X202425000Y-111640000D03*
X202425000Y-109100000D03*
X202425000Y-106560000D03*
X202425000Y-104020000D03*
X202425000Y-101480000D03*
D12*
X152175000Y-137715000D03*
X157255000Y-137715000D03*
D16*
X152175000Y-142795000D03*
X157255000Y-142795000D03*
D12*
X118956000Y-78640000D03*
X113876000Y-78640000D03*
D16*
X118956000Y-73560000D03*
X113876000Y-73560000D03*
D13*
X140800000Y-131960000D03*
X135720000Y-131960000D03*
X133180000Y-131960000D03*
X130640000Y-131960000D03*
X128100000Y-131960000D03*
X125560000Y-131960000D03*
X123020000Y-131960000D03*
X120480000Y-131960000D03*
X176360000Y-83700000D03*
X173820000Y-83700000D03*
X171280000Y-83700000D03*
X168740000Y-83700000D03*
X166200000Y-83700000D03*
X163660000Y-83700000D03*
X161120000Y-83700000D03*
X158580000Y-83700000D03*
X153500000Y-83700000D03*
X150960000Y-83700000D03*
X148420000Y-83700000D03*
X145880000Y-83700000D03*
X143340000Y-83700000D03*
X140800000Y-83700000D03*
X138260000Y-83700000D03*
X135720000Y-83700000D03*
X116416000Y-83700000D03*
X131656000Y-83700000D03*
X129116000Y-83700000D03*
X126576000Y-83700000D03*
X108796000Y-83700000D03*
X111336000Y-83700000D03*
X113876000Y-83700000D03*
X118956000Y-83700000D03*
X121496000Y-83700000D03*
X124036000Y-83700000D03*
X117940000Y-131960000D03*
X143340000Y-131960000D03*
X145880000Y-131960000D03*
X148420000Y-131960000D03*
X150960000Y-131960000D03*
X153500000Y-131960000D03*
X156040000Y-131960000D03*
X158580000Y-131960000D03*
X163660000Y-131960000D03*
X166200000Y-131960000D03*
X168740000Y-131960000D03*
X171280000Y-131960000D03*
X173820000Y-131960000D03*
X176360000Y-131960000D03*
X178900000Y-131960000D03*
X181440000Y-131960000D03*
X183980000Y-83700000D03*
X186520000Y-83700000D03*
X183980000Y-86240000D03*
X186520000Y-86240000D03*
X183980000Y-88780000D03*
X186520000Y-88780000D03*
X183980000Y-91320000D03*
X186520000Y-91320000D03*
X183980000Y-93860000D03*
X186520000Y-93860000D03*
X183980000Y-96400000D03*
X186520000Y-96400000D03*
X183980000Y-98940000D03*
X186520000Y-98940000D03*
X183980000Y-101480000D03*
X186520000Y-101480000D03*
X183980000Y-104020000D03*
X186520000Y-104020000D03*
X183980000Y-106560000D03*
X186520000Y-106560000D03*
X183980000Y-109100000D03*
X186520000Y-109100000D03*
X183980000Y-111640000D03*
X186520000Y-111640000D03*
X183980000Y-114180000D03*
X186520000Y-114180000D03*
X183980000Y-116720000D03*
X186520000Y-116720000D03*
X183980000Y-119260000D03*
X186520000Y-119260000D03*
X183980000Y-121800000D03*
X186520000Y-121800000D03*
X183980000Y-124340000D03*
X186520000Y-124340000D03*
X183980000Y-126880000D03*
X186520000Y-126880000D03*
D18*
X190555000Y-85905000D03*
X190555000Y-88445000D03*
X190555000Y-94160000D03*
X190555000Y-91620000D03*
D19*
X183570000Y-133530000D02*
X183570000Y-136705000D01*
X183570000Y-131625000D02*
X183570000Y-133530000D01*
X144275000Y-140515000D02*
X135720000Y-131960000D01*
X179760000Y-140515000D02*
X144275000Y-140515000D01*
X183570000Y-136705000D02*
X179760000Y-140515000D01*
X202425000Y-121800000D02*
X202425000Y-123565000D01*
X194365000Y-131625000D02*
X183570000Y-131625000D01*
X202425000Y-123565000D02*
X194365000Y-131625000D01*
X177045000Y-127400000D02*
X179980000Y-127400000D01*
X179980000Y-127400000D02*
X183570000Y-130990000D01*
X183570000Y-130990000D02*
X183570000Y-131625000D01*
X166770000Y-127400000D02*
X168550000Y-127400000D01*
X174725000Y-129720000D02*
X177045000Y-127400000D01*
X170870000Y-129720000D02*
X174725000Y-129720000D01*
X168550000Y-127400000D02*
X170870000Y-129720000D01*
X205980000Y-122920000D02*
X205345000Y-122920000D01*
X205345000Y-122920000D02*
X204225000Y-121800000D01*
X204225000Y-121800000D02*
X202425000Y-121800000D01*
X208335000Y-122920000D02*
X205980000Y-122920000D01*
X208335000Y-125460000D02*
X208335000Y-122920000D01*
X202425000Y-78285000D02*
X202425000Y-101480000D01*
X196680000Y-78285000D02*
X199885000Y-78285000D01*
D20*
X140800000Y-76380000D02*
X140800000Y-83700000D01*
X138260000Y-76380000D02*
X138260000Y-83700000D01*
X135720000Y-76380000D02*
X135720000Y-83700000D01*
X202425000Y-111640000D02*
X205495000Y-111640000D01*
X205495000Y-111640000D02*
X206055000Y-112200000D01*
X206055000Y-112200000D02*
X208335000Y-112200000D01*
X205495000Y-111640000D02*
X206055000Y-112200000D01*
X202425000Y-114180000D02*
X205495000Y-114180000D01*
X205495000Y-114180000D02*
X206055000Y-114740000D01*
X206055000Y-114740000D02*
X208335000Y-114740000D01*
X205495000Y-114180000D02*
X206055000Y-114740000D01*
X202425000Y-109100000D02*
X208335000Y-109100000D01*
X202425000Y-106560000D02*
X208335000Y-106560000D01*
X202425000Y-116720000D02*
X205495000Y-116720000D01*
X205495000Y-116720000D02*
X206055000Y-117280000D01*
X206055000Y-117280000D02*
X208335000Y-117280000D01*
X205495000Y-116720000D02*
X206055000Y-117280000D01*
X202425000Y-119260000D02*
X204860000Y-119260000D01*
X204860000Y-119260000D02*
X205980000Y-120380000D01*
X205980000Y-120380000D02*
X208335000Y-120380000D01*
X111815000Y-90350000D02*
X109910000Y-90350000D01*
X176360000Y-83700000D02*
X169710000Y-90350000D01*
X111815000Y-90350000D02*
X164520000Y-90350000D01*
X164520000Y-90350000D02*
X169710000Y-90350000D01*
X97920000Y-78360000D02*
X97920000Y-74475000D01*
X109910000Y-90350000D02*
X97920000Y-78360000D01*
X163250000Y-88445000D02*
X109910000Y-88445000D01*
X173820000Y-83700000D02*
X169075000Y-88445000D01*
X163250000Y-88445000D02*
X169075000Y-88445000D01*
X100460000Y-78995000D02*
X100460000Y-74475000D01*
X109910000Y-88445000D02*
X100460000Y-78995000D01*
D21*
X173820000Y-83700000D02*
X173820000Y-84320000D01*
D20*
X111336000Y-83700000D02*
X111336000Y-79711000D01*
X111336000Y-79711000D02*
X106100000Y-74475000D01*
X108796000Y-83700000D02*
X107070000Y-83700000D01*
X103560000Y-80190000D02*
X103560000Y-74475000D01*
X107070000Y-83700000D02*
X103560000Y-80190000D01*
D19*
X84910000Y-125305000D02*
X84910000Y-117655000D01*
X84910000Y-117655000D02*
X84510000Y-117655000D01*
X80500000Y-99750000D02*
X80500000Y-105500000D01*
X128100000Y-131960000D02*
X128100000Y-129495000D01*
X79520000Y-105500000D02*
X80700000Y-105500000D01*
X80700000Y-105500000D02*
X86250000Y-105500000D01*
X78160000Y-106860000D02*
X79520000Y-105500000D01*
X78160000Y-115750000D02*
X78160000Y-106860000D01*
X80065000Y-117655000D02*
X78160000Y-115750000D01*
X116260000Y-117655000D02*
X84510000Y-117655000D01*
X84510000Y-117655000D02*
X80065000Y-117655000D01*
X128100000Y-129495000D02*
X116260000Y-117655000D01*
D20*
X86250000Y-108000000D02*
X116840000Y-108000000D01*
X116840000Y-108000000D02*
X140800000Y-131960000D01*
X143340000Y-131960000D02*
X143340000Y-131400000D01*
X143340000Y-131400000D02*
X101020000Y-89080000D01*
X101020000Y-89080000D02*
X81335000Y-89080000D01*
X81335000Y-89080000D02*
X78000000Y-92415000D01*
X78000000Y-92415000D02*
X78000000Y-99750000D01*
X124036000Y-83700000D02*
X124036000Y-84156000D01*
X124036000Y-84156000D02*
X125785000Y-85905000D01*
X125785000Y-85905000D02*
X146215000Y-85905000D01*
X146215000Y-85905000D02*
X148420000Y-83700000D01*
X118956000Y-78640000D02*
X118956000Y-83700000D01*
D22*
X119080000Y-83576000D02*
X118956000Y-83700000D01*
D20*
X195635000Y-85980000D02*
X190630000Y-85980000D01*
X190630000Y-85980000D02*
X190555000Y-85905000D01*
X190630000Y-85980000D02*
X190555000Y-85905000D01*
X190630000Y-88520000D02*
X190555000Y-88445000D01*
X190630000Y-88520000D02*
X195635000Y-88520000D01*
X195635000Y-94160000D02*
X190555000Y-94160000D01*
X195635000Y-91620000D02*
X190555000Y-91620000D01*
X71175000Y-125305000D02*
X74750000Y-125305000D01*
X74750000Y-119950000D02*
X74750000Y-125305000D01*
X202425000Y-104020000D02*
X208335000Y-104020000D01*
X143340000Y-83700000D02*
X143340000Y-83685000D01*
X131740000Y-83700000D02*
X131656000Y-83700000D01*
X183905000Y-121800000D02*
X183980000Y-121800000D01*
X183905000Y-121800000D02*
X183980000Y-121800000D01*
D23*
G36*
X211498094Y-69297497D02*
X211920357Y-69579643D01*
X212202503Y-70001906D01*
X212315000Y-70567466D01*
X212315000Y-145432534D01*
X212202503Y-145998094D01*
X211920357Y-146420357D01*
X211498094Y-146702503D01*
X210932533Y-146815000D01*
X201430000Y-146815000D01*
X201430000Y-142942619D01*
X205764613Y-142942619D01*
X206104155Y-143764372D01*
X206732321Y-144393636D01*
X207553481Y-144734611D01*
X208442619Y-144735387D01*
X209264372Y-144395845D01*
X209893636Y-143767679D01*
X210234611Y-142946519D01*
X210235387Y-142057381D01*
X209895845Y-141235628D01*
X209267679Y-140606364D01*
X208446519Y-140265389D01*
X207557381Y-140264613D01*
X206735628Y-140604155D01*
X206106364Y-141232321D01*
X205765389Y-142053481D01*
X205764613Y-142942619D01*
X201430000Y-142942619D01*
X201430000Y-131574286D01*
X197610000Y-131574286D01*
X197610000Y-146815000D01*
X70067466Y-146815000D01*
X69501906Y-146702503D01*
X69079643Y-146420357D01*
X68797497Y-145998094D01*
X68685000Y-145432533D01*
X68685000Y-142942619D01*
X70764613Y-142942619D01*
X71104155Y-143764372D01*
X71732321Y-144393636D01*
X72553481Y-144734611D01*
X73442619Y-144735387D01*
X74037642Y-144489528D01*
X192850077Y-144489528D01*
X193040364Y-144834271D01*
X193921591Y-145185956D01*
X194870323Y-145173641D01*
X195689636Y-144834271D01*
X195879923Y-144489528D01*
X194365000Y-142974605D01*
X192850077Y-144489528D01*
X74037642Y-144489528D01*
X74264372Y-144395845D01*
X74893636Y-143767679D01*
X75234611Y-142946519D01*
X75235387Y-142057381D01*
X74895845Y-141235628D01*
X74267679Y-140606364D01*
X73446519Y-140265389D01*
X72557381Y-140264613D01*
X71735628Y-140604155D01*
X71106364Y-141232321D01*
X70765389Y-142053481D01*
X70764613Y-142942619D01*
X68685000Y-142942619D01*
X68685000Y-125648599D01*
X69439699Y-125648599D01*
X69703281Y-126286515D01*
X70190918Y-126775004D01*
X70828373Y-127039699D01*
X71518599Y-127040301D01*
X72156515Y-126776719D01*
X72593997Y-126340000D01*
X73334901Y-126340000D01*
X73631797Y-126538379D01*
X74142679Y-126640000D01*
X75357321Y-126640000D01*
X75868203Y-126538379D01*
X76301309Y-126248988D01*
X76590700Y-125815882D01*
X76692321Y-125305000D01*
X76590700Y-124794118D01*
X76301309Y-124361012D01*
X75868203Y-124071621D01*
X75785000Y-124055071D01*
X75785000Y-121199929D01*
X75868203Y-121183379D01*
X76301309Y-120893988D01*
X76590700Y-120460882D01*
X76692321Y-119950000D01*
X76590700Y-119439118D01*
X76301309Y-119006012D01*
X75868203Y-118716621D01*
X75357321Y-118615000D01*
X74142679Y-118615000D01*
X73631797Y-118716621D01*
X73198691Y-119006012D01*
X72909300Y-119439118D01*
X72807679Y-119950000D01*
X72909300Y-120460882D01*
X73198691Y-120893988D01*
X73631797Y-121183379D01*
X73715000Y-121199929D01*
X73715000Y-124055071D01*
X73631797Y-124071621D01*
X73334901Y-124270000D01*
X72593327Y-124270000D01*
X72159082Y-123834996D01*
X71521627Y-123570301D01*
X70831401Y-123569699D01*
X70193485Y-123833281D01*
X69704996Y-124320918D01*
X69440301Y-124958373D01*
X69439699Y-125648599D01*
X68685000Y-125648599D01*
X68685000Y-115783329D01*
X72887284Y-115783329D01*
X72898020Y-115843550D01*
X73146210Y-116304185D01*
X73551785Y-116634778D01*
X74053000Y-116785000D01*
X74623000Y-116785000D01*
X74623000Y-115577000D01*
X74877000Y-115577000D01*
X74877000Y-116785000D01*
X75447000Y-116785000D01*
X75948215Y-116634778D01*
X76353790Y-116304185D01*
X76601980Y-115843550D01*
X76612716Y-115783329D01*
X76489374Y-115577000D01*
X74877000Y-115577000D01*
X74623000Y-115577000D01*
X73010626Y-115577000D01*
X72887284Y-115783329D01*
X68685000Y-115783329D01*
X68685000Y-113722815D01*
X69614630Y-113722815D01*
X69938980Y-114507800D01*
X70539041Y-115108909D01*
X71323459Y-115434628D01*
X72172815Y-115435370D01*
X72898543Y-115135505D01*
X73010626Y-115323000D01*
X74623000Y-115323000D01*
X74623000Y-114115000D01*
X74877000Y-114115000D01*
X74877000Y-115323000D01*
X76489374Y-115323000D01*
X76612716Y-115116671D01*
X76601980Y-115056450D01*
X76353790Y-114595815D01*
X75948215Y-114265222D01*
X75447000Y-114115000D01*
X74877000Y-114115000D01*
X74623000Y-114115000D01*
X74053000Y-114115000D01*
X73676465Y-114227854D01*
X73884628Y-113726541D01*
X73885370Y-112877185D01*
X73561020Y-112092200D01*
X72960959Y-111491091D01*
X72176541Y-111165372D01*
X71327185Y-111164630D01*
X70542200Y-111488980D01*
X69941091Y-112089041D01*
X69615372Y-112873459D01*
X69614630Y-113722815D01*
X68685000Y-113722815D01*
X68685000Y-103122815D01*
X69614630Y-103122815D01*
X69938980Y-103907800D01*
X70539041Y-104508909D01*
X71323459Y-104834628D01*
X72172815Y-104835370D01*
X72957800Y-104511020D01*
X73558909Y-103910959D01*
X73884628Y-103126541D01*
X73885370Y-102277185D01*
X73561020Y-101492200D01*
X73044590Y-100974868D01*
X74454737Y-100974868D01*
X74565641Y-101252099D01*
X75211593Y-101495323D01*
X75901453Y-101472836D01*
X76434359Y-101252099D01*
X76545263Y-100974868D01*
X75500000Y-99929605D01*
X74454737Y-100974868D01*
X73044590Y-100974868D01*
X72960959Y-100891091D01*
X72176541Y-100565372D01*
X71327185Y-100564630D01*
X70542200Y-100888980D01*
X69941091Y-101489041D01*
X69615372Y-102273459D01*
X69614630Y-103122815D01*
X68685000Y-103122815D01*
X68685000Y-99461593D01*
X73754677Y-99461593D01*
X73777164Y-100151453D01*
X73997901Y-100684359D01*
X74275132Y-100795263D01*
X75320395Y-99750000D01*
X75679605Y-99750000D01*
X76434744Y-100505139D01*
X76528281Y-100731515D01*
X77015918Y-101220004D01*
X77653373Y-101484699D01*
X78343599Y-101485301D01*
X78981515Y-101221719D01*
X79165000Y-101038554D01*
X79165000Y-104235614D01*
X79009118Y-104266621D01*
X78576012Y-104556012D01*
X78576010Y-104556015D01*
X77216012Y-105916012D01*
X76926621Y-106349117D01*
X76824999Y-106860000D01*
X76825000Y-106860005D01*
X76825000Y-115749995D01*
X76824999Y-115750000D01*
X76926621Y-116260883D01*
X77216012Y-116693988D01*
X79121010Y-118598985D01*
X79121012Y-118598988D01*
X79349591Y-118751719D01*
X79554118Y-118888379D01*
X79801189Y-118937525D01*
X79698691Y-119006012D01*
X79409300Y-119439118D01*
X79307679Y-119950000D01*
X79409300Y-120460882D01*
X79698691Y-120893988D01*
X80131797Y-121183379D01*
X80642679Y-121285000D01*
X81857321Y-121285000D01*
X82368203Y-121183379D01*
X82801309Y-120893988D01*
X83090700Y-120460882D01*
X83192321Y-119950000D01*
X83090700Y-119439118D01*
X82801309Y-119006012D01*
X82777345Y-118990000D01*
X83575000Y-118990000D01*
X83575000Y-124216480D01*
X83358691Y-124361012D01*
X83069300Y-124794118D01*
X82967679Y-125305000D01*
X83069300Y-125815882D01*
X83358691Y-126248988D01*
X83791797Y-126538379D01*
X84302679Y-126640000D01*
X85517321Y-126640000D01*
X86028203Y-126538379D01*
X86461309Y-126248988D01*
X86750700Y-125815882D01*
X86852321Y-125305000D01*
X86750700Y-124794118D01*
X86461309Y-124361012D01*
X86245000Y-124216480D01*
X86245000Y-118990000D01*
X115707024Y-118990000D01*
X126765000Y-130047975D01*
X126765000Y-130711300D01*
X126544082Y-130489996D01*
X125906627Y-130225301D01*
X125216401Y-130224699D01*
X124578485Y-130488281D01*
X124289925Y-130776338D01*
X124004082Y-130489996D01*
X123366627Y-130225301D01*
X122676401Y-130224699D01*
X122038485Y-130488281D01*
X121749925Y-130776338D01*
X121464082Y-130489996D01*
X120826627Y-130225301D01*
X120136401Y-130224699D01*
X119498485Y-130488281D01*
X119209925Y-130776338D01*
X118924082Y-130489996D01*
X118286627Y-130225301D01*
X117596401Y-130224699D01*
X116958485Y-130488281D01*
X116469996Y-130975918D01*
X116205301Y-131613373D01*
X116204699Y-132303599D01*
X116468281Y-132941515D01*
X116955918Y-133430004D01*
X117593373Y-133694699D01*
X118283599Y-133695301D01*
X118921515Y-133431719D01*
X119210075Y-133143662D01*
X119495918Y-133430004D01*
X120133373Y-133694699D01*
X120823599Y-133695301D01*
X121461515Y-133431719D01*
X121750075Y-133143662D01*
X122035918Y-133430004D01*
X122673373Y-133694699D01*
X123363599Y-133695301D01*
X124001515Y-133431719D01*
X124290075Y-133143662D01*
X124575918Y-133430004D01*
X125213373Y-133694699D01*
X125903599Y-133695301D01*
X126541515Y-133431719D01*
X126830075Y-133143662D01*
X127115918Y-133430004D01*
X127753373Y-133694699D01*
X128443599Y-133695301D01*
X129081515Y-133431719D01*
X129328797Y-133184868D01*
X129594737Y-133184868D01*
X129705641Y-133462099D01*
X130351593Y-133705323D01*
X131041453Y-133682836D01*
X131574359Y-133462099D01*
X131685263Y-133184868D01*
X132134737Y-133184868D01*
X132245641Y-133462099D01*
X132891593Y-133705323D01*
X133581453Y-133682836D01*
X134114359Y-133462099D01*
X134225263Y-133184868D01*
X133180000Y-132139605D01*
X132134737Y-133184868D01*
X131685263Y-133184868D01*
X130640000Y-132139605D01*
X129594737Y-133184868D01*
X129328797Y-133184868D01*
X129570004Y-132944082D01*
X129636534Y-132783861D01*
X130460395Y-131960000D01*
X130819605Y-131960000D01*
X131624116Y-132764511D01*
X131677901Y-132894359D01*
X131804682Y-132945077D01*
X131864868Y-133005263D01*
X131910000Y-132987208D01*
X131955132Y-133005263D01*
X132015318Y-132945077D01*
X132142099Y-132894359D01*
X132188037Y-132772358D01*
X133000395Y-131960000D01*
X133359605Y-131960000D01*
X134182910Y-132783305D01*
X134248281Y-132941515D01*
X134735918Y-133430004D01*
X135373373Y-133694699D01*
X135566892Y-133694868D01*
X143331012Y-141458988D01*
X143764117Y-141748379D01*
X144275000Y-141850001D01*
X144275005Y-141850000D01*
X150807390Y-141850000D01*
X150789722Y-141867637D01*
X150540284Y-142468352D01*
X150539716Y-143118795D01*
X150788106Y-143719943D01*
X151247637Y-144180278D01*
X151848352Y-144429716D01*
X152498795Y-144430284D01*
X153099943Y-144181894D01*
X153560278Y-143722363D01*
X153809716Y-143121648D01*
X153810284Y-142471205D01*
X153561894Y-141870057D01*
X153541872Y-141850000D01*
X155887390Y-141850000D01*
X155869722Y-141867637D01*
X155620284Y-142468352D01*
X155619716Y-143118795D01*
X155868106Y-143719943D01*
X156327637Y-144180278D01*
X156928352Y-144429716D01*
X157578795Y-144430284D01*
X158179943Y-144181894D01*
X158640278Y-143722363D01*
X158889716Y-143121648D01*
X158890284Y-142471205D01*
X158840861Y-142351591D01*
X191974044Y-142351591D01*
X191986359Y-143300323D01*
X192325729Y-144119636D01*
X192670472Y-144309923D01*
X194185395Y-142795000D01*
X194544605Y-142795000D01*
X196059528Y-144309923D01*
X196404271Y-144119636D01*
X196755956Y-143238409D01*
X196743641Y-142289677D01*
X196404271Y-141470364D01*
X196059528Y-141280077D01*
X194544605Y-142795000D01*
X194185395Y-142795000D01*
X192670472Y-141280077D01*
X192325729Y-141470364D01*
X191974044Y-142351591D01*
X158840861Y-142351591D01*
X158641894Y-141870057D01*
X158621872Y-141850000D01*
X179759995Y-141850000D01*
X179760000Y-141850001D01*
X180270883Y-141748379D01*
X180703988Y-141458988D01*
X181062503Y-141100472D01*
X192850077Y-141100472D01*
X194365000Y-142615395D01*
X195879923Y-141100472D01*
X195689636Y-140755729D01*
X194808409Y-140404044D01*
X193859677Y-140416359D01*
X193040364Y-140755729D01*
X192850077Y-141100472D01*
X181062503Y-141100472D01*
X183975650Y-138187325D01*
X191979587Y-138187325D01*
X192341916Y-139064229D01*
X193012242Y-139735726D01*
X193888513Y-140099585D01*
X194837325Y-140100413D01*
X195714229Y-139738084D01*
X196385726Y-139067758D01*
X196749585Y-138191487D01*
X196750413Y-137242675D01*
X196388084Y-136365771D01*
X195717758Y-135694274D01*
X194841487Y-135330415D01*
X193892675Y-135329587D01*
X193015771Y-135691916D01*
X192344274Y-136362242D01*
X191980415Y-137238513D01*
X191979587Y-138187325D01*
X183975650Y-138187325D01*
X184513985Y-137648990D01*
X184513988Y-137648988D01*
X184803379Y-137215882D01*
X184824902Y-137107679D01*
X184905001Y-136705000D01*
X184905000Y-136704995D01*
X184905000Y-132960000D01*
X194364995Y-132960000D01*
X194365000Y-132960001D01*
X194875883Y-132858379D01*
X195308988Y-132568988D01*
X203368985Y-124508990D01*
X203368988Y-124508988D01*
X203542465Y-124249360D01*
X203658379Y-124075883D01*
X203760000Y-123565000D01*
X203760000Y-123222976D01*
X204401010Y-123863985D01*
X204401012Y-123863988D01*
X204599183Y-123996401D01*
X204834117Y-124153379D01*
X205345000Y-124255000D01*
X207000000Y-124255000D01*
X207000000Y-124341149D01*
X206864996Y-124475918D01*
X206600301Y-125113373D01*
X206599699Y-125803599D01*
X206863281Y-126441515D01*
X207350918Y-126930004D01*
X207988373Y-127194699D01*
X208678599Y-127195301D01*
X209316515Y-126931719D01*
X209805004Y-126444082D01*
X209874533Y-126276638D01*
X210146155Y-126548735D01*
X210618276Y-126744777D01*
X211129481Y-126745223D01*
X211601943Y-126550005D01*
X211963735Y-126188845D01*
X212159777Y-125716724D01*
X212160223Y-125205519D01*
X211965005Y-124733057D01*
X211603845Y-124371265D01*
X211166818Y-124189795D01*
X211601943Y-124010005D01*
X211963735Y-123648845D01*
X212159777Y-123176724D01*
X212160223Y-122665519D01*
X211965005Y-122193057D01*
X211603845Y-121831265D01*
X211166818Y-121649795D01*
X211601943Y-121470005D01*
X211963735Y-121108845D01*
X212159777Y-120636724D01*
X212160223Y-120125519D01*
X211965005Y-119653057D01*
X211603845Y-119291265D01*
X211131724Y-119095223D01*
X210620519Y-119094777D01*
X210148057Y-119289995D01*
X209874660Y-119562914D01*
X209806719Y-119398485D01*
X209319082Y-118909996D01*
X209126745Y-118830131D01*
X209316515Y-118751719D01*
X209805004Y-118264082D01*
X209874533Y-118096638D01*
X210146155Y-118368735D01*
X210618276Y-118564777D01*
X211129481Y-118565223D01*
X211601943Y-118370005D01*
X211963735Y-118008845D01*
X212159777Y-117536724D01*
X212160223Y-117025519D01*
X211965005Y-116553057D01*
X211603845Y-116191265D01*
X211166818Y-116009795D01*
X211601943Y-115830005D01*
X211963735Y-115468845D01*
X212159777Y-114996724D01*
X212160223Y-114485519D01*
X211965005Y-114013057D01*
X211603845Y-113651265D01*
X211166818Y-113469795D01*
X211601943Y-113290005D01*
X211963735Y-112928845D01*
X212159777Y-112456724D01*
X212160223Y-111945519D01*
X211965005Y-111473057D01*
X211603845Y-111111265D01*
X211131724Y-110915223D01*
X210620519Y-110914777D01*
X210148057Y-111109995D01*
X209874660Y-111382914D01*
X209806719Y-111218485D01*
X209319082Y-110729996D01*
X209126745Y-110650131D01*
X209316515Y-110571719D01*
X209805004Y-110084082D01*
X209874533Y-109916638D01*
X210146155Y-110188735D01*
X210618276Y-110384777D01*
X211129481Y-110385223D01*
X211601943Y-110190005D01*
X211963735Y-109828845D01*
X212159777Y-109356724D01*
X212160223Y-108845519D01*
X211965005Y-108373057D01*
X211603845Y-108011265D01*
X211166818Y-107829795D01*
X211601943Y-107650005D01*
X211963735Y-107288845D01*
X212159777Y-106816724D01*
X212160223Y-106305519D01*
X211965005Y-105833057D01*
X211603845Y-105471265D01*
X211166818Y-105289795D01*
X211601943Y-105110005D01*
X211963735Y-104748845D01*
X212159777Y-104276724D01*
X212160223Y-103765519D01*
X211965005Y-103293057D01*
X211603845Y-102931265D01*
X211131724Y-102735223D01*
X210620519Y-102734777D01*
X210148057Y-102929995D01*
X209874660Y-103202914D01*
X209806719Y-103038485D01*
X209319082Y-102549996D01*
X208681627Y-102285301D01*
X207991401Y-102284699D01*
X207353485Y-102548281D01*
X206916003Y-102985000D01*
X203840099Y-102985000D01*
X203543203Y-102786621D01*
X203359097Y-102750000D01*
X203543203Y-102713379D01*
X203976309Y-102423988D01*
X204265700Y-101990882D01*
X204367321Y-101480000D01*
X204265700Y-100969118D01*
X203976309Y-100536012D01*
X203760000Y-100391480D01*
X203760000Y-77677679D01*
X203658379Y-77166797D01*
X203368988Y-76733691D01*
X202935882Y-76444300D01*
X202425000Y-76342679D01*
X201914118Y-76444300D01*
X201481012Y-76733691D01*
X201191621Y-77166797D01*
X201155000Y-77350903D01*
X201118379Y-77166797D01*
X200828988Y-76733691D01*
X200395882Y-76444300D01*
X199885000Y-76342679D01*
X199374118Y-76444300D01*
X198941012Y-76733691D01*
X198796480Y-76950000D01*
X196072679Y-76950000D01*
X195561797Y-77051621D01*
X195128691Y-77341012D01*
X194839300Y-77774118D01*
X194737679Y-78285000D01*
X194839300Y-78795882D01*
X195128691Y-79228988D01*
X195561797Y-79518379D01*
X196072679Y-79620000D01*
X198796480Y-79620000D01*
X198941012Y-79836309D01*
X199374118Y-80125700D01*
X199885000Y-80227321D01*
X200395882Y-80125700D01*
X200828988Y-79836309D01*
X201090000Y-79445675D01*
X201090000Y-100391480D01*
X200873691Y-100536012D01*
X200584300Y-100969118D01*
X200482679Y-101480000D01*
X200584300Y-101990882D01*
X200873691Y-102423988D01*
X201306797Y-102713379D01*
X201490903Y-102750000D01*
X201306797Y-102786621D01*
X200873691Y-103076012D01*
X200584300Y-103509118D01*
X200482679Y-104020000D01*
X200584300Y-104530882D01*
X200873691Y-104963988D01*
X201306797Y-105253379D01*
X201490903Y-105290000D01*
X201306797Y-105326621D01*
X200873691Y-105616012D01*
X200584300Y-106049118D01*
X200482679Y-106560000D01*
X200584300Y-107070882D01*
X200873691Y-107503988D01*
X201306797Y-107793379D01*
X201490903Y-107830000D01*
X201306797Y-107866621D01*
X200873691Y-108156012D01*
X200584300Y-108589118D01*
X200482679Y-109100000D01*
X200584300Y-109610882D01*
X200873691Y-110043988D01*
X201306797Y-110333379D01*
X201490903Y-110370000D01*
X201306797Y-110406621D01*
X200873691Y-110696012D01*
X200584300Y-111129118D01*
X200482679Y-111640000D01*
X200584300Y-112150882D01*
X200873691Y-112583988D01*
X201306797Y-112873379D01*
X201490903Y-112910000D01*
X201306797Y-112946621D01*
X200873691Y-113236012D01*
X200584300Y-113669118D01*
X200482679Y-114180000D01*
X200584300Y-114690882D01*
X200873691Y-115123988D01*
X201306797Y-115413379D01*
X201490903Y-115450000D01*
X201306797Y-115486621D01*
X200873691Y-115776012D01*
X200584300Y-116209118D01*
X200482679Y-116720000D01*
X200584300Y-117230882D01*
X200873691Y-117663988D01*
X201306797Y-117953379D01*
X201490903Y-117990000D01*
X201306797Y-118026621D01*
X200873691Y-118316012D01*
X200584300Y-118749118D01*
X200482679Y-119260000D01*
X200584300Y-119770882D01*
X200873691Y-120203988D01*
X201306797Y-120493379D01*
X201490903Y-120530000D01*
X201306797Y-120566621D01*
X200873691Y-120856012D01*
X200584300Y-121289118D01*
X200482679Y-121800000D01*
X200584300Y-122310882D01*
X200873691Y-122743988D01*
X201090000Y-122888520D01*
X201090000Y-123012025D01*
X196731695Y-127370329D01*
X196722836Y-127098547D01*
X196502099Y-126565641D01*
X196224868Y-126454737D01*
X195179605Y-127500000D01*
X195193748Y-127514143D01*
X195014143Y-127693748D01*
X195000000Y-127679605D01*
X193954737Y-128724868D01*
X194065641Y-129002099D01*
X194711593Y-129245323D01*
X194861591Y-129240434D01*
X193812024Y-130290000D01*
X184677015Y-130290000D01*
X184513988Y-130046012D01*
X184513985Y-130046010D01*
X182572844Y-128104868D01*
X182934737Y-128104868D01*
X183045641Y-128382099D01*
X183691593Y-128625323D01*
X184381453Y-128602836D01*
X184914359Y-128382099D01*
X185025263Y-128104868D01*
X185474737Y-128104868D01*
X185585641Y-128382099D01*
X186231593Y-128625323D01*
X186921453Y-128602836D01*
X187454359Y-128382099D01*
X187565263Y-128104868D01*
X186520000Y-127059605D01*
X185474737Y-128104868D01*
X185025263Y-128104868D01*
X183980000Y-127059605D01*
X182934737Y-128104868D01*
X182572844Y-128104868D01*
X181059569Y-126591593D01*
X182234677Y-126591593D01*
X182257164Y-127281453D01*
X182477901Y-127814359D01*
X182755132Y-127925263D01*
X183800395Y-126880000D01*
X184159605Y-126880000D01*
X184964116Y-127684511D01*
X185017901Y-127814359D01*
X185144682Y-127865077D01*
X185204868Y-127925263D01*
X185250000Y-127907208D01*
X185295132Y-127925263D01*
X185355318Y-127865077D01*
X185482099Y-127814359D01*
X185528037Y-127692358D01*
X186340395Y-126880000D01*
X186699605Y-126880000D01*
X187744868Y-127925263D01*
X188022099Y-127814359D01*
X188249061Y-127211593D01*
X193254677Y-127211593D01*
X193277164Y-127901453D01*
X193497901Y-128434359D01*
X193775132Y-128545263D01*
X194820395Y-127500000D01*
X193775132Y-126454737D01*
X193497901Y-126565641D01*
X193254677Y-127211593D01*
X188249061Y-127211593D01*
X188265323Y-127168407D01*
X188242836Y-126478547D01*
X188158579Y-126275132D01*
X193954737Y-126275132D01*
X195000000Y-127320395D01*
X196045263Y-126275132D01*
X195934359Y-125997901D01*
X195288407Y-125754677D01*
X194598547Y-125777164D01*
X194065641Y-125997901D01*
X193954737Y-126275132D01*
X188158579Y-126275132D01*
X188022099Y-125945641D01*
X187744868Y-125834737D01*
X186699605Y-126880000D01*
X186340395Y-126880000D01*
X185535884Y-126075489D01*
X185482099Y-125945641D01*
X185355318Y-125894923D01*
X185295132Y-125834737D01*
X185250000Y-125852792D01*
X185204868Y-125834737D01*
X185144682Y-125894923D01*
X185017901Y-125945641D01*
X184971963Y-126067642D01*
X184159605Y-126880000D01*
X183800395Y-126880000D01*
X182755132Y-125834737D01*
X182477901Y-125945641D01*
X182234677Y-126591593D01*
X181059569Y-126591593D01*
X180923988Y-126456012D01*
X180490883Y-126166621D01*
X179980000Y-126064999D01*
X179979995Y-126065000D01*
X178022553Y-126065000D01*
X177972363Y-126014722D01*
X177371648Y-125765284D01*
X176721205Y-125764716D01*
X176120057Y-126013106D01*
X175659722Y-126472637D01*
X175410284Y-127073352D01*
X175410220Y-127146805D01*
X174172024Y-128385000D01*
X173209608Y-128385000D01*
X173197534Y-128372926D01*
X173464387Y-128274264D01*
X173690908Y-127664539D01*
X173666856Y-127014540D01*
X173464387Y-126525736D01*
X173197532Y-126427073D01*
X172224605Y-127400000D01*
X172238748Y-127414143D01*
X172059143Y-127593748D01*
X172045000Y-127579605D01*
X172030858Y-127593748D01*
X171851253Y-127414143D01*
X171865395Y-127400000D01*
X170892468Y-126427073D01*
X170625613Y-126525736D01*
X170399092Y-127135461D01*
X170407763Y-127369787D01*
X169493988Y-126456012D01*
X169181880Y-126247468D01*
X171072073Y-126247468D01*
X172045000Y-127220395D01*
X173017927Y-126247468D01*
X172919264Y-125980613D01*
X172309539Y-125754092D01*
X171659540Y-125778144D01*
X171170736Y-125980613D01*
X171072073Y-126247468D01*
X169181880Y-126247468D01*
X169060883Y-126166621D01*
X168550000Y-126064999D01*
X168549995Y-126065000D01*
X166162679Y-126065000D01*
X165651797Y-126166621D01*
X165218691Y-126456012D01*
X164929300Y-126889118D01*
X164827679Y-127400000D01*
X164929300Y-127910882D01*
X165218691Y-128343988D01*
X165651797Y-128633379D01*
X166162679Y-128735000D01*
X167997024Y-128735000D01*
X169926010Y-130663985D01*
X169926012Y-130663988D01*
X170043698Y-130742623D01*
X170009925Y-130776338D01*
X169724082Y-130489996D01*
X169086627Y-130225301D01*
X168396401Y-130224699D01*
X167758485Y-130488281D01*
X167469925Y-130776338D01*
X167184082Y-130489996D01*
X166546627Y-130225301D01*
X165856401Y-130224699D01*
X165218485Y-130488281D01*
X164929925Y-130776338D01*
X164644082Y-130489996D01*
X164006627Y-130225301D01*
X163316401Y-130224699D01*
X162678485Y-130488281D01*
X162189996Y-130975918D01*
X161925301Y-131613373D01*
X161924699Y-132303599D01*
X162188281Y-132941515D01*
X162675918Y-133430004D01*
X163313373Y-133694699D01*
X164003599Y-133695301D01*
X164641515Y-133431719D01*
X164930075Y-133143662D01*
X165215918Y-133430004D01*
X165853373Y-133694699D01*
X166543599Y-133695301D01*
X167181515Y-133431719D01*
X167470075Y-133143662D01*
X167755918Y-133430004D01*
X168393373Y-133694699D01*
X169083599Y-133695301D01*
X169721515Y-133431719D01*
X170010075Y-133143662D01*
X170295918Y-133430004D01*
X170933373Y-133694699D01*
X171623599Y-133695301D01*
X172261515Y-133431719D01*
X172550075Y-133143662D01*
X172835918Y-133430004D01*
X173473373Y-133694699D01*
X174163599Y-133695301D01*
X174801515Y-133431719D01*
X175090075Y-133143662D01*
X175375918Y-133430004D01*
X176013373Y-133694699D01*
X176703599Y-133695301D01*
X177341515Y-133431719D01*
X177630075Y-133143662D01*
X177915918Y-133430004D01*
X178553373Y-133694699D01*
X179243599Y-133695301D01*
X179881515Y-133431719D01*
X180170075Y-133143662D01*
X180455918Y-133430004D01*
X181093373Y-133694699D01*
X181783599Y-133695301D01*
X182235000Y-133508786D01*
X182235000Y-136152025D01*
X179207024Y-139180000D01*
X158256658Y-139180000D01*
X158488379Y-138833203D01*
X158590000Y-138322321D01*
X158590000Y-137107679D01*
X158488379Y-136596797D01*
X158198988Y-136163691D01*
X157765882Y-135874300D01*
X157255000Y-135772679D01*
X156744118Y-135874300D01*
X156311012Y-136163691D01*
X156021621Y-136596797D01*
X155920000Y-137107679D01*
X155920000Y-138322321D01*
X156021621Y-138833203D01*
X156253342Y-139180000D01*
X153176658Y-139180000D01*
X153408379Y-138833203D01*
X153510000Y-138322321D01*
X153510000Y-137107679D01*
X153408379Y-136596797D01*
X153118988Y-136163691D01*
X152685882Y-135874300D01*
X152175000Y-135772679D01*
X151664118Y-135874300D01*
X151231012Y-136163691D01*
X150941621Y-136596797D01*
X150840000Y-137107679D01*
X150840000Y-138322321D01*
X150941621Y-138833203D01*
X151173342Y-139180000D01*
X144827976Y-139180000D01*
X137455135Y-131807159D01*
X137455301Y-131616401D01*
X137191719Y-130978485D01*
X136704082Y-130489996D01*
X136066627Y-130225301D01*
X135376401Y-130224699D01*
X134738485Y-130488281D01*
X134249996Y-130975918D01*
X134183466Y-131136139D01*
X133359605Y-131960000D01*
X133000395Y-131960000D01*
X132195884Y-131155489D01*
X132142099Y-131025641D01*
X132015318Y-130974923D01*
X131955132Y-130914737D01*
X131910000Y-130932792D01*
X131864868Y-130914737D01*
X131804682Y-130974923D01*
X131677901Y-131025641D01*
X131631963Y-131147642D01*
X130819605Y-131960000D01*
X130460395Y-131960000D01*
X130446253Y-131945858D01*
X130625858Y-131766253D01*
X130640000Y-131780395D01*
X131685263Y-130735132D01*
X132134737Y-130735132D01*
X133180000Y-131780395D01*
X134225263Y-130735132D01*
X134114359Y-130457901D01*
X133468407Y-130214677D01*
X132778547Y-130237164D01*
X132245641Y-130457901D01*
X132134737Y-130735132D01*
X131685263Y-130735132D01*
X131574359Y-130457901D01*
X130928407Y-130214677D01*
X130238547Y-130237164D01*
X129705641Y-130457901D01*
X129594738Y-130735130D01*
X129480698Y-130621090D01*
X129435000Y-130666788D01*
X129435000Y-129495005D01*
X129435001Y-129495000D01*
X129333379Y-128984118D01*
X129043988Y-128551012D01*
X129043985Y-128551010D01*
X117203988Y-116711012D01*
X116770883Y-116421621D01*
X116260000Y-116319999D01*
X116259995Y-116320000D01*
X82850746Y-116320000D01*
X83090700Y-115960882D01*
X83192321Y-115450000D01*
X83132165Y-115147578D01*
X83823459Y-115434628D01*
X84672815Y-115435370D01*
X85457800Y-115111020D01*
X86058909Y-114510959D01*
X86384628Y-113726541D01*
X86385370Y-112877185D01*
X86122127Y-112240090D01*
X86651453Y-112222836D01*
X87184359Y-112002099D01*
X87295263Y-111724868D01*
X86250000Y-110679605D01*
X86235858Y-110693748D01*
X86056253Y-110514143D01*
X86070395Y-110500000D01*
X86429605Y-110500000D01*
X87474868Y-111545263D01*
X87752099Y-111434359D01*
X87995323Y-110788407D01*
X87972836Y-110098547D01*
X87752099Y-109565641D01*
X87474868Y-109454737D01*
X86429605Y-110500000D01*
X86070395Y-110500000D01*
X85025132Y-109454737D01*
X84747901Y-109565641D01*
X84504677Y-110211593D01*
X84527164Y-110901453D01*
X84636468Y-111165337D01*
X83827185Y-111164630D01*
X83042200Y-111488980D01*
X82441091Y-112089041D01*
X82115372Y-112873459D01*
X82114630Y-113722815D01*
X82314231Y-114205885D01*
X81857321Y-114115000D01*
X80642679Y-114115000D01*
X80131797Y-114216621D01*
X79698691Y-114506012D01*
X79495000Y-114810858D01*
X79495000Y-107412976D01*
X80072975Y-106835000D01*
X84961230Y-106835000D01*
X84779996Y-107015918D01*
X84515301Y-107653373D01*
X84514699Y-108343599D01*
X84778281Y-108981515D01*
X85265918Y-109470004D01*
X85494542Y-109564937D01*
X86250000Y-110320395D01*
X87005139Y-109565256D01*
X87231515Y-109471719D01*
X87668997Y-109035000D01*
X116411288Y-109035000D01*
X139065235Y-131688946D01*
X139064699Y-132303599D01*
X139328281Y-132941515D01*
X139815918Y-133430004D01*
X140453373Y-133694699D01*
X141143599Y-133695301D01*
X141781515Y-133431719D01*
X142070075Y-133143662D01*
X142355918Y-133430004D01*
X142993373Y-133694699D01*
X143683599Y-133695301D01*
X144321515Y-133431719D01*
X144610075Y-133143662D01*
X144895918Y-133430004D01*
X145533373Y-133694699D01*
X146223599Y-133695301D01*
X146861515Y-133431719D01*
X147150075Y-133143662D01*
X147435918Y-133430004D01*
X148073373Y-133694699D01*
X148763599Y-133695301D01*
X149401515Y-133431719D01*
X149690075Y-133143662D01*
X149975918Y-133430004D01*
X150613373Y-133694699D01*
X151303599Y-133695301D01*
X151941515Y-133431719D01*
X152230075Y-133143662D01*
X152515918Y-133430004D01*
X153153373Y-133694699D01*
X153843599Y-133695301D01*
X154481515Y-133431719D01*
X154770075Y-133143662D01*
X155055918Y-133430004D01*
X155693373Y-133694699D01*
X156383599Y-133695301D01*
X157021515Y-133431719D01*
X157310075Y-133143662D01*
X157595918Y-133430004D01*
X158233373Y-133694699D01*
X158923599Y-133695301D01*
X159561515Y-133431719D01*
X160050004Y-132944082D01*
X160314699Y-132306627D01*
X160315301Y-131616401D01*
X160051719Y-130978485D01*
X159564082Y-130489996D01*
X158926627Y-130225301D01*
X158236401Y-130224699D01*
X157598485Y-130488281D01*
X157309925Y-130776338D01*
X157024082Y-130489996D01*
X156386627Y-130225301D01*
X155696401Y-130224699D01*
X155058485Y-130488281D01*
X154769925Y-130776338D01*
X154484082Y-130489996D01*
X153846627Y-130225301D01*
X153156401Y-130224699D01*
X152518485Y-130488281D01*
X152229925Y-130776338D01*
X151944082Y-130489996D01*
X151306627Y-130225301D01*
X150616401Y-130224699D01*
X149978485Y-130488281D01*
X149689925Y-130776338D01*
X149404082Y-130489996D01*
X148766627Y-130225301D01*
X148076401Y-130224699D01*
X147438485Y-130488281D01*
X147149925Y-130776338D01*
X146864082Y-130489996D01*
X146226627Y-130225301D01*
X145536401Y-130224699D01*
X144898485Y-130488281D01*
X144609925Y-130776338D01*
X144324082Y-130489996D01*
X143686627Y-130225301D01*
X143628962Y-130225251D01*
X141137041Y-127733329D01*
X159827284Y-127733329D01*
X159838020Y-127793550D01*
X160086210Y-128254185D01*
X160491785Y-128584778D01*
X160993000Y-128735000D01*
X161563000Y-128735000D01*
X161563000Y-127527000D01*
X161817000Y-127527000D01*
X161817000Y-128735000D01*
X162387000Y-128735000D01*
X162888215Y-128584778D01*
X163293790Y-128254185D01*
X163541980Y-127793550D01*
X163552716Y-127733329D01*
X163429374Y-127527000D01*
X161817000Y-127527000D01*
X161563000Y-127527000D01*
X159950626Y-127527000D01*
X159827284Y-127733329D01*
X141137041Y-127733329D01*
X140470383Y-127066671D01*
X159827284Y-127066671D01*
X159950626Y-127273000D01*
X161563000Y-127273000D01*
X161563000Y-126065000D01*
X161817000Y-126065000D01*
X161817000Y-127273000D01*
X163429374Y-127273000D01*
X163552716Y-127066671D01*
X163541980Y-127006450D01*
X163293790Y-126545815D01*
X162888215Y-126215222D01*
X162387000Y-126065000D01*
X161817000Y-126065000D01*
X161563000Y-126065000D01*
X160993000Y-126065000D01*
X160491785Y-126215222D01*
X160086210Y-126545815D01*
X159838020Y-127006450D01*
X159827284Y-127066671D01*
X140470383Y-127066671D01*
X115403712Y-102000000D01*
X151315000Y-102000000D01*
X151315000Y-111000000D01*
X151367143Y-111262138D01*
X151515632Y-111484368D01*
X151737862Y-111632857D01*
X152000000Y-111685000D01*
X158000000Y-111685000D01*
X158262138Y-111632857D01*
X158484368Y-111484368D01*
X158632857Y-111262138D01*
X158685000Y-111000000D01*
X158685000Y-102000000D01*
X158632857Y-101737862D01*
X158484368Y-101515632D01*
X158262138Y-101367143D01*
X158000000Y-101315000D01*
X152000000Y-101315000D01*
X151737862Y-101367143D01*
X151515632Y-101515632D01*
X151367143Y-101737862D01*
X151315000Y-102000000D01*
X115403712Y-102000000D01*
X101751856Y-88348144D01*
X101416077Y-88123785D01*
X101020000Y-88044999D01*
X101019995Y-88045000D01*
X81335005Y-88045000D01*
X81335000Y-88044999D01*
X80938922Y-88123785D01*
X80860177Y-88176401D01*
X80603144Y-88348144D01*
X80603142Y-88348147D01*
X77268144Y-91683144D01*
X77043785Y-92018923D01*
X76964999Y-92415000D01*
X76965000Y-92415005D01*
X76965000Y-98331673D01*
X76529996Y-98765918D01*
X76435063Y-98994542D01*
X75679605Y-99750000D01*
X75320395Y-99750000D01*
X74275132Y-98704737D01*
X73997901Y-98815641D01*
X73754677Y-99461593D01*
X68685000Y-99461593D01*
X68685000Y-98525132D01*
X74454737Y-98525132D01*
X75500000Y-99570395D01*
X76545263Y-98525132D01*
X76434359Y-98247901D01*
X75788407Y-98004677D01*
X75098547Y-98027164D01*
X74565641Y-98247901D01*
X74454737Y-98525132D01*
X68685000Y-98525132D01*
X68685000Y-73942619D01*
X70764613Y-73942619D01*
X71104155Y-74764372D01*
X71732321Y-75393636D01*
X72553481Y-75734611D01*
X73442619Y-75735387D01*
X74264372Y-75395845D01*
X74842626Y-74818599D01*
X96184699Y-74818599D01*
X96448281Y-75456515D01*
X96885000Y-75893997D01*
X96885000Y-78359995D01*
X96884999Y-78360000D01*
X96963785Y-78756077D01*
X97188144Y-79091856D01*
X109178142Y-91081853D01*
X109178144Y-91081856D01*
X109390764Y-91223923D01*
X109513923Y-91306215D01*
X109910000Y-91385001D01*
X109910005Y-91385000D01*
X169709995Y-91385000D01*
X169710000Y-91385001D01*
X170106077Y-91306215D01*
X170441856Y-91081856D01*
X176088946Y-85434765D01*
X176703599Y-85435301D01*
X177341515Y-85171719D01*
X177830004Y-84684082D01*
X178094699Y-84046627D01*
X178094701Y-84043599D01*
X182244699Y-84043599D01*
X182508281Y-84681515D01*
X182796338Y-84970075D01*
X182509996Y-85255918D01*
X182245301Y-85893373D01*
X182244699Y-86583599D01*
X182508281Y-87221515D01*
X182796338Y-87510075D01*
X182509996Y-87795918D01*
X182245301Y-88433373D01*
X182244699Y-89123599D01*
X182508281Y-89761515D01*
X182796338Y-90050075D01*
X182509996Y-90335918D01*
X182245301Y-90973373D01*
X182244699Y-91663599D01*
X182508281Y-92301515D01*
X182796338Y-92590075D01*
X182509996Y-92875918D01*
X182245301Y-93513373D01*
X182244699Y-94203599D01*
X182508281Y-94841515D01*
X182796338Y-95130075D01*
X182509996Y-95415918D01*
X182245301Y-96053373D01*
X182244699Y-96743599D01*
X182508281Y-97381515D01*
X182796338Y-97670075D01*
X182509996Y-97955918D01*
X182245301Y-98593373D01*
X182244699Y-99283599D01*
X182508281Y-99921515D01*
X182796338Y-100210075D01*
X182509996Y-100495918D01*
X182245301Y-101133373D01*
X182244699Y-101823599D01*
X182508281Y-102461515D01*
X182796338Y-102750075D01*
X182509996Y-103035918D01*
X182245301Y-103673373D01*
X182244699Y-104363599D01*
X182508281Y-105001515D01*
X182796338Y-105290075D01*
X182509996Y-105575918D01*
X182245301Y-106213373D01*
X182244699Y-106903599D01*
X182508281Y-107541515D01*
X182796338Y-107830075D01*
X182509996Y-108115918D01*
X182245301Y-108753373D01*
X182244699Y-109443599D01*
X182508281Y-110081515D01*
X182796338Y-110370075D01*
X182509996Y-110655918D01*
X182245301Y-111293373D01*
X182244699Y-111983599D01*
X182508281Y-112621515D01*
X182796338Y-112910075D01*
X182509996Y-113195918D01*
X182245301Y-113833373D01*
X182244699Y-114523599D01*
X182508281Y-115161515D01*
X182796338Y-115450075D01*
X182509996Y-115735918D01*
X182245301Y-116373373D01*
X182244699Y-117063599D01*
X182508281Y-117701515D01*
X182796338Y-117990075D01*
X182509996Y-118275918D01*
X182245301Y-118913373D01*
X182244699Y-119603599D01*
X182508281Y-120241515D01*
X182796338Y-120530075D01*
X182509996Y-120815918D01*
X182245301Y-121453373D01*
X182244699Y-122143599D01*
X182508281Y-122781515D01*
X182796338Y-123070075D01*
X182509996Y-123355918D01*
X182245301Y-123993373D01*
X182244699Y-124683599D01*
X182508281Y-125321515D01*
X182995918Y-125810004D01*
X183156139Y-125876534D01*
X183980000Y-126700395D01*
X184803305Y-125877090D01*
X184961515Y-125811719D01*
X185250075Y-125523662D01*
X185535918Y-125810004D01*
X185696139Y-125876534D01*
X186520000Y-126700395D01*
X187343305Y-125877090D01*
X187501515Y-125811719D01*
X187990004Y-125324082D01*
X188254699Y-124686627D01*
X188255301Y-123996401D01*
X187991719Y-123358485D01*
X187703662Y-123069925D01*
X187990004Y-122784082D01*
X188254699Y-122146627D01*
X188254710Y-122133329D01*
X192062284Y-122133329D01*
X192073020Y-122193550D01*
X192321210Y-122654185D01*
X192726785Y-122984778D01*
X193228000Y-123135000D01*
X193798000Y-123135000D01*
X193798000Y-121927000D01*
X194052000Y-121927000D01*
X194052000Y-123135000D01*
X194622000Y-123135000D01*
X195123215Y-122984778D01*
X195528790Y-122654185D01*
X195776980Y-122193550D01*
X195787716Y-122133329D01*
X195664374Y-121927000D01*
X194052000Y-121927000D01*
X193798000Y-121927000D01*
X192185626Y-121927000D01*
X192062284Y-122133329D01*
X188254710Y-122133329D01*
X188255301Y-121456401D01*
X187991719Y-120818485D01*
X187703662Y-120529925D01*
X187990004Y-120244082D01*
X188254699Y-119606627D01*
X188255301Y-118916401D01*
X187991719Y-118278485D01*
X187703662Y-117989925D01*
X187990004Y-117704082D01*
X188254699Y-117066627D01*
X188255301Y-116376401D01*
X187991719Y-115738485D01*
X187703662Y-115449925D01*
X187990004Y-115164082D01*
X188254699Y-114526627D01*
X188255301Y-113836401D01*
X187991719Y-113198485D01*
X187703662Y-112909925D01*
X187990004Y-112624082D01*
X188254699Y-111986627D01*
X188255301Y-111296401D01*
X187991719Y-110658485D01*
X187703662Y-110369925D01*
X187990004Y-110084082D01*
X188254699Y-109446627D01*
X188255301Y-108756401D01*
X187991719Y-108118485D01*
X187703662Y-107829925D01*
X187990004Y-107544082D01*
X188254699Y-106906627D01*
X188255301Y-106216401D01*
X187991719Y-105578485D01*
X187703662Y-105289925D01*
X187990004Y-105004082D01*
X188254699Y-104366627D01*
X188255301Y-103676401D01*
X187991719Y-103038485D01*
X187703662Y-102749925D01*
X187990004Y-102464082D01*
X188254699Y-101826627D01*
X188255001Y-101480000D01*
X191982679Y-101480000D01*
X192084300Y-101990882D01*
X192373691Y-102423988D01*
X192806797Y-102713379D01*
X192990903Y-102750000D01*
X192806797Y-102786621D01*
X192373691Y-103076012D01*
X192084300Y-103509118D01*
X191982679Y-104020000D01*
X192084300Y-104530882D01*
X192373691Y-104963988D01*
X192806797Y-105253379D01*
X192990903Y-105290000D01*
X192806797Y-105326621D01*
X192373691Y-105616012D01*
X192084300Y-106049118D01*
X191982679Y-106560000D01*
X192084300Y-107070882D01*
X192373691Y-107503988D01*
X192806797Y-107793379D01*
X192990903Y-107830000D01*
X192806797Y-107866621D01*
X192373691Y-108156012D01*
X192084300Y-108589118D01*
X191982679Y-109100000D01*
X192084300Y-109610882D01*
X192373691Y-110043988D01*
X192806797Y-110333379D01*
X192990903Y-110370000D01*
X192806797Y-110406621D01*
X192373691Y-110696012D01*
X192084300Y-111129118D01*
X191982679Y-111640000D01*
X192084300Y-112150882D01*
X192373691Y-112583988D01*
X192806797Y-112873379D01*
X192990903Y-112910000D01*
X192806797Y-112946621D01*
X192373691Y-113236012D01*
X192084300Y-113669118D01*
X191982679Y-114180000D01*
X192084300Y-114690882D01*
X192373691Y-115123988D01*
X192806797Y-115413379D01*
X192990903Y-115450000D01*
X192806797Y-115486621D01*
X192373691Y-115776012D01*
X192084300Y-116209118D01*
X191982679Y-116720000D01*
X192084300Y-117230882D01*
X192373691Y-117663988D01*
X192806797Y-117953379D01*
X192990903Y-117990000D01*
X192806797Y-118026621D01*
X192373691Y-118316012D01*
X192084300Y-118749118D01*
X191982679Y-119260000D01*
X192084300Y-119770882D01*
X192373691Y-120203988D01*
X192806797Y-120493379D01*
X193003060Y-120532418D01*
X192726785Y-120615222D01*
X192321210Y-120945815D01*
X192073020Y-121406450D01*
X192062284Y-121466671D01*
X192185626Y-121673000D01*
X193798000Y-121673000D01*
X193798000Y-121653000D01*
X194052000Y-121653000D01*
X194052000Y-121673000D01*
X195664374Y-121673000D01*
X195787716Y-121466671D01*
X195776980Y-121406450D01*
X195528790Y-120945815D01*
X195123215Y-120615222D01*
X194846940Y-120532418D01*
X195043203Y-120493379D01*
X195476309Y-120203988D01*
X195765700Y-119770882D01*
X195867321Y-119260000D01*
X195765700Y-118749118D01*
X195476309Y-118316012D01*
X195043203Y-118026621D01*
X194859097Y-117990000D01*
X195043203Y-117953379D01*
X195476309Y-117663988D01*
X195765700Y-117230882D01*
X195867321Y-116720000D01*
X195765700Y-116209118D01*
X195476309Y-115776012D01*
X195043203Y-115486621D01*
X194859097Y-115450000D01*
X195043203Y-115413379D01*
X195476309Y-115123988D01*
X195765700Y-114690882D01*
X195867321Y-114180000D01*
X195765700Y-113669118D01*
X195476309Y-113236012D01*
X195043203Y-112946621D01*
X194859097Y-112910000D01*
X195043203Y-112873379D01*
X195476309Y-112583988D01*
X195765700Y-112150882D01*
X195867321Y-111640000D01*
X195765700Y-111129118D01*
X195476309Y-110696012D01*
X195043203Y-110406621D01*
X194859097Y-110370000D01*
X195043203Y-110333379D01*
X195476309Y-110043988D01*
X195765700Y-109610882D01*
X195867321Y-109100000D01*
X195765700Y-108589118D01*
X195476309Y-108156012D01*
X195043203Y-107866621D01*
X194859097Y-107830000D01*
X195043203Y-107793379D01*
X195476309Y-107503988D01*
X195765700Y-107070882D01*
X195867321Y-106560000D01*
X195765700Y-106049118D01*
X195476309Y-105616012D01*
X195043203Y-105326621D01*
X194859097Y-105290000D01*
X195043203Y-105253379D01*
X195476309Y-104963988D01*
X195765700Y-104530882D01*
X195867321Y-104020000D01*
X195765700Y-103509118D01*
X195476309Y-103076012D01*
X195043203Y-102786621D01*
X194859097Y-102750000D01*
X195043203Y-102713379D01*
X195476309Y-102423988D01*
X195765700Y-101990882D01*
X195867321Y-101480000D01*
X195765700Y-100969118D01*
X195476309Y-100536012D01*
X195043203Y-100246621D01*
X194532321Y-100145000D01*
X193317679Y-100145000D01*
X192806797Y-100246621D01*
X192373691Y-100536012D01*
X192084300Y-100969118D01*
X191982679Y-101480000D01*
X188255001Y-101480000D01*
X188255301Y-101136401D01*
X187991719Y-100498485D01*
X187703662Y-100209925D01*
X187990004Y-99924082D01*
X188254699Y-99286627D01*
X188255301Y-98596401D01*
X187991719Y-97958485D01*
X187958161Y-97924868D01*
X194589737Y-97924868D01*
X194700641Y-98202099D01*
X195346593Y-98445323D01*
X196036453Y-98422836D01*
X196569359Y-98202099D01*
X196680263Y-97924868D01*
X195635000Y-96879605D01*
X194589737Y-97924868D01*
X187958161Y-97924868D01*
X187703662Y-97669925D01*
X187990004Y-97384082D01*
X188254699Y-96746627D01*
X188254991Y-96411593D01*
X193889677Y-96411593D01*
X193912164Y-97101453D01*
X194132901Y-97634359D01*
X194410132Y-97745263D01*
X195455395Y-96700000D01*
X194410132Y-95654737D01*
X194132901Y-95765641D01*
X193889677Y-96411593D01*
X188254991Y-96411593D01*
X188255301Y-96056401D01*
X187991719Y-95418485D01*
X187703662Y-95129925D01*
X187990004Y-94844082D01*
X188254699Y-94206627D01*
X188255301Y-93516401D01*
X187991719Y-92878485D01*
X187703662Y-92589925D01*
X187990004Y-92304082D01*
X188254699Y-91666627D01*
X188255301Y-90976401D01*
X187991719Y-90338485D01*
X187703662Y-90049925D01*
X187990004Y-89764082D01*
X188254699Y-89126627D01*
X188255301Y-88436401D01*
X187991719Y-87798485D01*
X187703662Y-87509925D01*
X187990004Y-87224082D01*
X188254699Y-86586627D01*
X188255028Y-86208991D01*
X189019735Y-86208991D01*
X189252932Y-86773371D01*
X189654182Y-87175323D01*
X189254449Y-87574357D01*
X189020267Y-88138330D01*
X189019735Y-88748991D01*
X189252932Y-89313371D01*
X189684357Y-89745551D01*
X190248330Y-89979733D01*
X190858991Y-89980265D01*
X191423371Y-89747068D01*
X191615775Y-89555000D01*
X194216673Y-89555000D01*
X194650918Y-89990004D01*
X194843255Y-90069869D01*
X194653485Y-90148281D01*
X194216003Y-90585000D01*
X191690730Y-90585000D01*
X191425643Y-90319449D01*
X190861670Y-90085267D01*
X190251009Y-90084735D01*
X189686629Y-90317932D01*
X189254449Y-90749357D01*
X189020267Y-91313330D01*
X189019735Y-91923991D01*
X189252932Y-92488371D01*
X189654182Y-92890323D01*
X189254449Y-93289357D01*
X189020267Y-93853330D01*
X189019735Y-94463991D01*
X189252932Y-95028371D01*
X189684357Y-95460551D01*
X190248330Y-95694733D01*
X190858991Y-95695265D01*
X191423371Y-95462068D01*
X191690906Y-95195000D01*
X194216673Y-95195000D01*
X194650918Y-95630004D01*
X194811139Y-95696534D01*
X195635000Y-96520395D01*
X196458305Y-95697090D01*
X196616515Y-95631719D01*
X197105004Y-95144082D01*
X197174533Y-94976638D01*
X197446155Y-95248735D01*
X197883182Y-95430205D01*
X197448057Y-95609995D01*
X197182453Y-95875135D01*
X197137099Y-95765641D01*
X196859868Y-95654737D01*
X195814605Y-96700000D01*
X196859868Y-97745263D01*
X197137099Y-97634359D01*
X197179538Y-97521651D01*
X197446155Y-97788735D01*
X197918276Y-97984777D01*
X198429481Y-97985223D01*
X198901943Y-97790005D01*
X199263735Y-97428845D01*
X199459777Y-96956724D01*
X199460223Y-96445519D01*
X199265005Y-95973057D01*
X198903845Y-95611265D01*
X198466818Y-95429795D01*
X198901943Y-95250005D01*
X199263735Y-94888845D01*
X199459777Y-94416724D01*
X199460223Y-93905519D01*
X199265005Y-93433057D01*
X198903845Y-93071265D01*
X198466818Y-92889795D01*
X198901943Y-92710005D01*
X199263735Y-92348845D01*
X199459777Y-91876724D01*
X199460223Y-91365519D01*
X199265005Y-90893057D01*
X198903845Y-90531265D01*
X198431724Y-90335223D01*
X197920519Y-90334777D01*
X197448057Y-90529995D01*
X197174660Y-90802914D01*
X197106719Y-90638485D01*
X196619082Y-90149996D01*
X196426745Y-90070131D01*
X196616515Y-89991719D01*
X197105004Y-89504082D01*
X197174533Y-89336638D01*
X197446155Y-89608735D01*
X197918276Y-89804777D01*
X198429481Y-89805223D01*
X198901943Y-89610005D01*
X199263735Y-89248845D01*
X199459777Y-88776724D01*
X199460223Y-88265519D01*
X199265005Y-87793057D01*
X198903845Y-87431265D01*
X198466818Y-87249795D01*
X198901943Y-87070005D01*
X199263735Y-86708845D01*
X199459777Y-86236724D01*
X199460223Y-85725519D01*
X199265005Y-85253057D01*
X198903845Y-84891265D01*
X198466818Y-84709795D01*
X198901943Y-84530005D01*
X199263735Y-84168845D01*
X199459777Y-83696724D01*
X199460223Y-83185519D01*
X199265005Y-82713057D01*
X198903845Y-82351265D01*
X198431724Y-82155223D01*
X197920519Y-82154777D01*
X197448057Y-82349995D01*
X197174660Y-82622914D01*
X197106719Y-82458485D01*
X196619082Y-81969996D01*
X195981627Y-81705301D01*
X195291401Y-81704699D01*
X194653485Y-81968281D01*
X194164996Y-82455918D01*
X193900301Y-83093373D01*
X193899699Y-83783599D01*
X194163281Y-84421515D01*
X194451338Y-84710075D01*
X194216003Y-84945000D01*
X191765599Y-84945000D01*
X191425643Y-84604449D01*
X190861670Y-84370267D01*
X190251009Y-84369735D01*
X189686629Y-84602932D01*
X189254449Y-85034357D01*
X189020267Y-85598330D01*
X189019735Y-86208991D01*
X188255028Y-86208991D01*
X188255301Y-85896401D01*
X187991719Y-85258485D01*
X187703662Y-84969925D01*
X187990004Y-84684082D01*
X188254699Y-84046627D01*
X188255301Y-83356401D01*
X187991719Y-82718485D01*
X187504082Y-82229996D01*
X186866627Y-81965301D01*
X186176401Y-81964699D01*
X185538485Y-82228281D01*
X185249925Y-82516338D01*
X184964082Y-82229996D01*
X184326627Y-81965301D01*
X183636401Y-81964699D01*
X182998485Y-82228281D01*
X182509996Y-82715918D01*
X182245301Y-83353373D01*
X182244699Y-84043599D01*
X178094701Y-84043599D01*
X178095301Y-83356401D01*
X177831719Y-82718485D01*
X177344082Y-82229996D01*
X176706627Y-81965301D01*
X176016401Y-81964699D01*
X175378485Y-82228281D01*
X175089925Y-82516338D01*
X174804082Y-82229996D01*
X174166627Y-81965301D01*
X173476401Y-81964699D01*
X172838485Y-82228281D01*
X172549925Y-82516338D01*
X172264082Y-82229996D01*
X171626627Y-81965301D01*
X170936401Y-81964699D01*
X170298485Y-82228281D01*
X170009925Y-82516338D01*
X169724082Y-82229996D01*
X169086627Y-81965301D01*
X168396401Y-81964699D01*
X167758485Y-82228281D01*
X167469925Y-82516338D01*
X167184082Y-82229996D01*
X166546627Y-81965301D01*
X165856401Y-81964699D01*
X165218485Y-82228281D01*
X164929925Y-82516338D01*
X164644082Y-82229996D01*
X164006627Y-81965301D01*
X163316401Y-81964699D01*
X162678485Y-82228281D01*
X162389925Y-82516338D01*
X162104082Y-82229996D01*
X161466627Y-81965301D01*
X160776401Y-81964699D01*
X160138485Y-82228281D01*
X159849925Y-82516338D01*
X159564082Y-82229996D01*
X158926627Y-81965301D01*
X158236401Y-81964699D01*
X157598485Y-82228281D01*
X157109996Y-82715918D01*
X156845301Y-83353373D01*
X156844699Y-84043599D01*
X157108281Y-84681515D01*
X157595918Y-85170004D01*
X158233373Y-85434699D01*
X158923599Y-85435301D01*
X159561515Y-85171719D01*
X159850075Y-84883662D01*
X160135918Y-85170004D01*
X160773373Y-85434699D01*
X161463599Y-85435301D01*
X162101515Y-85171719D01*
X162390075Y-84883662D01*
X162675918Y-85170004D01*
X163313373Y-85434699D01*
X164003599Y-85435301D01*
X164641515Y-85171719D01*
X164930075Y-84883662D01*
X165215918Y-85170004D01*
X165853373Y-85434699D01*
X166543599Y-85435301D01*
X167181515Y-85171719D01*
X167470075Y-84883662D01*
X167755918Y-85170004D01*
X168393373Y-85434699D01*
X169083599Y-85435301D01*
X169721515Y-85171719D01*
X170010075Y-84883662D01*
X170295918Y-85170004D01*
X170713068Y-85343220D01*
X168646288Y-87410000D01*
X110338711Y-87410000D01*
X108302369Y-85373657D01*
X108449373Y-85434699D01*
X109139599Y-85435301D01*
X109777515Y-85171719D01*
X110066075Y-84883662D01*
X110351918Y-85170004D01*
X110989373Y-85434699D01*
X111679599Y-85435301D01*
X112317515Y-85171719D01*
X112606075Y-84883662D01*
X112891918Y-85170004D01*
X113529373Y-85434699D01*
X114219599Y-85435301D01*
X114857515Y-85171719D01*
X115104797Y-84924868D01*
X115370737Y-84924868D01*
X115481641Y-85202099D01*
X116127593Y-85445323D01*
X116817453Y-85422836D01*
X117350359Y-85202099D01*
X117461263Y-84924868D01*
X116416000Y-83879605D01*
X115370737Y-84924868D01*
X115104797Y-84924868D01*
X115346004Y-84684082D01*
X115412534Y-84523861D01*
X116236395Y-83700000D01*
X116595605Y-83700000D01*
X117418910Y-84523305D01*
X117484281Y-84681515D01*
X117971918Y-85170004D01*
X118609373Y-85434699D01*
X119299599Y-85435301D01*
X119937515Y-85171719D01*
X120226075Y-84883662D01*
X120511918Y-85170004D01*
X121149373Y-85434699D01*
X121839599Y-85435301D01*
X122477515Y-85171719D01*
X122766075Y-84883662D01*
X123051918Y-85170004D01*
X123689373Y-85434699D01*
X123851128Y-85434840D01*
X125053142Y-86636853D01*
X125053144Y-86636856D01*
X125260855Y-86775643D01*
X125388923Y-86861215D01*
X125785000Y-86940001D01*
X125785005Y-86940000D01*
X146214995Y-86940000D01*
X146215000Y-86940001D01*
X146611077Y-86861215D01*
X146946856Y-86636856D01*
X148148947Y-85434765D01*
X148763599Y-85435301D01*
X149401515Y-85171719D01*
X149690075Y-84883662D01*
X149975918Y-85170004D01*
X150613373Y-85434699D01*
X151303599Y-85435301D01*
X151941515Y-85171719D01*
X152230075Y-84883662D01*
X152515918Y-85170004D01*
X153153373Y-85434699D01*
X153843599Y-85435301D01*
X154481515Y-85171719D01*
X154970004Y-84684082D01*
X155234699Y-84046627D01*
X155235301Y-83356401D01*
X154971719Y-82718485D01*
X154484082Y-82229996D01*
X153846627Y-81965301D01*
X153156401Y-81964699D01*
X152518485Y-82228281D01*
X152229925Y-82516338D01*
X151944082Y-82229996D01*
X151306627Y-81965301D01*
X150616401Y-81964699D01*
X149978485Y-82228281D01*
X149689925Y-82516338D01*
X149404082Y-82229996D01*
X148766627Y-81965301D01*
X148076401Y-81964699D01*
X147438485Y-82228281D01*
X147149925Y-82516338D01*
X146864082Y-82229996D01*
X146226627Y-81965301D01*
X145536401Y-81964699D01*
X144898485Y-82228281D01*
X144609925Y-82516338D01*
X144324082Y-82229996D01*
X143686627Y-81965301D01*
X142996401Y-81964699D01*
X142358485Y-82228281D01*
X142069925Y-82516338D01*
X141835000Y-82281003D01*
X141835000Y-78285000D01*
X184577679Y-78285000D01*
X184679300Y-78795882D01*
X184968691Y-79228988D01*
X185401797Y-79518379D01*
X185912679Y-79620000D01*
X187127321Y-79620000D01*
X187638203Y-79518379D01*
X188071309Y-79228988D01*
X188360700Y-78795882D01*
X188462321Y-78285000D01*
X188360700Y-77774118D01*
X188071309Y-77341012D01*
X187638203Y-77051621D01*
X187127321Y-76950000D01*
X185912679Y-76950000D01*
X185401797Y-77051621D01*
X184968691Y-77341012D01*
X184679300Y-77774118D01*
X184577679Y-78285000D01*
X141835000Y-78285000D01*
X141835000Y-77798327D01*
X142270004Y-77364082D01*
X142534699Y-76726627D01*
X142535301Y-76036401D01*
X142271719Y-75398485D01*
X141784082Y-74909996D01*
X141616638Y-74840467D01*
X141888735Y-74568845D01*
X142084777Y-74096724D01*
X142084911Y-73942619D01*
X205764613Y-73942619D01*
X206104155Y-74764372D01*
X206732321Y-75393636D01*
X207553481Y-75734611D01*
X208442619Y-75735387D01*
X209264372Y-75395845D01*
X209893636Y-74767679D01*
X210234611Y-73946519D01*
X210235387Y-73057381D01*
X209895845Y-72235628D01*
X209267679Y-71606364D01*
X208446519Y-71265389D01*
X207557381Y-71264613D01*
X206735628Y-71604155D01*
X206106364Y-72232321D01*
X205765389Y-73053481D01*
X205764613Y-73942619D01*
X142084911Y-73942619D01*
X142085223Y-73585519D01*
X141890005Y-73113057D01*
X141528845Y-72751265D01*
X141056724Y-72555223D01*
X140545519Y-72554777D01*
X140073057Y-72749995D01*
X139711265Y-73111155D01*
X139529795Y-73548182D01*
X139350005Y-73113057D01*
X138988845Y-72751265D01*
X138516724Y-72555223D01*
X138005519Y-72554777D01*
X137533057Y-72749995D01*
X137171265Y-73111155D01*
X136989795Y-73548182D01*
X136810005Y-73113057D01*
X136448845Y-72751265D01*
X135976724Y-72555223D01*
X135465519Y-72554777D01*
X134993057Y-72749995D01*
X134631265Y-73111155D01*
X134435223Y-73583276D01*
X134434777Y-74094481D01*
X134629995Y-74566943D01*
X134902914Y-74840340D01*
X134738485Y-74908281D01*
X134249996Y-75395918D01*
X133985301Y-76033373D01*
X133984699Y-76723599D01*
X134248281Y-77361515D01*
X134685000Y-77798997D01*
X134685000Y-82281673D01*
X134249996Y-82715918D01*
X133985301Y-83353373D01*
X133984699Y-84043599D01*
X134248281Y-84681515D01*
X134436437Y-84870000D01*
X132939761Y-84870000D01*
X133126004Y-84684082D01*
X133390699Y-84046627D01*
X133391301Y-83356401D01*
X133127719Y-82718485D01*
X132640082Y-82229996D01*
X132002627Y-81965301D01*
X131312401Y-81964699D01*
X130674485Y-82228281D01*
X130385925Y-82516338D01*
X130100082Y-82229996D01*
X129462627Y-81965301D01*
X128772401Y-81964699D01*
X128134485Y-82228281D01*
X127845925Y-82516338D01*
X127560082Y-82229996D01*
X126922627Y-81965301D01*
X126232401Y-81964699D01*
X125594485Y-82228281D01*
X125305925Y-82516338D01*
X125020082Y-82229996D01*
X124382627Y-81965301D01*
X123692401Y-81964699D01*
X123054485Y-82228281D01*
X122765925Y-82516338D01*
X122480082Y-82229996D01*
X121842627Y-81965301D01*
X121152401Y-81964699D01*
X120514485Y-82228281D01*
X120225925Y-82516338D01*
X119991000Y-82281003D01*
X119991000Y-80055099D01*
X120189379Y-79758203D01*
X120291000Y-79247321D01*
X120291000Y-78032679D01*
X120189379Y-77521797D01*
X119899988Y-77088691D01*
X119466882Y-76799300D01*
X118956000Y-76697679D01*
X118445118Y-76799300D01*
X118012012Y-77088691D01*
X117722621Y-77521797D01*
X117621000Y-78032679D01*
X117621000Y-79247321D01*
X117722621Y-79758203D01*
X117921000Y-80055099D01*
X117921000Y-82281673D01*
X117485996Y-82715918D01*
X117419466Y-82876139D01*
X116595605Y-83700000D01*
X116236395Y-83700000D01*
X115413090Y-82876695D01*
X115347719Y-82718485D01*
X115104791Y-82475132D01*
X115370737Y-82475132D01*
X116416000Y-83520395D01*
X117461263Y-82475132D01*
X117350359Y-82197901D01*
X116704407Y-81954677D01*
X116014547Y-81977164D01*
X115481641Y-82197901D01*
X115370737Y-82475132D01*
X115104791Y-82475132D01*
X114860082Y-82229996D01*
X114222627Y-81965301D01*
X113532401Y-81964699D01*
X112894485Y-82228281D01*
X112605925Y-82516338D01*
X112371000Y-82281003D01*
X112371000Y-79711005D01*
X112371001Y-79711000D01*
X112292215Y-79314922D01*
X112143167Y-79091856D01*
X112067856Y-78979144D01*
X112067853Y-78979142D01*
X111855712Y-78767000D01*
X112541000Y-78767000D01*
X112541000Y-79337000D01*
X112691222Y-79838215D01*
X113021815Y-80243790D01*
X113482450Y-80491980D01*
X113542671Y-80502716D01*
X113749000Y-80379374D01*
X113749000Y-78767000D01*
X114003000Y-78767000D01*
X114003000Y-80379374D01*
X114209329Y-80502716D01*
X114269550Y-80491980D01*
X114730185Y-80243790D01*
X115060778Y-79838215D01*
X115211000Y-79337000D01*
X115211000Y-78767000D01*
X114003000Y-78767000D01*
X113749000Y-78767000D01*
X112541000Y-78767000D01*
X111855712Y-78767000D01*
X111031712Y-77943000D01*
X112541000Y-77943000D01*
X112541000Y-78513000D01*
X113749000Y-78513000D01*
X113749000Y-76900626D01*
X114003000Y-76900626D01*
X114003000Y-78513000D01*
X115211000Y-78513000D01*
X115211000Y-77943000D01*
X115060778Y-77441785D01*
X114730185Y-77036210D01*
X114269550Y-76788020D01*
X114209329Y-76777284D01*
X114003000Y-76900626D01*
X113749000Y-76900626D01*
X113542671Y-76777284D01*
X113482450Y-76788020D01*
X113021815Y-77036210D01*
X112691222Y-77441785D01*
X112541000Y-77943000D01*
X111031712Y-77943000D01*
X107834765Y-74746053D01*
X107835301Y-74131401D01*
X107732993Y-73883795D01*
X112240716Y-73883795D01*
X112489106Y-74484943D01*
X112948637Y-74945278D01*
X113549352Y-75194716D01*
X114199795Y-75195284D01*
X114800943Y-74946894D01*
X115261278Y-74487363D01*
X115510716Y-73886648D01*
X115510718Y-73883795D01*
X117320716Y-73883795D01*
X117569106Y-74484943D01*
X118028637Y-74945278D01*
X118629352Y-75194716D01*
X119279795Y-75195284D01*
X119880943Y-74946894D01*
X120341278Y-74487363D01*
X120590716Y-73886648D01*
X120591284Y-73236205D01*
X120342894Y-72635057D01*
X119883363Y-72174722D01*
X119282648Y-71925284D01*
X118632205Y-71924716D01*
X118031057Y-72173106D01*
X117570722Y-72632637D01*
X117321284Y-73233352D01*
X117320716Y-73883795D01*
X115510718Y-73883795D01*
X115511284Y-73236205D01*
X115262894Y-72635057D01*
X114803363Y-72174722D01*
X114202648Y-71925284D01*
X113552205Y-71924716D01*
X112951057Y-72173106D01*
X112490722Y-72632637D01*
X112241284Y-73233352D01*
X112240716Y-73883795D01*
X107732993Y-73883795D01*
X107571719Y-73493485D01*
X107084082Y-73004996D01*
X106916638Y-72935467D01*
X107188735Y-72663845D01*
X107384777Y-72191724D01*
X107385223Y-71680519D01*
X107190005Y-71208057D01*
X106828845Y-70846265D01*
X106356724Y-70650223D01*
X105845519Y-70649777D01*
X105373057Y-70844995D01*
X105011265Y-71206155D01*
X104829795Y-71643182D01*
X104650005Y-71208057D01*
X104288845Y-70846265D01*
X103816724Y-70650223D01*
X103305519Y-70649777D01*
X102833057Y-70844995D01*
X102471265Y-71206155D01*
X102275223Y-71678276D01*
X102274777Y-72189481D01*
X102469995Y-72661943D01*
X102742914Y-72935340D01*
X102578485Y-73003281D01*
X102089996Y-73490918D01*
X102010131Y-73683255D01*
X101931719Y-73493485D01*
X101444082Y-73004996D01*
X101276638Y-72935467D01*
X101548735Y-72663845D01*
X101744777Y-72191724D01*
X101745223Y-71680519D01*
X101550005Y-71208057D01*
X101188845Y-70846265D01*
X100716724Y-70650223D01*
X100205519Y-70649777D01*
X99733057Y-70844995D01*
X99371265Y-71206155D01*
X99189795Y-71643182D01*
X99010005Y-71208057D01*
X98648845Y-70846265D01*
X98176724Y-70650223D01*
X97665519Y-70649777D01*
X97193057Y-70844995D01*
X96831265Y-71206155D01*
X96635223Y-71678276D01*
X96634777Y-72189481D01*
X96829995Y-72661943D01*
X97102914Y-72935340D01*
X96938485Y-73003281D01*
X96449996Y-73490918D01*
X96185301Y-74128373D01*
X96184699Y-74818599D01*
X74842626Y-74818599D01*
X74893636Y-74767679D01*
X75234611Y-73946519D01*
X75235387Y-73057381D01*
X74895845Y-72235628D01*
X74267679Y-71606364D01*
X73446519Y-71265389D01*
X72557381Y-71264613D01*
X71735628Y-71604155D01*
X71106364Y-72232321D01*
X70765389Y-73053481D01*
X70764613Y-73942619D01*
X68685000Y-73942619D01*
X68685000Y-70567467D01*
X68797497Y-70001906D01*
X69079643Y-69579643D01*
X69501906Y-69297497D01*
X70067466Y-69185000D01*
X210932533Y-69185000D01*
X211498094Y-69297497D01*
X211498094Y-69297497D01*
G37*
X211498094Y-69297497D02*
X211920357Y-69579643D01*
X212202503Y-70001906D01*
X212315000Y-70567466D01*
X212315000Y-145432534D01*
X212202503Y-145998094D01*
X211920357Y-146420357D01*
X211498094Y-146702503D01*
X210932533Y-146815000D01*
X201430000Y-146815000D01*
X201430000Y-142942619D01*
X205764613Y-142942619D01*
X206104155Y-143764372D01*
X206732321Y-144393636D01*
X207553481Y-144734611D01*
X208442619Y-144735387D01*
X209264372Y-144395845D01*
X209893636Y-143767679D01*
X210234611Y-142946519D01*
X210235387Y-142057381D01*
X209895845Y-141235628D01*
X209267679Y-140606364D01*
X208446519Y-140265389D01*
X207557381Y-140264613D01*
X206735628Y-140604155D01*
X206106364Y-141232321D01*
X205765389Y-142053481D01*
X205764613Y-142942619D01*
X201430000Y-142942619D01*
X201430000Y-131574286D01*
X197610000Y-131574286D01*
X197610000Y-146815000D01*
X70067466Y-146815000D01*
X69501906Y-146702503D01*
X69079643Y-146420357D01*
X68797497Y-145998094D01*
X68685000Y-145432533D01*
X68685000Y-142942619D01*
X70764613Y-142942619D01*
X71104155Y-143764372D01*
X71732321Y-144393636D01*
X72553481Y-144734611D01*
X73442619Y-144735387D01*
X74037642Y-144489528D01*
X192850077Y-144489528D01*
X193040364Y-144834271D01*
X193921591Y-145185956D01*
X194870323Y-145173641D01*
X195689636Y-144834271D01*
X195879923Y-144489528D01*
X194365000Y-142974605D01*
X192850077Y-144489528D01*
X74037642Y-144489528D01*
X74264372Y-144395845D01*
X74893636Y-143767679D01*
X75234611Y-142946519D01*
X75235387Y-142057381D01*
X74895845Y-141235628D01*
X74267679Y-140606364D01*
X73446519Y-140265389D01*
X72557381Y-140264613D01*
X71735628Y-140604155D01*
X71106364Y-141232321D01*
X70765389Y-142053481D01*
X70764613Y-142942619D01*
X68685000Y-142942619D01*
X68685000Y-125648599D01*
X69439699Y-125648599D01*
X69703281Y-126286515D01*
X70190918Y-126775004D01*
X70828373Y-127039699D01*
X71518599Y-127040301D01*
X72156515Y-126776719D01*
X72593997Y-126340000D01*
X73334901Y-126340000D01*
X73631797Y-126538379D01*
X74142679Y-126640000D01*
X75357321Y-126640000D01*
X75868203Y-126538379D01*
X76301309Y-126248988D01*
X76590700Y-125815882D01*
X76692321Y-125305000D01*
X76590700Y-124794118D01*
X76301309Y-124361012D01*
X75868203Y-124071621D01*
X75785000Y-124055071D01*
X75785000Y-121199929D01*
X75868203Y-121183379D01*
X76301309Y-120893988D01*
X76590700Y-120460882D01*
X76692321Y-119950000D01*
X76590700Y-119439118D01*
X76301309Y-119006012D01*
X75868203Y-118716621D01*
X75357321Y-118615000D01*
X74142679Y-118615000D01*
X73631797Y-118716621D01*
X73198691Y-119006012D01*
X72909300Y-119439118D01*
X72807679Y-119950000D01*
X72909300Y-120460882D01*
X73198691Y-120893988D01*
X73631797Y-121183379D01*
X73715000Y-121199929D01*
X73715000Y-124055071D01*
X73631797Y-124071621D01*
X73334901Y-124270000D01*
X72593327Y-124270000D01*
X72159082Y-123834996D01*
X71521627Y-123570301D01*
X70831401Y-123569699D01*
X70193485Y-123833281D01*
X69704996Y-124320918D01*
X69440301Y-124958373D01*
X69439699Y-125648599D01*
X68685000Y-125648599D01*
X68685000Y-115783329D01*
X72887284Y-115783329D01*
X72898020Y-115843550D01*
X73146210Y-116304185D01*
X73551785Y-116634778D01*
X74053000Y-116785000D01*
X74623000Y-116785000D01*
X74623000Y-115577000D01*
X74877000Y-115577000D01*
X74877000Y-116785000D01*
X75447000Y-116785000D01*
X75948215Y-116634778D01*
X76353790Y-116304185D01*
X76601980Y-115843550D01*
X76612716Y-115783329D01*
X76489374Y-115577000D01*
X74877000Y-115577000D01*
X74623000Y-115577000D01*
X73010626Y-115577000D01*
X72887284Y-115783329D01*
X68685000Y-115783329D01*
X68685000Y-113722815D01*
X69614630Y-113722815D01*
X69938980Y-114507800D01*
X70539041Y-115108909D01*
X71323459Y-115434628D01*
X72172815Y-115435370D01*
X72898543Y-115135505D01*
X73010626Y-115323000D01*
X74623000Y-115323000D01*
X74623000Y-114115000D01*
X74877000Y-114115000D01*
X74877000Y-115323000D01*
X76489374Y-115323000D01*
X76612716Y-115116671D01*
X76601980Y-115056450D01*
X76353790Y-114595815D01*
X75948215Y-114265222D01*
X75447000Y-114115000D01*
X74877000Y-114115000D01*
X74623000Y-114115000D01*
X74053000Y-114115000D01*
X73676465Y-114227854D01*
X73884628Y-113726541D01*
X73885370Y-112877185D01*
X73561020Y-112092200D01*
X72960959Y-111491091D01*
X72176541Y-111165372D01*
X71327185Y-111164630D01*
X70542200Y-111488980D01*
X69941091Y-112089041D01*
X69615372Y-112873459D01*
X69614630Y-113722815D01*
X68685000Y-113722815D01*
X68685000Y-103122815D01*
X69614630Y-103122815D01*
X69938980Y-103907800D01*
X70539041Y-104508909D01*
X71323459Y-104834628D01*
X72172815Y-104835370D01*
X72957800Y-104511020D01*
X73558909Y-103910959D01*
X73884628Y-103126541D01*
X73885370Y-102277185D01*
X73561020Y-101492200D01*
X73044590Y-100974868D01*
X74454737Y-100974868D01*
X74565641Y-101252099D01*
X75211593Y-101495323D01*
X75901453Y-101472836D01*
X76434359Y-101252099D01*
X76545263Y-100974868D01*
X75500000Y-99929605D01*
X74454737Y-100974868D01*
X73044590Y-100974868D01*
X72960959Y-100891091D01*
X72176541Y-100565372D01*
X71327185Y-100564630D01*
X70542200Y-100888980D01*
X69941091Y-101489041D01*
X69615372Y-102273459D01*
X69614630Y-103122815D01*
X68685000Y-103122815D01*
X68685000Y-99461593D01*
X73754677Y-99461593D01*
X73777164Y-100151453D01*
X73997901Y-100684359D01*
X74275132Y-100795263D01*
X75320395Y-99750000D01*
X75679605Y-99750000D01*
X76434744Y-100505139D01*
X76528281Y-100731515D01*
X77015918Y-101220004D01*
X77653373Y-101484699D01*
X78343599Y-101485301D01*
X78981515Y-101221719D01*
X79165000Y-101038554D01*
X79165000Y-104235614D01*
X79009118Y-104266621D01*
X78576012Y-104556012D01*
X78576010Y-104556015D01*
X77216012Y-105916012D01*
X76926621Y-106349117D01*
X76824999Y-106860000D01*
X76825000Y-106860005D01*
X76825000Y-115749995D01*
X76824999Y-115750000D01*
X76926621Y-116260883D01*
X77216012Y-116693988D01*
X79121010Y-118598985D01*
X79121012Y-118598988D01*
X79349591Y-118751719D01*
X79554118Y-118888379D01*
X79801189Y-118937525D01*
X79698691Y-119006012D01*
X79409300Y-119439118D01*
X79307679Y-119950000D01*
X79409300Y-120460882D01*
X79698691Y-120893988D01*
X80131797Y-121183379D01*
X80642679Y-121285000D01*
X81857321Y-121285000D01*
X82368203Y-121183379D01*
X82801309Y-120893988D01*
X83090700Y-120460882D01*
X83192321Y-119950000D01*
X83090700Y-119439118D01*
X82801309Y-119006012D01*
X82777345Y-118990000D01*
X83575000Y-118990000D01*
X83575000Y-124216480D01*
X83358691Y-124361012D01*
X83069300Y-124794118D01*
X82967679Y-125305000D01*
X83069300Y-125815882D01*
X83358691Y-126248988D01*
X83791797Y-126538379D01*
X84302679Y-126640000D01*
X85517321Y-126640000D01*
X86028203Y-126538379D01*
X86461309Y-126248988D01*
X86750700Y-125815882D01*
X86852321Y-125305000D01*
X86750700Y-124794118D01*
X86461309Y-124361012D01*
X86245000Y-124216480D01*
X86245000Y-118990000D01*
X115707024Y-118990000D01*
X126765000Y-130047975D01*
X126765000Y-130711300D01*
X126544082Y-130489996D01*
X125906627Y-130225301D01*
X125216401Y-130224699D01*
X124578485Y-130488281D01*
X124289925Y-130776338D01*
X124004082Y-130489996D01*
X123366627Y-130225301D01*
X122676401Y-130224699D01*
X122038485Y-130488281D01*
X121749925Y-130776338D01*
X121464082Y-130489996D01*
X120826627Y-130225301D01*
X120136401Y-130224699D01*
X119498485Y-130488281D01*
X119209925Y-130776338D01*
X118924082Y-130489996D01*
X118286627Y-130225301D01*
X117596401Y-130224699D01*
X116958485Y-130488281D01*
X116469996Y-130975918D01*
X116205301Y-131613373D01*
X116204699Y-132303599D01*
X116468281Y-132941515D01*
X116955918Y-133430004D01*
X117593373Y-133694699D01*
X118283599Y-133695301D01*
X118921515Y-133431719D01*
X119210075Y-133143662D01*
X119495918Y-133430004D01*
X120133373Y-133694699D01*
X120823599Y-133695301D01*
X121461515Y-133431719D01*
X121750075Y-133143662D01*
X122035918Y-133430004D01*
X122673373Y-133694699D01*
X123363599Y-133695301D01*
X124001515Y-133431719D01*
X124290075Y-133143662D01*
X124575918Y-133430004D01*
X125213373Y-133694699D01*
X125903599Y-133695301D01*
X126541515Y-133431719D01*
X126830075Y-133143662D01*
X127115918Y-133430004D01*
X127753373Y-133694699D01*
X128443599Y-133695301D01*
X129081515Y-133431719D01*
X129328797Y-133184868D01*
X129594737Y-133184868D01*
X129705641Y-133462099D01*
X130351593Y-133705323D01*
X131041453Y-133682836D01*
X131574359Y-133462099D01*
X131685263Y-133184868D01*
X132134737Y-133184868D01*
X132245641Y-133462099D01*
X132891593Y-133705323D01*
X133581453Y-133682836D01*
X134114359Y-133462099D01*
X134225263Y-133184868D01*
X133180000Y-132139605D01*
X132134737Y-133184868D01*
X131685263Y-133184868D01*
X130640000Y-132139605D01*
X129594737Y-133184868D01*
X129328797Y-133184868D01*
X129570004Y-132944082D01*
X129636534Y-132783861D01*
X130460395Y-131960000D01*
X130819605Y-131960000D01*
X131624116Y-132764511D01*
X131677901Y-132894359D01*
X131804682Y-132945077D01*
X131864868Y-133005263D01*
X131910000Y-132987208D01*
X131955132Y-133005263D01*
X132015318Y-132945077D01*
X132142099Y-132894359D01*
X132188037Y-132772358D01*
X133000395Y-131960000D01*
X133359605Y-131960000D01*
X134182910Y-132783305D01*
X134248281Y-132941515D01*
X134735918Y-133430004D01*
X135373373Y-133694699D01*
X135566892Y-133694868D01*
X143331012Y-141458988D01*
X143764117Y-141748379D01*
X144275000Y-141850001D01*
X144275005Y-141850000D01*
X150807390Y-141850000D01*
X150789722Y-141867637D01*
X150540284Y-142468352D01*
X150539716Y-143118795D01*
X150788106Y-143719943D01*
X151247637Y-144180278D01*
X151848352Y-144429716D01*
X152498795Y-144430284D01*
X153099943Y-144181894D01*
X153560278Y-143722363D01*
X153809716Y-143121648D01*
X153810284Y-142471205D01*
X153561894Y-141870057D01*
X153541872Y-141850000D01*
X155887390Y-141850000D01*
X155869722Y-141867637D01*
X155620284Y-142468352D01*
X155619716Y-143118795D01*
X155868106Y-143719943D01*
X156327637Y-144180278D01*
X156928352Y-144429716D01*
X157578795Y-144430284D01*
X158179943Y-144181894D01*
X158640278Y-143722363D01*
X158889716Y-143121648D01*
X158890284Y-142471205D01*
X158840861Y-142351591D01*
X191974044Y-142351591D01*
X191986359Y-143300323D01*
X192325729Y-144119636D01*
X192670472Y-144309923D01*
X194185395Y-142795000D01*
X194544605Y-142795000D01*
X196059528Y-144309923D01*
X196404271Y-144119636D01*
X196755956Y-143238409D01*
X196743641Y-142289677D01*
X196404271Y-141470364D01*
X196059528Y-141280077D01*
X194544605Y-142795000D01*
X194185395Y-142795000D01*
X192670472Y-141280077D01*
X192325729Y-141470364D01*
X191974044Y-142351591D01*
X158840861Y-142351591D01*
X158641894Y-141870057D01*
X158621872Y-141850000D01*
X179759995Y-141850000D01*
X179760000Y-141850001D01*
X180270883Y-141748379D01*
X180703988Y-141458988D01*
X181062503Y-141100472D01*
X192850077Y-141100472D01*
X194365000Y-142615395D01*
X195879923Y-141100472D01*
X195689636Y-140755729D01*
X194808409Y-140404044D01*
X193859677Y-140416359D01*
X193040364Y-140755729D01*
X192850077Y-141100472D01*
X181062503Y-141100472D01*
X183975650Y-138187325D01*
X191979587Y-138187325D01*
X192341916Y-139064229D01*
X193012242Y-139735726D01*
X193888513Y-140099585D01*
X194837325Y-140100413D01*
X195714229Y-139738084D01*
X196385726Y-139067758D01*
X196749585Y-138191487D01*
X196750413Y-137242675D01*
X196388084Y-136365771D01*
X195717758Y-135694274D01*
X194841487Y-135330415D01*
X193892675Y-135329587D01*
X193015771Y-135691916D01*
X192344274Y-136362242D01*
X191980415Y-137238513D01*
X191979587Y-138187325D01*
X183975650Y-138187325D01*
X184513985Y-137648990D01*
X184513988Y-137648988D01*
X184803379Y-137215882D01*
X184824902Y-137107679D01*
X184905001Y-136705000D01*
X184905000Y-136704995D01*
X184905000Y-132960000D01*
X194364995Y-132960000D01*
X194365000Y-132960001D01*
X194875883Y-132858379D01*
X195308988Y-132568988D01*
X203368985Y-124508990D01*
X203368988Y-124508988D01*
X203542465Y-124249360D01*
X203658379Y-124075883D01*
X203760000Y-123565000D01*
X203760000Y-123222976D01*
X204401010Y-123863985D01*
X204401012Y-123863988D01*
X204599183Y-123996401D01*
X204834117Y-124153379D01*
X205345000Y-124255000D01*
X207000000Y-124255000D01*
X207000000Y-124341149D01*
X206864996Y-124475918D01*
X206600301Y-125113373D01*
X206599699Y-125803599D01*
X206863281Y-126441515D01*
X207350918Y-126930004D01*
X207988373Y-127194699D01*
X208678599Y-127195301D01*
X209316515Y-126931719D01*
X209805004Y-126444082D01*
X209874533Y-126276638D01*
X210146155Y-126548735D01*
X210618276Y-126744777D01*
X211129481Y-126745223D01*
X211601943Y-126550005D01*
X211963735Y-126188845D01*
X212159777Y-125716724D01*
X212160223Y-125205519D01*
X211965005Y-124733057D01*
X211603845Y-124371265D01*
X211166818Y-124189795D01*
X211601943Y-124010005D01*
X211963735Y-123648845D01*
X212159777Y-123176724D01*
X212160223Y-122665519D01*
X211965005Y-122193057D01*
X211603845Y-121831265D01*
X211166818Y-121649795D01*
X211601943Y-121470005D01*
X211963735Y-121108845D01*
X212159777Y-120636724D01*
X212160223Y-120125519D01*
X211965005Y-119653057D01*
X211603845Y-119291265D01*
X211131724Y-119095223D01*
X210620519Y-119094777D01*
X210148057Y-119289995D01*
X209874660Y-119562914D01*
X209806719Y-119398485D01*
X209319082Y-118909996D01*
X209126745Y-118830131D01*
X209316515Y-118751719D01*
X209805004Y-118264082D01*
X209874533Y-118096638D01*
X210146155Y-118368735D01*
X210618276Y-118564777D01*
X211129481Y-118565223D01*
X211601943Y-118370005D01*
X211963735Y-118008845D01*
X212159777Y-117536724D01*
X212160223Y-117025519D01*
X211965005Y-116553057D01*
X211603845Y-116191265D01*
X211166818Y-116009795D01*
X211601943Y-115830005D01*
X211963735Y-115468845D01*
X212159777Y-114996724D01*
X212160223Y-114485519D01*
X211965005Y-114013057D01*
X211603845Y-113651265D01*
X211166818Y-113469795D01*
X211601943Y-113290005D01*
X211963735Y-112928845D01*
X212159777Y-112456724D01*
X212160223Y-111945519D01*
X211965005Y-111473057D01*
X211603845Y-111111265D01*
X211131724Y-110915223D01*
X210620519Y-110914777D01*
X210148057Y-111109995D01*
X209874660Y-111382914D01*
X209806719Y-111218485D01*
X209319082Y-110729996D01*
X209126745Y-110650131D01*
X209316515Y-110571719D01*
X209805004Y-110084082D01*
X209874533Y-109916638D01*
X210146155Y-110188735D01*
X210618276Y-110384777D01*
X211129481Y-110385223D01*
X211601943Y-110190005D01*
X211963735Y-109828845D01*
X212159777Y-109356724D01*
X212160223Y-108845519D01*
X211965005Y-108373057D01*
X211603845Y-108011265D01*
X211166818Y-107829795D01*
X211601943Y-107650005D01*
X211963735Y-107288845D01*
X212159777Y-106816724D01*
X212160223Y-106305519D01*
X211965005Y-105833057D01*
X211603845Y-105471265D01*
X211166818Y-105289795D01*
X211601943Y-105110005D01*
X211963735Y-104748845D01*
X212159777Y-104276724D01*
X212160223Y-103765519D01*
X211965005Y-103293057D01*
X211603845Y-102931265D01*
X211131724Y-102735223D01*
X210620519Y-102734777D01*
X210148057Y-102929995D01*
X209874660Y-103202914D01*
X209806719Y-103038485D01*
X209319082Y-102549996D01*
X208681627Y-102285301D01*
X207991401Y-102284699D01*
X207353485Y-102548281D01*
X206916003Y-102985000D01*
X203840099Y-102985000D01*
X203543203Y-102786621D01*
X203359097Y-102750000D01*
X203543203Y-102713379D01*
X203976309Y-102423988D01*
X204265700Y-101990882D01*
X204367321Y-101480000D01*
X204265700Y-100969118D01*
X203976309Y-100536012D01*
X203760000Y-100391480D01*
X203760000Y-77677679D01*
X203658379Y-77166797D01*
X203368988Y-76733691D01*
X202935882Y-76444300D01*
X202425000Y-76342679D01*
X201914118Y-76444300D01*
X201481012Y-76733691D01*
X201191621Y-77166797D01*
X201155000Y-77350903D01*
X201118379Y-77166797D01*
X200828988Y-76733691D01*
X200395882Y-76444300D01*
X199885000Y-76342679D01*
X199374118Y-76444300D01*
X198941012Y-76733691D01*
X198796480Y-76950000D01*
X196072679Y-76950000D01*
X195561797Y-77051621D01*
X195128691Y-77341012D01*
X194839300Y-77774118D01*
X194737679Y-78285000D01*
X194839300Y-78795882D01*
X195128691Y-79228988D01*
X195561797Y-79518379D01*
X196072679Y-79620000D01*
X198796480Y-79620000D01*
X198941012Y-79836309D01*
X199374118Y-80125700D01*
X199885000Y-80227321D01*
X200395882Y-80125700D01*
X200828988Y-79836309D01*
X201090000Y-79445675D01*
X201090000Y-100391480D01*
X200873691Y-100536012D01*
X200584300Y-100969118D01*
X200482679Y-101480000D01*
X200584300Y-101990882D01*
X200873691Y-102423988D01*
X201306797Y-102713379D01*
X201490903Y-102750000D01*
X201306797Y-102786621D01*
X200873691Y-103076012D01*
X200584300Y-103509118D01*
X200482679Y-104020000D01*
X200584300Y-104530882D01*
X200873691Y-104963988D01*
X201306797Y-105253379D01*
X201490903Y-105290000D01*
X201306797Y-105326621D01*
X200873691Y-105616012D01*
X200584300Y-106049118D01*
X200482679Y-106560000D01*
X200584300Y-107070882D01*
X200873691Y-107503988D01*
X201306797Y-107793379D01*
X201490903Y-107830000D01*
X201306797Y-107866621D01*
X200873691Y-108156012D01*
X200584300Y-108589118D01*
X200482679Y-109100000D01*
X200584300Y-109610882D01*
X200873691Y-110043988D01*
X201306797Y-110333379D01*
X201490903Y-110370000D01*
X201306797Y-110406621D01*
X200873691Y-110696012D01*
X200584300Y-111129118D01*
X200482679Y-111640000D01*
X200584300Y-112150882D01*
X200873691Y-112583988D01*
X201306797Y-112873379D01*
X201490903Y-112910000D01*
X201306797Y-112946621D01*
X200873691Y-113236012D01*
X200584300Y-113669118D01*
X200482679Y-114180000D01*
X200584300Y-114690882D01*
X200873691Y-115123988D01*
X201306797Y-115413379D01*
X201490903Y-115450000D01*
X201306797Y-115486621D01*
X200873691Y-115776012D01*
X200584300Y-116209118D01*
X200482679Y-116720000D01*
X200584300Y-117230882D01*
X200873691Y-117663988D01*
X201306797Y-117953379D01*
X201490903Y-117990000D01*
X201306797Y-118026621D01*
X200873691Y-118316012D01*
X200584300Y-118749118D01*
X200482679Y-119260000D01*
X200584300Y-119770882D01*
X200873691Y-120203988D01*
X201306797Y-120493379D01*
X201490903Y-120530000D01*
X201306797Y-120566621D01*
X200873691Y-120856012D01*
X200584300Y-121289118D01*
X200482679Y-121800000D01*
X200584300Y-122310882D01*
X200873691Y-122743988D01*
X201090000Y-122888520D01*
X201090000Y-123012025D01*
X196731695Y-127370329D01*
X196722836Y-127098547D01*
X196502099Y-126565641D01*
X196224868Y-126454737D01*
X195179605Y-127500000D01*
X195193748Y-127514143D01*
X195014143Y-127693748D01*
X195000000Y-127679605D01*
X193954737Y-128724868D01*
X194065641Y-129002099D01*
X194711593Y-129245323D01*
X194861591Y-129240434D01*
X193812024Y-130290000D01*
X184677015Y-130290000D01*
X184513988Y-130046012D01*
X184513985Y-130046010D01*
X182572844Y-128104868D01*
X182934737Y-128104868D01*
X183045641Y-128382099D01*
X183691593Y-128625323D01*
X184381453Y-128602836D01*
X184914359Y-128382099D01*
X185025263Y-128104868D01*
X185474737Y-128104868D01*
X185585641Y-128382099D01*
X186231593Y-128625323D01*
X186921453Y-128602836D01*
X187454359Y-128382099D01*
X187565263Y-128104868D01*
X186520000Y-127059605D01*
X185474737Y-128104868D01*
X185025263Y-128104868D01*
X183980000Y-127059605D01*
X182934737Y-128104868D01*
X182572844Y-128104868D01*
X181059569Y-126591593D01*
X182234677Y-126591593D01*
X182257164Y-127281453D01*
X182477901Y-127814359D01*
X182755132Y-127925263D01*
X183800395Y-126880000D01*
X184159605Y-126880000D01*
X184964116Y-127684511D01*
X185017901Y-127814359D01*
X185144682Y-127865077D01*
X185204868Y-127925263D01*
X185250000Y-127907208D01*
X185295132Y-127925263D01*
X185355318Y-127865077D01*
X185482099Y-127814359D01*
X185528037Y-127692358D01*
X186340395Y-126880000D01*
X186699605Y-126880000D01*
X187744868Y-127925263D01*
X188022099Y-127814359D01*
X188249061Y-127211593D01*
X193254677Y-127211593D01*
X193277164Y-127901453D01*
X193497901Y-128434359D01*
X193775132Y-128545263D01*
X194820395Y-127500000D01*
X193775132Y-126454737D01*
X193497901Y-126565641D01*
X193254677Y-127211593D01*
X188249061Y-127211593D01*
X188265323Y-127168407D01*
X188242836Y-126478547D01*
X188158579Y-126275132D01*
X193954737Y-126275132D01*
X195000000Y-127320395D01*
X196045263Y-126275132D01*
X195934359Y-125997901D01*
X195288407Y-125754677D01*
X194598547Y-125777164D01*
X194065641Y-125997901D01*
X193954737Y-126275132D01*
X188158579Y-126275132D01*
X188022099Y-125945641D01*
X187744868Y-125834737D01*
X186699605Y-126880000D01*
X186340395Y-126880000D01*
X185535884Y-126075489D01*
X185482099Y-125945641D01*
X185355318Y-125894923D01*
X185295132Y-125834737D01*
X185250000Y-125852792D01*
X185204868Y-125834737D01*
X185144682Y-125894923D01*
X185017901Y-125945641D01*
X184971963Y-126067642D01*
X184159605Y-126880000D01*
X183800395Y-126880000D01*
X182755132Y-125834737D01*
X182477901Y-125945641D01*
X182234677Y-126591593D01*
X181059569Y-126591593D01*
X180923988Y-126456012D01*
X180490883Y-126166621D01*
X179980000Y-126064999D01*
X179979995Y-126065000D01*
X178022553Y-126065000D01*
X177972363Y-126014722D01*
X177371648Y-125765284D01*
X176721205Y-125764716D01*
X176120057Y-126013106D01*
X175659722Y-126472637D01*
X175410284Y-127073352D01*
X175410220Y-127146805D01*
X174172024Y-128385000D01*
X173209608Y-128385000D01*
X173197534Y-128372926D01*
X173464387Y-128274264D01*
X173690908Y-127664539D01*
X173666856Y-127014540D01*
X173464387Y-126525736D01*
X173197532Y-126427073D01*
X172224605Y-127400000D01*
X172238748Y-127414143D01*
X172059143Y-127593748D01*
X172045000Y-127579605D01*
X172030858Y-127593748D01*
X171851253Y-127414143D01*
X171865395Y-127400000D01*
X170892468Y-126427073D01*
X170625613Y-126525736D01*
X170399092Y-127135461D01*
X170407763Y-127369787D01*
X169493988Y-126456012D01*
X169181880Y-126247468D01*
X171072073Y-126247468D01*
X172045000Y-127220395D01*
X173017927Y-126247468D01*
X172919264Y-125980613D01*
X172309539Y-125754092D01*
X171659540Y-125778144D01*
X171170736Y-125980613D01*
X171072073Y-126247468D01*
X169181880Y-126247468D01*
X169060883Y-126166621D01*
X168550000Y-126064999D01*
X168549995Y-126065000D01*
X166162679Y-126065000D01*
X165651797Y-126166621D01*
X165218691Y-126456012D01*
X164929300Y-126889118D01*
X164827679Y-127400000D01*
X164929300Y-127910882D01*
X165218691Y-128343988D01*
X165651797Y-128633379D01*
X166162679Y-128735000D01*
X167997024Y-128735000D01*
X169926010Y-130663985D01*
X169926012Y-130663988D01*
X170043698Y-130742623D01*
X170009925Y-130776338D01*
X169724082Y-130489996D01*
X169086627Y-130225301D01*
X168396401Y-130224699D01*
X167758485Y-130488281D01*
X167469925Y-130776338D01*
X167184082Y-130489996D01*
X166546627Y-130225301D01*
X165856401Y-130224699D01*
X165218485Y-130488281D01*
X164929925Y-130776338D01*
X164644082Y-130489996D01*
X164006627Y-130225301D01*
X163316401Y-130224699D01*
X162678485Y-130488281D01*
X162189996Y-130975918D01*
X161925301Y-131613373D01*
X161924699Y-132303599D01*
X162188281Y-132941515D01*
X162675918Y-133430004D01*
X163313373Y-133694699D01*
X164003599Y-133695301D01*
X164641515Y-133431719D01*
X164930075Y-133143662D01*
X165215918Y-133430004D01*
X165853373Y-133694699D01*
X166543599Y-133695301D01*
X167181515Y-133431719D01*
X167470075Y-133143662D01*
X167755918Y-133430004D01*
X168393373Y-133694699D01*
X169083599Y-133695301D01*
X169721515Y-133431719D01*
X170010075Y-133143662D01*
X170295918Y-133430004D01*
X170933373Y-133694699D01*
X171623599Y-133695301D01*
X172261515Y-133431719D01*
X172550075Y-133143662D01*
X172835918Y-133430004D01*
X173473373Y-133694699D01*
X174163599Y-133695301D01*
X174801515Y-133431719D01*
X175090075Y-133143662D01*
X175375918Y-133430004D01*
X176013373Y-133694699D01*
X176703599Y-133695301D01*
X177341515Y-133431719D01*
X177630075Y-133143662D01*
X177915918Y-133430004D01*
X178553373Y-133694699D01*
X179243599Y-133695301D01*
X179881515Y-133431719D01*
X180170075Y-133143662D01*
X180455918Y-133430004D01*
X181093373Y-133694699D01*
X181783599Y-133695301D01*
X182235000Y-133508786D01*
X182235000Y-136152025D01*
X179207024Y-139180000D01*
X158256658Y-139180000D01*
X158488379Y-138833203D01*
X158590000Y-138322321D01*
X158590000Y-137107679D01*
X158488379Y-136596797D01*
X158198988Y-136163691D01*
X157765882Y-135874300D01*
X157255000Y-135772679D01*
X156744118Y-135874300D01*
X156311012Y-136163691D01*
X156021621Y-136596797D01*
X155920000Y-137107679D01*
X155920000Y-138322321D01*
X156021621Y-138833203D01*
X156253342Y-139180000D01*
X153176658Y-139180000D01*
X153408379Y-138833203D01*
X153510000Y-138322321D01*
X153510000Y-137107679D01*
X153408379Y-136596797D01*
X153118988Y-136163691D01*
X152685882Y-135874300D01*
X152175000Y-135772679D01*
X151664118Y-135874300D01*
X151231012Y-136163691D01*
X150941621Y-136596797D01*
X150840000Y-137107679D01*
X150840000Y-138322321D01*
X150941621Y-138833203D01*
X151173342Y-139180000D01*
X144827976Y-139180000D01*
X137455135Y-131807159D01*
X137455301Y-131616401D01*
X137191719Y-130978485D01*
X136704082Y-130489996D01*
X136066627Y-130225301D01*
X135376401Y-130224699D01*
X134738485Y-130488281D01*
X134249996Y-130975918D01*
X134183466Y-131136139D01*
X133359605Y-131960000D01*
X133000395Y-131960000D01*
X132195884Y-131155489D01*
X132142099Y-131025641D01*
X132015318Y-130974923D01*
X131955132Y-130914737D01*
X131910000Y-130932792D01*
X131864868Y-130914737D01*
X131804682Y-130974923D01*
X131677901Y-131025641D01*
X131631963Y-131147642D01*
X130819605Y-131960000D01*
X130460395Y-131960000D01*
X130446253Y-131945858D01*
X130625858Y-131766253D01*
X130640000Y-131780395D01*
X131685263Y-130735132D01*
X132134737Y-130735132D01*
X133180000Y-131780395D01*
X134225263Y-130735132D01*
X134114359Y-130457901D01*
X133468407Y-130214677D01*
X132778547Y-130237164D01*
X132245641Y-130457901D01*
X132134737Y-130735132D01*
X131685263Y-130735132D01*
X131574359Y-130457901D01*
X130928407Y-130214677D01*
X130238547Y-130237164D01*
X129705641Y-130457901D01*
X129594738Y-130735130D01*
X129480698Y-130621090D01*
X129435000Y-130666788D01*
X129435000Y-129495005D01*
X129435001Y-129495000D01*
X129333379Y-128984118D01*
X129043988Y-128551012D01*
X129043985Y-128551010D01*
X117203988Y-116711012D01*
X116770883Y-116421621D01*
X116260000Y-116319999D01*
X116259995Y-116320000D01*
X82850746Y-116320000D01*
X83090700Y-115960882D01*
X83192321Y-115450000D01*
X83132165Y-115147578D01*
X83823459Y-115434628D01*
X84672815Y-115435370D01*
X85457800Y-115111020D01*
X86058909Y-114510959D01*
X86384628Y-113726541D01*
X86385370Y-112877185D01*
X86122127Y-112240090D01*
X86651453Y-112222836D01*
X87184359Y-112002099D01*
X87295263Y-111724868D01*
X86250000Y-110679605D01*
X86235858Y-110693748D01*
X86056253Y-110514143D01*
X86070395Y-110500000D01*
X86429605Y-110500000D01*
X87474868Y-111545263D01*
X87752099Y-111434359D01*
X87995323Y-110788407D01*
X87972836Y-110098547D01*
X87752099Y-109565641D01*
X87474868Y-109454737D01*
X86429605Y-110500000D01*
X86070395Y-110500000D01*
X85025132Y-109454737D01*
X84747901Y-109565641D01*
X84504677Y-110211593D01*
X84527164Y-110901453D01*
X84636468Y-111165337D01*
X83827185Y-111164630D01*
X83042200Y-111488980D01*
X82441091Y-112089041D01*
X82115372Y-112873459D01*
X82114630Y-113722815D01*
X82314231Y-114205885D01*
X81857321Y-114115000D01*
X80642679Y-114115000D01*
X80131797Y-114216621D01*
X79698691Y-114506012D01*
X79495000Y-114810858D01*
X79495000Y-107412976D01*
X80072975Y-106835000D01*
X84961230Y-106835000D01*
X84779996Y-107015918D01*
X84515301Y-107653373D01*
X84514699Y-108343599D01*
X84778281Y-108981515D01*
X85265918Y-109470004D01*
X85494542Y-109564937D01*
X86250000Y-110320395D01*
X87005139Y-109565256D01*
X87231515Y-109471719D01*
X87668997Y-109035000D01*
X116411288Y-109035000D01*
X139065235Y-131688946D01*
X139064699Y-132303599D01*
X139328281Y-132941515D01*
X139815918Y-133430004D01*
X140453373Y-133694699D01*
X141143599Y-133695301D01*
X141781515Y-133431719D01*
X142070075Y-133143662D01*
X142355918Y-133430004D01*
X142993373Y-133694699D01*
X143683599Y-133695301D01*
X144321515Y-133431719D01*
X144610075Y-133143662D01*
X144895918Y-133430004D01*
X145533373Y-133694699D01*
X146223599Y-133695301D01*
X146861515Y-133431719D01*
X147150075Y-133143662D01*
X147435918Y-133430004D01*
X148073373Y-133694699D01*
X148763599Y-133695301D01*
X149401515Y-133431719D01*
X149690075Y-133143662D01*
X149975918Y-133430004D01*
X150613373Y-133694699D01*
X151303599Y-133695301D01*
X151941515Y-133431719D01*
X152230075Y-133143662D01*
X152515918Y-133430004D01*
X153153373Y-133694699D01*
X153843599Y-133695301D01*
X154481515Y-133431719D01*
X154770075Y-133143662D01*
X155055918Y-133430004D01*
X155693373Y-133694699D01*
X156383599Y-133695301D01*
X157021515Y-133431719D01*
X157310075Y-133143662D01*
X157595918Y-133430004D01*
X158233373Y-133694699D01*
X158923599Y-133695301D01*
X159561515Y-133431719D01*
X160050004Y-132944082D01*
X160314699Y-132306627D01*
X160315301Y-131616401D01*
X160051719Y-130978485D01*
X159564082Y-130489996D01*
X158926627Y-130225301D01*
X158236401Y-130224699D01*
X157598485Y-130488281D01*
X157309925Y-130776338D01*
X157024082Y-130489996D01*
X156386627Y-130225301D01*
X155696401Y-130224699D01*
X155058485Y-130488281D01*
X154769925Y-130776338D01*
X154484082Y-130489996D01*
X153846627Y-130225301D01*
X153156401Y-130224699D01*
X152518485Y-130488281D01*
X152229925Y-130776338D01*
X151944082Y-130489996D01*
X151306627Y-130225301D01*
X150616401Y-130224699D01*
X149978485Y-130488281D01*
X149689925Y-130776338D01*
X149404082Y-130489996D01*
X148766627Y-130225301D01*
X148076401Y-130224699D01*
X147438485Y-130488281D01*
X147149925Y-130776338D01*
X146864082Y-130489996D01*
X146226627Y-130225301D01*
X145536401Y-130224699D01*
X144898485Y-130488281D01*
X144609925Y-130776338D01*
X144324082Y-130489996D01*
X143686627Y-130225301D01*
X143628962Y-130225251D01*
X141137041Y-127733329D01*
X159827284Y-127733329D01*
X159838020Y-127793550D01*
X160086210Y-128254185D01*
X160491785Y-128584778D01*
X160993000Y-128735000D01*
X161563000Y-128735000D01*
X161563000Y-127527000D01*
X161817000Y-127527000D01*
X161817000Y-128735000D01*
X162387000Y-128735000D01*
X162888215Y-128584778D01*
X163293790Y-128254185D01*
X163541980Y-127793550D01*
X163552716Y-127733329D01*
X163429374Y-127527000D01*
X161817000Y-127527000D01*
X161563000Y-127527000D01*
X159950626Y-127527000D01*
X159827284Y-127733329D01*
X141137041Y-127733329D01*
X140470383Y-127066671D01*
X159827284Y-127066671D01*
X159950626Y-127273000D01*
X161563000Y-127273000D01*
X161563000Y-126065000D01*
X161817000Y-126065000D01*
X161817000Y-127273000D01*
X163429374Y-127273000D01*
X163552716Y-127066671D01*
X163541980Y-127006450D01*
X163293790Y-126545815D01*
X162888215Y-126215222D01*
X162387000Y-126065000D01*
X161817000Y-126065000D01*
X161563000Y-126065000D01*
X160993000Y-126065000D01*
X160491785Y-126215222D01*
X160086210Y-126545815D01*
X159838020Y-127006450D01*
X159827284Y-127066671D01*
X140470383Y-127066671D01*
X115403712Y-102000000D01*
X151315000Y-102000000D01*
X151315000Y-111000000D01*
X151367143Y-111262138D01*
X151515632Y-111484368D01*
X151737862Y-111632857D01*
X152000000Y-111685000D01*
X158000000Y-111685000D01*
X158262138Y-111632857D01*
X158484368Y-111484368D01*
X158632857Y-111262138D01*
X158685000Y-111000000D01*
X158685000Y-102000000D01*
X158632857Y-101737862D01*
X158484368Y-101515632D01*
X158262138Y-101367143D01*
X158000000Y-101315000D01*
X152000000Y-101315000D01*
X151737862Y-101367143D01*
X151515632Y-101515632D01*
X151367143Y-101737862D01*
X151315000Y-102000000D01*
X115403712Y-102000000D01*
X101751856Y-88348144D01*
X101416077Y-88123785D01*
X101020000Y-88044999D01*
X101019995Y-88045000D01*
X81335005Y-88045000D01*
X81335000Y-88044999D01*
X80938922Y-88123785D01*
X80860177Y-88176401D01*
X80603144Y-88348144D01*
X80603142Y-88348147D01*
X77268144Y-91683144D01*
X77043785Y-92018923D01*
X76964999Y-92415000D01*
X76965000Y-92415005D01*
X76965000Y-98331673D01*
X76529996Y-98765918D01*
X76435063Y-98994542D01*
X75679605Y-99750000D01*
X75320395Y-99750000D01*
X74275132Y-98704737D01*
X73997901Y-98815641D01*
X73754677Y-99461593D01*
X68685000Y-99461593D01*
X68685000Y-98525132D01*
X74454737Y-98525132D01*
X75500000Y-99570395D01*
X76545263Y-98525132D01*
X76434359Y-98247901D01*
X75788407Y-98004677D01*
X75098547Y-98027164D01*
X74565641Y-98247901D01*
X74454737Y-98525132D01*
X68685000Y-98525132D01*
X68685000Y-73942619D01*
X70764613Y-73942619D01*
X71104155Y-74764372D01*
X71732321Y-75393636D01*
X72553481Y-75734611D01*
X73442619Y-75735387D01*
X74264372Y-75395845D01*
X74842626Y-74818599D01*
X96184699Y-74818599D01*
X96448281Y-75456515D01*
X96885000Y-75893997D01*
X96885000Y-78359995D01*
X96884999Y-78360000D01*
X96963785Y-78756077D01*
X97188144Y-79091856D01*
X109178142Y-91081853D01*
X109178144Y-91081856D01*
X109390764Y-91223923D01*
X109513923Y-91306215D01*
X109910000Y-91385001D01*
X109910005Y-91385000D01*
X169709995Y-91385000D01*
X169710000Y-91385001D01*
X170106077Y-91306215D01*
X170441856Y-91081856D01*
X176088946Y-85434765D01*
X176703599Y-85435301D01*
X177341515Y-85171719D01*
X177830004Y-84684082D01*
X178094699Y-84046627D01*
X178094701Y-84043599D01*
X182244699Y-84043599D01*
X182508281Y-84681515D01*
X182796338Y-84970075D01*
X182509996Y-85255918D01*
X182245301Y-85893373D01*
X182244699Y-86583599D01*
X182508281Y-87221515D01*
X182796338Y-87510075D01*
X182509996Y-87795918D01*
X182245301Y-88433373D01*
X182244699Y-89123599D01*
X182508281Y-89761515D01*
X182796338Y-90050075D01*
X182509996Y-90335918D01*
X182245301Y-90973373D01*
X182244699Y-91663599D01*
X182508281Y-92301515D01*
X182796338Y-92590075D01*
X182509996Y-92875918D01*
X182245301Y-93513373D01*
X182244699Y-94203599D01*
X182508281Y-94841515D01*
X182796338Y-95130075D01*
X182509996Y-95415918D01*
X182245301Y-96053373D01*
X182244699Y-96743599D01*
X182508281Y-97381515D01*
X182796338Y-97670075D01*
X182509996Y-97955918D01*
X182245301Y-98593373D01*
X182244699Y-99283599D01*
X182508281Y-99921515D01*
X182796338Y-100210075D01*
X182509996Y-100495918D01*
X182245301Y-101133373D01*
X182244699Y-101823599D01*
X182508281Y-102461515D01*
X182796338Y-102750075D01*
X182509996Y-103035918D01*
X182245301Y-103673373D01*
X182244699Y-104363599D01*
X182508281Y-105001515D01*
X182796338Y-105290075D01*
X182509996Y-105575918D01*
X182245301Y-106213373D01*
X182244699Y-106903599D01*
X182508281Y-107541515D01*
X182796338Y-107830075D01*
X182509996Y-108115918D01*
X182245301Y-108753373D01*
X182244699Y-109443599D01*
X182508281Y-110081515D01*
X182796338Y-110370075D01*
X182509996Y-110655918D01*
X182245301Y-111293373D01*
X182244699Y-111983599D01*
X182508281Y-112621515D01*
X182796338Y-112910075D01*
X182509996Y-113195918D01*
X182245301Y-113833373D01*
X182244699Y-114523599D01*
X182508281Y-115161515D01*
X182796338Y-115450075D01*
X182509996Y-115735918D01*
X182245301Y-116373373D01*
X182244699Y-117063599D01*
X182508281Y-117701515D01*
X182796338Y-117990075D01*
X182509996Y-118275918D01*
X182245301Y-118913373D01*
X182244699Y-119603599D01*
X182508281Y-120241515D01*
X182796338Y-120530075D01*
X182509996Y-120815918D01*
X182245301Y-121453373D01*
X182244699Y-122143599D01*
X182508281Y-122781515D01*
X182796338Y-123070075D01*
X182509996Y-123355918D01*
X182245301Y-123993373D01*
X182244699Y-124683599D01*
X182508281Y-125321515D01*
X182995918Y-125810004D01*
X183156139Y-125876534D01*
X183980000Y-126700395D01*
X184803305Y-125877090D01*
X184961515Y-125811719D01*
X185250075Y-125523662D01*
X185535918Y-125810004D01*
X185696139Y-125876534D01*
X186520000Y-126700395D01*
X187343305Y-125877090D01*
X187501515Y-125811719D01*
X187990004Y-125324082D01*
X188254699Y-124686627D01*
X188255301Y-123996401D01*
X187991719Y-123358485D01*
X187703662Y-123069925D01*
X187990004Y-122784082D01*
X188254699Y-122146627D01*
X188254710Y-122133329D01*
X192062284Y-122133329D01*
X192073020Y-122193550D01*
X192321210Y-122654185D01*
X192726785Y-122984778D01*
X193228000Y-123135000D01*
X193798000Y-123135000D01*
X193798000Y-121927000D01*
X194052000Y-121927000D01*
X194052000Y-123135000D01*
X194622000Y-123135000D01*
X195123215Y-122984778D01*
X195528790Y-122654185D01*
X195776980Y-122193550D01*
X195787716Y-122133329D01*
X195664374Y-121927000D01*
X194052000Y-121927000D01*
X193798000Y-121927000D01*
X192185626Y-121927000D01*
X192062284Y-122133329D01*
X188254710Y-122133329D01*
X188255301Y-121456401D01*
X187991719Y-120818485D01*
X187703662Y-120529925D01*
X187990004Y-120244082D01*
X188254699Y-119606627D01*
X188255301Y-118916401D01*
X187991719Y-118278485D01*
X187703662Y-117989925D01*
X187990004Y-117704082D01*
X188254699Y-117066627D01*
X188255301Y-116376401D01*
X187991719Y-115738485D01*
X187703662Y-115449925D01*
X187990004Y-115164082D01*
X188254699Y-114526627D01*
X188255301Y-113836401D01*
X187991719Y-113198485D01*
X187703662Y-112909925D01*
X187990004Y-112624082D01*
X188254699Y-111986627D01*
X188255301Y-111296401D01*
X187991719Y-110658485D01*
X187703662Y-110369925D01*
X187990004Y-110084082D01*
X188254699Y-109446627D01*
X188255301Y-108756401D01*
X187991719Y-108118485D01*
X187703662Y-107829925D01*
X187990004Y-107544082D01*
X188254699Y-106906627D01*
X188255301Y-106216401D01*
X187991719Y-105578485D01*
X187703662Y-105289925D01*
X187990004Y-105004082D01*
X188254699Y-104366627D01*
X188255301Y-103676401D01*
X187991719Y-103038485D01*
X187703662Y-102749925D01*
X187990004Y-102464082D01*
X188254699Y-101826627D01*
X188255001Y-101480000D01*
X191982679Y-101480000D01*
X192084300Y-101990882D01*
X192373691Y-102423988D01*
X192806797Y-102713379D01*
X192990903Y-102750000D01*
X192806797Y-102786621D01*
X192373691Y-103076012D01*
X192084300Y-103509118D01*
X191982679Y-104020000D01*
X192084300Y-104530882D01*
X192373691Y-104963988D01*
X192806797Y-105253379D01*
X192990903Y-105290000D01*
X192806797Y-105326621D01*
X192373691Y-105616012D01*
X192084300Y-106049118D01*
X191982679Y-106560000D01*
X192084300Y-107070882D01*
X192373691Y-107503988D01*
X192806797Y-107793379D01*
X192990903Y-107830000D01*
X192806797Y-107866621D01*
X192373691Y-108156012D01*
X192084300Y-108589118D01*
X191982679Y-109100000D01*
X192084300Y-109610882D01*
X192373691Y-110043988D01*
X192806797Y-110333379D01*
X192990903Y-110370000D01*
X192806797Y-110406621D01*
X192373691Y-110696012D01*
X192084300Y-111129118D01*
X191982679Y-111640000D01*
X192084300Y-112150882D01*
X192373691Y-112583988D01*
X192806797Y-112873379D01*
X192990903Y-112910000D01*
X192806797Y-112946621D01*
X192373691Y-113236012D01*
X192084300Y-113669118D01*
X191982679Y-114180000D01*
X192084300Y-114690882D01*
X192373691Y-115123988D01*
X192806797Y-115413379D01*
X192990903Y-115450000D01*
X192806797Y-115486621D01*
X192373691Y-115776012D01*
X192084300Y-116209118D01*
X191982679Y-116720000D01*
X192084300Y-117230882D01*
X192373691Y-117663988D01*
X192806797Y-117953379D01*
X192990903Y-117990000D01*
X192806797Y-118026621D01*
X192373691Y-118316012D01*
X192084300Y-118749118D01*
X191982679Y-119260000D01*
X192084300Y-119770882D01*
X192373691Y-120203988D01*
X192806797Y-120493379D01*
X193003060Y-120532418D01*
X192726785Y-120615222D01*
X192321210Y-120945815D01*
X192073020Y-121406450D01*
X192062284Y-121466671D01*
X192185626Y-121673000D01*
X193798000Y-121673000D01*
X193798000Y-121653000D01*
X194052000Y-121653000D01*
X194052000Y-121673000D01*
X195664374Y-121673000D01*
X195787716Y-121466671D01*
X195776980Y-121406450D01*
X195528790Y-120945815D01*
X195123215Y-120615222D01*
X194846940Y-120532418D01*
X195043203Y-120493379D01*
X195476309Y-120203988D01*
X195765700Y-119770882D01*
X195867321Y-119260000D01*
X195765700Y-118749118D01*
X195476309Y-118316012D01*
X195043203Y-118026621D01*
X194859097Y-117990000D01*
X195043203Y-117953379D01*
X195476309Y-117663988D01*
X195765700Y-117230882D01*
X195867321Y-116720000D01*
X195765700Y-116209118D01*
X195476309Y-115776012D01*
X195043203Y-115486621D01*
X194859097Y-115450000D01*
X195043203Y-115413379D01*
X195476309Y-115123988D01*
X195765700Y-114690882D01*
X195867321Y-114180000D01*
X195765700Y-113669118D01*
X195476309Y-113236012D01*
X195043203Y-112946621D01*
X194859097Y-112910000D01*
X195043203Y-112873379D01*
X195476309Y-112583988D01*
X195765700Y-112150882D01*
X195867321Y-111640000D01*
X195765700Y-111129118D01*
X195476309Y-110696012D01*
X195043203Y-110406621D01*
X194859097Y-110370000D01*
X195043203Y-110333379D01*
X195476309Y-110043988D01*
X195765700Y-109610882D01*
X195867321Y-109100000D01*
X195765700Y-108589118D01*
X195476309Y-108156012D01*
X195043203Y-107866621D01*
X194859097Y-107830000D01*
X195043203Y-107793379D01*
X195476309Y-107503988D01*
X195765700Y-107070882D01*
X195867321Y-106560000D01*
X195765700Y-106049118D01*
X195476309Y-105616012D01*
X195043203Y-105326621D01*
X194859097Y-105290000D01*
X195043203Y-105253379D01*
X195476309Y-104963988D01*
X195765700Y-104530882D01*
X195867321Y-104020000D01*
X195765700Y-103509118D01*
X195476309Y-103076012D01*
X195043203Y-102786621D01*
X194859097Y-102750000D01*
X195043203Y-102713379D01*
X195476309Y-102423988D01*
X195765700Y-101990882D01*
X195867321Y-101480000D01*
X195765700Y-100969118D01*
X195476309Y-100536012D01*
X195043203Y-100246621D01*
X194532321Y-100145000D01*
X193317679Y-100145000D01*
X192806797Y-100246621D01*
X192373691Y-100536012D01*
X192084300Y-100969118D01*
X191982679Y-101480000D01*
X188255001Y-101480000D01*
X188255301Y-101136401D01*
X187991719Y-100498485D01*
X187703662Y-100209925D01*
X187990004Y-99924082D01*
X188254699Y-99286627D01*
X188255301Y-98596401D01*
X187991719Y-97958485D01*
X187958161Y-97924868D01*
X194589737Y-97924868D01*
X194700641Y-98202099D01*
X195346593Y-98445323D01*
X196036453Y-98422836D01*
X196569359Y-98202099D01*
X196680263Y-97924868D01*
X195635000Y-96879605D01*
X194589737Y-97924868D01*
X187958161Y-97924868D01*
X187703662Y-97669925D01*
X187990004Y-97384082D01*
X188254699Y-96746627D01*
X188254991Y-96411593D01*
X193889677Y-96411593D01*
X193912164Y-97101453D01*
X194132901Y-97634359D01*
X194410132Y-97745263D01*
X195455395Y-96700000D01*
X194410132Y-95654737D01*
X194132901Y-95765641D01*
X193889677Y-96411593D01*
X188254991Y-96411593D01*
X188255301Y-96056401D01*
X187991719Y-95418485D01*
X187703662Y-95129925D01*
X187990004Y-94844082D01*
X188254699Y-94206627D01*
X188255301Y-93516401D01*
X187991719Y-92878485D01*
X187703662Y-92589925D01*
X187990004Y-92304082D01*
X188254699Y-91666627D01*
X188255301Y-90976401D01*
X187991719Y-90338485D01*
X187703662Y-90049925D01*
X187990004Y-89764082D01*
X188254699Y-89126627D01*
X188255301Y-88436401D01*
X187991719Y-87798485D01*
X187703662Y-87509925D01*
X187990004Y-87224082D01*
X188254699Y-86586627D01*
X188255028Y-86208991D01*
X189019735Y-86208991D01*
X189252932Y-86773371D01*
X189654182Y-87175323D01*
X189254449Y-87574357D01*
X189020267Y-88138330D01*
X189019735Y-88748991D01*
X189252932Y-89313371D01*
X189684357Y-89745551D01*
X190248330Y-89979733D01*
X190858991Y-89980265D01*
X191423371Y-89747068D01*
X191615775Y-89555000D01*
X194216673Y-89555000D01*
X194650918Y-89990004D01*
X194843255Y-90069869D01*
X194653485Y-90148281D01*
X194216003Y-90585000D01*
X191690730Y-90585000D01*
X191425643Y-90319449D01*
X190861670Y-90085267D01*
X190251009Y-90084735D01*
X189686629Y-90317932D01*
X189254449Y-90749357D01*
X189020267Y-91313330D01*
X189019735Y-91923991D01*
X189252932Y-92488371D01*
X189654182Y-92890323D01*
X189254449Y-93289357D01*
X189020267Y-93853330D01*
X189019735Y-94463991D01*
X189252932Y-95028371D01*
X189684357Y-95460551D01*
X190248330Y-95694733D01*
X190858991Y-95695265D01*
X191423371Y-95462068D01*
X191690906Y-95195000D01*
X194216673Y-95195000D01*
X194650918Y-95630004D01*
X194811139Y-95696534D01*
X195635000Y-96520395D01*
X196458305Y-95697090D01*
X196616515Y-95631719D01*
X197105004Y-95144082D01*
X197174533Y-94976638D01*
X197446155Y-95248735D01*
X197883182Y-95430205D01*
X197448057Y-95609995D01*
X197182453Y-95875135D01*
X197137099Y-95765641D01*
X196859868Y-95654737D01*
X195814605Y-96700000D01*
X196859868Y-97745263D01*
X197137099Y-97634359D01*
X197179538Y-97521651D01*
X197446155Y-97788735D01*
X197918276Y-97984777D01*
X198429481Y-97985223D01*
X198901943Y-97790005D01*
X199263735Y-97428845D01*
X199459777Y-96956724D01*
X199460223Y-96445519D01*
X199265005Y-95973057D01*
X198903845Y-95611265D01*
X198466818Y-95429795D01*
X198901943Y-95250005D01*
X199263735Y-94888845D01*
X199459777Y-94416724D01*
X199460223Y-93905519D01*
X199265005Y-93433057D01*
X198903845Y-93071265D01*
X198466818Y-92889795D01*
X198901943Y-92710005D01*
X199263735Y-92348845D01*
X199459777Y-91876724D01*
X199460223Y-91365519D01*
X199265005Y-90893057D01*
X198903845Y-90531265D01*
X198431724Y-90335223D01*
X197920519Y-90334777D01*
X197448057Y-90529995D01*
X197174660Y-90802914D01*
X197106719Y-90638485D01*
X196619082Y-90149996D01*
X196426745Y-90070131D01*
X196616515Y-89991719D01*
X197105004Y-89504082D01*
X197174533Y-89336638D01*
X197446155Y-89608735D01*
X197918276Y-89804777D01*
X198429481Y-89805223D01*
X198901943Y-89610005D01*
X199263735Y-89248845D01*
X199459777Y-88776724D01*
X199460223Y-88265519D01*
X199265005Y-87793057D01*
X198903845Y-87431265D01*
X198466818Y-87249795D01*
X198901943Y-87070005D01*
X199263735Y-86708845D01*
X199459777Y-86236724D01*
X199460223Y-85725519D01*
X199265005Y-85253057D01*
X198903845Y-84891265D01*
X198466818Y-84709795D01*
X198901943Y-84530005D01*
X199263735Y-84168845D01*
X199459777Y-83696724D01*
X199460223Y-83185519D01*
X199265005Y-82713057D01*
X198903845Y-82351265D01*
X198431724Y-82155223D01*
X197920519Y-82154777D01*
X197448057Y-82349995D01*
X197174660Y-82622914D01*
X197106719Y-82458485D01*
X196619082Y-81969996D01*
X195981627Y-81705301D01*
X195291401Y-81704699D01*
X194653485Y-81968281D01*
X194164996Y-82455918D01*
X193900301Y-83093373D01*
X193899699Y-83783599D01*
X194163281Y-84421515D01*
X194451338Y-84710075D01*
X194216003Y-84945000D01*
X191765599Y-84945000D01*
X191425643Y-84604449D01*
X190861670Y-84370267D01*
X190251009Y-84369735D01*
X189686629Y-84602932D01*
X189254449Y-85034357D01*
X189020267Y-85598330D01*
X189019735Y-86208991D01*
X188255028Y-86208991D01*
X188255301Y-85896401D01*
X187991719Y-85258485D01*
X187703662Y-84969925D01*
X187990004Y-84684082D01*
X188254699Y-84046627D01*
X188255301Y-83356401D01*
X187991719Y-82718485D01*
X187504082Y-82229996D01*
X186866627Y-81965301D01*
X186176401Y-81964699D01*
X185538485Y-82228281D01*
X185249925Y-82516338D01*
X184964082Y-82229996D01*
X184326627Y-81965301D01*
X183636401Y-81964699D01*
X182998485Y-82228281D01*
X182509996Y-82715918D01*
X182245301Y-83353373D01*
X182244699Y-84043599D01*
X178094701Y-84043599D01*
X178095301Y-83356401D01*
X177831719Y-82718485D01*
X177344082Y-82229996D01*
X176706627Y-81965301D01*
X176016401Y-81964699D01*
X175378485Y-82228281D01*
X175089925Y-82516338D01*
X174804082Y-82229996D01*
X174166627Y-81965301D01*
X173476401Y-81964699D01*
X172838485Y-82228281D01*
X172549925Y-82516338D01*
X172264082Y-82229996D01*
X171626627Y-81965301D01*
X170936401Y-81964699D01*
X170298485Y-82228281D01*
X170009925Y-82516338D01*
X169724082Y-82229996D01*
X169086627Y-81965301D01*
X168396401Y-81964699D01*
X167758485Y-82228281D01*
X167469925Y-82516338D01*
X167184082Y-82229996D01*
X166546627Y-81965301D01*
X165856401Y-81964699D01*
X165218485Y-82228281D01*
X164929925Y-82516338D01*
X164644082Y-82229996D01*
X164006627Y-81965301D01*
X163316401Y-81964699D01*
X162678485Y-82228281D01*
X162389925Y-82516338D01*
X162104082Y-82229996D01*
X161466627Y-81965301D01*
X160776401Y-81964699D01*
X160138485Y-82228281D01*
X159849925Y-82516338D01*
X159564082Y-82229996D01*
X158926627Y-81965301D01*
X158236401Y-81964699D01*
X157598485Y-82228281D01*
X157109996Y-82715918D01*
X156845301Y-83353373D01*
X156844699Y-84043599D01*
X157108281Y-84681515D01*
X157595918Y-85170004D01*
X158233373Y-85434699D01*
X158923599Y-85435301D01*
X159561515Y-85171719D01*
X159850075Y-84883662D01*
X160135918Y-85170004D01*
X160773373Y-85434699D01*
X161463599Y-85435301D01*
X162101515Y-85171719D01*
X162390075Y-84883662D01*
X162675918Y-85170004D01*
X163313373Y-85434699D01*
X164003599Y-85435301D01*
X164641515Y-85171719D01*
X164930075Y-84883662D01*
X165215918Y-85170004D01*
X165853373Y-85434699D01*
X166543599Y-85435301D01*
X167181515Y-85171719D01*
X167470075Y-84883662D01*
X167755918Y-85170004D01*
X168393373Y-85434699D01*
X169083599Y-85435301D01*
X169721515Y-85171719D01*
X170010075Y-84883662D01*
X170295918Y-85170004D01*
X170713068Y-85343220D01*
X168646288Y-87410000D01*
X110338711Y-87410000D01*
X108302369Y-85373657D01*
X108449373Y-85434699D01*
X109139599Y-85435301D01*
X109777515Y-85171719D01*
X110066075Y-84883662D01*
X110351918Y-85170004D01*
X110989373Y-85434699D01*
X111679599Y-85435301D01*
X112317515Y-85171719D01*
X112606075Y-84883662D01*
X112891918Y-85170004D01*
X113529373Y-85434699D01*
X114219599Y-85435301D01*
X114857515Y-85171719D01*
X115104797Y-84924868D01*
X115370737Y-84924868D01*
X115481641Y-85202099D01*
X116127593Y-85445323D01*
X116817453Y-85422836D01*
X117350359Y-85202099D01*
X117461263Y-84924868D01*
X116416000Y-83879605D01*
X115370737Y-84924868D01*
X115104797Y-84924868D01*
X115346004Y-84684082D01*
X115412534Y-84523861D01*
X116236395Y-83700000D01*
X116595605Y-83700000D01*
X117418910Y-84523305D01*
X117484281Y-84681515D01*
X117971918Y-85170004D01*
X118609373Y-85434699D01*
X119299599Y-85435301D01*
X119937515Y-85171719D01*
X120226075Y-84883662D01*
X120511918Y-85170004D01*
X121149373Y-85434699D01*
X121839599Y-85435301D01*
X122477515Y-85171719D01*
X122766075Y-84883662D01*
X123051918Y-85170004D01*
X123689373Y-85434699D01*
X123851128Y-85434840D01*
X125053142Y-86636853D01*
X125053144Y-86636856D01*
X125260855Y-86775643D01*
X125388923Y-86861215D01*
X125785000Y-86940001D01*
X125785005Y-86940000D01*
X146214995Y-86940000D01*
X146215000Y-86940001D01*
X146611077Y-86861215D01*
X146946856Y-86636856D01*
X148148947Y-85434765D01*
X148763599Y-85435301D01*
X149401515Y-85171719D01*
X149690075Y-84883662D01*
X149975918Y-85170004D01*
X150613373Y-85434699D01*
X151303599Y-85435301D01*
X151941515Y-85171719D01*
X152230075Y-84883662D01*
X152515918Y-85170004D01*
X153153373Y-85434699D01*
X153843599Y-85435301D01*
X154481515Y-85171719D01*
X154970004Y-84684082D01*
X155234699Y-84046627D01*
X155235301Y-83356401D01*
X154971719Y-82718485D01*
X154484082Y-82229996D01*
X153846627Y-81965301D01*
X153156401Y-81964699D01*
X152518485Y-82228281D01*
X152229925Y-82516338D01*
X151944082Y-82229996D01*
X151306627Y-81965301D01*
X150616401Y-81964699D01*
X149978485Y-82228281D01*
X149689925Y-82516338D01*
X149404082Y-82229996D01*
X148766627Y-81965301D01*
X148076401Y-81964699D01*
X147438485Y-82228281D01*
X147149925Y-82516338D01*
X146864082Y-82229996D01*
X146226627Y-81965301D01*
X145536401Y-81964699D01*
X144898485Y-82228281D01*
X144609925Y-82516338D01*
X144324082Y-82229996D01*
X143686627Y-81965301D01*
X142996401Y-81964699D01*
X142358485Y-82228281D01*
X142069925Y-82516338D01*
X141835000Y-82281003D01*
X141835000Y-78285000D01*
X184577679Y-78285000D01*
X184679300Y-78795882D01*
X184968691Y-79228988D01*
X185401797Y-79518379D01*
X185912679Y-79620000D01*
X187127321Y-79620000D01*
X187638203Y-79518379D01*
X188071309Y-79228988D01*
X188360700Y-78795882D01*
X188462321Y-78285000D01*
X188360700Y-77774118D01*
X188071309Y-77341012D01*
X187638203Y-77051621D01*
X187127321Y-76950000D01*
X185912679Y-76950000D01*
X185401797Y-77051621D01*
X184968691Y-77341012D01*
X184679300Y-77774118D01*
X184577679Y-78285000D01*
X141835000Y-78285000D01*
X141835000Y-77798327D01*
X142270004Y-77364082D01*
X142534699Y-76726627D01*
X142535301Y-76036401D01*
X142271719Y-75398485D01*
X141784082Y-74909996D01*
X141616638Y-74840467D01*
X141888735Y-74568845D01*
X142084777Y-74096724D01*
X142084911Y-73942619D01*
X205764613Y-73942619D01*
X206104155Y-74764372D01*
X206732321Y-75393636D01*
X207553481Y-75734611D01*
X208442619Y-75735387D01*
X209264372Y-75395845D01*
X209893636Y-74767679D01*
X210234611Y-73946519D01*
X210235387Y-73057381D01*
X209895845Y-72235628D01*
X209267679Y-71606364D01*
X208446519Y-71265389D01*
X207557381Y-71264613D01*
X206735628Y-71604155D01*
X206106364Y-72232321D01*
X205765389Y-73053481D01*
X205764613Y-73942619D01*
X142084911Y-73942619D01*
X142085223Y-73585519D01*
X141890005Y-73113057D01*
X141528845Y-72751265D01*
X141056724Y-72555223D01*
X140545519Y-72554777D01*
X140073057Y-72749995D01*
X139711265Y-73111155D01*
X139529795Y-73548182D01*
X139350005Y-73113057D01*
X138988845Y-72751265D01*
X138516724Y-72555223D01*
X138005519Y-72554777D01*
X137533057Y-72749995D01*
X137171265Y-73111155D01*
X136989795Y-73548182D01*
X136810005Y-73113057D01*
X136448845Y-72751265D01*
X135976724Y-72555223D01*
X135465519Y-72554777D01*
X134993057Y-72749995D01*
X134631265Y-73111155D01*
X134435223Y-73583276D01*
X134434777Y-74094481D01*
X134629995Y-74566943D01*
X134902914Y-74840340D01*
X134738485Y-74908281D01*
X134249996Y-75395918D01*
X133985301Y-76033373D01*
X133984699Y-76723599D01*
X134248281Y-77361515D01*
X134685000Y-77798997D01*
X134685000Y-82281673D01*
X134249996Y-82715918D01*
X133985301Y-83353373D01*
X133984699Y-84043599D01*
X134248281Y-84681515D01*
X134436437Y-84870000D01*
X132939761Y-84870000D01*
X133126004Y-84684082D01*
X133390699Y-84046627D01*
X133391301Y-83356401D01*
X133127719Y-82718485D01*
X132640082Y-82229996D01*
X132002627Y-81965301D01*
X131312401Y-81964699D01*
X130674485Y-82228281D01*
X130385925Y-82516338D01*
X130100082Y-82229996D01*
X129462627Y-81965301D01*
X128772401Y-81964699D01*
X128134485Y-82228281D01*
X127845925Y-82516338D01*
X127560082Y-82229996D01*
X126922627Y-81965301D01*
X126232401Y-81964699D01*
X125594485Y-82228281D01*
X125305925Y-82516338D01*
X125020082Y-82229996D01*
X124382627Y-81965301D01*
X123692401Y-81964699D01*
X123054485Y-82228281D01*
X122765925Y-82516338D01*
X122480082Y-82229996D01*
X121842627Y-81965301D01*
X121152401Y-81964699D01*
X120514485Y-82228281D01*
X120225925Y-82516338D01*
X119991000Y-82281003D01*
X119991000Y-80055099D01*
X120189379Y-79758203D01*
X120291000Y-79247321D01*
X120291000Y-78032679D01*
X120189379Y-77521797D01*
X119899988Y-77088691D01*
X119466882Y-76799300D01*
X118956000Y-76697679D01*
X118445118Y-76799300D01*
X118012012Y-77088691D01*
X117722621Y-77521797D01*
X117621000Y-78032679D01*
X117621000Y-79247321D01*
X117722621Y-79758203D01*
X117921000Y-80055099D01*
X117921000Y-82281673D01*
X117485996Y-82715918D01*
X117419466Y-82876139D01*
X116595605Y-83700000D01*
X116236395Y-83700000D01*
X115413090Y-82876695D01*
X115347719Y-82718485D01*
X115104791Y-82475132D01*
X115370737Y-82475132D01*
X116416000Y-83520395D01*
X117461263Y-82475132D01*
X117350359Y-82197901D01*
X116704407Y-81954677D01*
X116014547Y-81977164D01*
X115481641Y-82197901D01*
X115370737Y-82475132D01*
X115104791Y-82475132D01*
X114860082Y-82229996D01*
X114222627Y-81965301D01*
X113532401Y-81964699D01*
X112894485Y-82228281D01*
X112605925Y-82516338D01*
X112371000Y-82281003D01*
X112371000Y-79711005D01*
X112371001Y-79711000D01*
X112292215Y-79314922D01*
X112143167Y-79091856D01*
X112067856Y-78979144D01*
X112067853Y-78979142D01*
X111855712Y-78767000D01*
X112541000Y-78767000D01*
X112541000Y-79337000D01*
X112691222Y-79838215D01*
X113021815Y-80243790D01*
X113482450Y-80491980D01*
X113542671Y-80502716D01*
X113749000Y-80379374D01*
X113749000Y-78767000D01*
X114003000Y-78767000D01*
X114003000Y-80379374D01*
X114209329Y-80502716D01*
X114269550Y-80491980D01*
X114730185Y-80243790D01*
X115060778Y-79838215D01*
X115211000Y-79337000D01*
X115211000Y-78767000D01*
X114003000Y-78767000D01*
X113749000Y-78767000D01*
X112541000Y-78767000D01*
X111855712Y-78767000D01*
X111031712Y-77943000D01*
X112541000Y-77943000D01*
X112541000Y-78513000D01*
X113749000Y-78513000D01*
X113749000Y-76900626D01*
X114003000Y-76900626D01*
X114003000Y-78513000D01*
X115211000Y-78513000D01*
X115211000Y-77943000D01*
X115060778Y-77441785D01*
X114730185Y-77036210D01*
X114269550Y-76788020D01*
X114209329Y-76777284D01*
X114003000Y-76900626D01*
X113749000Y-76900626D01*
X113542671Y-76777284D01*
X113482450Y-76788020D01*
X113021815Y-77036210D01*
X112691222Y-77441785D01*
X112541000Y-77943000D01*
X111031712Y-77943000D01*
X107834765Y-74746053D01*
X107835301Y-74131401D01*
X107732993Y-73883795D01*
X112240716Y-73883795D01*
X112489106Y-74484943D01*
X112948637Y-74945278D01*
X113549352Y-75194716D01*
X114199795Y-75195284D01*
X114800943Y-74946894D01*
X115261278Y-74487363D01*
X115510716Y-73886648D01*
X115510718Y-73883795D01*
X117320716Y-73883795D01*
X117569106Y-74484943D01*
X118028637Y-74945278D01*
X118629352Y-75194716D01*
X119279795Y-75195284D01*
X119880943Y-74946894D01*
X120341278Y-74487363D01*
X120590716Y-73886648D01*
X120591284Y-73236205D01*
X120342894Y-72635057D01*
X119883363Y-72174722D01*
X119282648Y-71925284D01*
X118632205Y-71924716D01*
X118031057Y-72173106D01*
X117570722Y-72632637D01*
X117321284Y-73233352D01*
X117320716Y-73883795D01*
X115510718Y-73883795D01*
X115511284Y-73236205D01*
X115262894Y-72635057D01*
X114803363Y-72174722D01*
X114202648Y-71925284D01*
X113552205Y-71924716D01*
X112951057Y-72173106D01*
X112490722Y-72632637D01*
X112241284Y-73233352D01*
X112240716Y-73883795D01*
X107732993Y-73883795D01*
X107571719Y-73493485D01*
X107084082Y-73004996D01*
X106916638Y-72935467D01*
X107188735Y-72663845D01*
X107384777Y-72191724D01*
X107385223Y-71680519D01*
X107190005Y-71208057D01*
X106828845Y-70846265D01*
X106356724Y-70650223D01*
X105845519Y-70649777D01*
X105373057Y-70844995D01*
X105011265Y-71206155D01*
X104829795Y-71643182D01*
X104650005Y-71208057D01*
X104288845Y-70846265D01*
X103816724Y-70650223D01*
X103305519Y-70649777D01*
X102833057Y-70844995D01*
X102471265Y-71206155D01*
X102275223Y-71678276D01*
X102274777Y-72189481D01*
X102469995Y-72661943D01*
X102742914Y-72935340D01*
X102578485Y-73003281D01*
X102089996Y-73490918D01*
X102010131Y-73683255D01*
X101931719Y-73493485D01*
X101444082Y-73004996D01*
X101276638Y-72935467D01*
X101548735Y-72663845D01*
X101744777Y-72191724D01*
X101745223Y-71680519D01*
X101550005Y-71208057D01*
X101188845Y-70846265D01*
X100716724Y-70650223D01*
X100205519Y-70649777D01*
X99733057Y-70844995D01*
X99371265Y-71206155D01*
X99189795Y-71643182D01*
X99010005Y-71208057D01*
X98648845Y-70846265D01*
X98176724Y-70650223D01*
X97665519Y-70649777D01*
X97193057Y-70844995D01*
X96831265Y-71206155D01*
X96635223Y-71678276D01*
X96634777Y-72189481D01*
X96829995Y-72661943D01*
X97102914Y-72935340D01*
X96938485Y-73003281D01*
X96449996Y-73490918D01*
X96185301Y-74128373D01*
X96184699Y-74818599D01*
X74842626Y-74818599D01*
X74893636Y-74767679D01*
X75234611Y-73946519D01*
X75235387Y-73057381D01*
X74895845Y-72235628D01*
X74267679Y-71606364D01*
X73446519Y-71265389D01*
X72557381Y-71264613D01*
X71735628Y-71604155D01*
X71106364Y-72232321D01*
X70765389Y-73053481D01*
X70764613Y-73942619D01*
X68685000Y-73942619D01*
X68685000Y-70567467D01*
X68797497Y-70001906D01*
X69079643Y-69579643D01*
X69501906Y-69297497D01*
X70067466Y-69185000D01*
X210932533Y-69185000D01*
X211498094Y-69297497D01*
M02*
