M48
;DRILL file {KiCad 4.0.7} date 06/30/18 16:29:46
;FORMAT={-:-/ absolute / metric / decimal}
FMAT,2
METRIC,TZ
T1C0.800
T2C0.900
T3C1.500
%
G90
G05
M71
T1
X74.75Y-115.45
X74.75Y-119.95
X74.75Y-125.305
X81.25Y-115.45
X81.25Y-119.95
X84.91Y-125.305
X113.876Y-78.64
X118.956Y-78.64
X152.175Y-137.715
X157.255Y-137.715
X161.69Y-127.4
X166.77Y-127.4
X172.045Y-127.4
X177.045Y-127.4
X186.52Y-78.285
X193.925Y-101.48
X193.925Y-104.02
X193.925Y-106.56
X193.925Y-109.1
X193.925Y-111.64
X193.925Y-114.18
X193.925Y-116.72
X193.925Y-119.26
X193.925Y-121.8
X196.68Y-78.285
X199.885Y-78.285
X202.425Y-78.285
X202.425Y-101.48
X202.425Y-104.02
X202.425Y-106.56
X202.425Y-109.1
X202.425Y-111.64
X202.425Y-114.18
X202.425Y-116.72
X202.425Y-119.26
X202.425Y-121.8
T2
X71.175Y-125.305
X75.5Y-99.75
X78.Y-99.75
X80.5Y-99.75
X86.25Y-105.5
X86.25Y-108.
X86.25Y-110.5
X97.92Y-74.475
X100.46Y-74.475
X103.56Y-74.475
X106.1Y-74.475
X108.796Y-83.7
X111.336Y-83.7
X113.876Y-83.7
X116.416Y-83.7
X117.94Y-131.96
X118.956Y-83.7
X120.48Y-131.96
X121.496Y-83.7
X123.02Y-131.96
X124.036Y-83.7
X125.56Y-131.96
X126.576Y-83.7
X128.1Y-131.96
X129.116Y-83.7
X130.64Y-131.96
X131.656Y-83.7
X133.18Y-131.96
X135.72Y-76.38
X135.72Y-83.7
X135.72Y-131.96
X138.26Y-76.38
X138.26Y-83.7
X140.8Y-76.38
X140.8Y-83.7
X140.8Y-131.96
X143.34Y-83.7
X143.34Y-131.96
X145.88Y-83.7
X145.88Y-131.96
X148.42Y-83.7
X148.42Y-131.96
X150.96Y-83.7
X150.96Y-131.96
X153.5Y-83.7
X153.5Y-131.96
X156.04Y-131.96
X158.58Y-83.7
X158.58Y-131.96
X161.12Y-83.7
X163.66Y-83.7
X163.66Y-131.96
X166.2Y-83.7
X166.2Y-131.96
X168.74Y-83.7
X168.74Y-131.96
X171.28Y-83.7
X171.28Y-131.96
X173.82Y-83.7
X173.82Y-131.96
X176.36Y-83.7
X176.36Y-131.96
X178.9Y-131.96
X181.44Y-131.96
X183.98Y-83.7
X183.98Y-86.24
X183.98Y-88.78
X183.98Y-91.32
X183.98Y-93.86
X183.98Y-96.4
X183.98Y-98.94
X183.98Y-101.48
X183.98Y-104.02
X183.98Y-106.56
X183.98Y-109.1
X183.98Y-111.64
X183.98Y-114.18
X183.98Y-116.72
X183.98Y-119.26
X183.98Y-121.8
X183.98Y-124.34
X183.98Y-126.88
X186.52Y-83.7
X186.52Y-86.24
X186.52Y-88.78
X186.52Y-91.32
X186.52Y-93.86
X186.52Y-96.4
X186.52Y-98.94
X186.52Y-101.48
X186.52Y-104.02
X186.52Y-106.56
X186.52Y-109.1
X186.52Y-111.64
X186.52Y-114.18
X186.52Y-116.72
X186.52Y-119.26
X186.52Y-121.8
X186.52Y-124.34
X186.52Y-126.88
X190.555Y-85.905
X190.555Y-88.445
X190.555Y-91.62
X190.555Y-94.16
X195.Y-127.5
X195.635Y-83.44
X195.635Y-85.98
X195.635Y-88.52
X195.635Y-91.62
X195.635Y-94.16
X195.635Y-96.7
X208.335Y-104.02
X208.335Y-106.56
X208.335Y-109.1
X208.335Y-112.2
X208.335Y-114.74
X208.335Y-117.28
X208.335Y-120.38
X208.335Y-122.92
X208.335Y-125.46
T3
X194.365Y-137.715
X194.365Y-142.795
T0
M30
