G04 #@! TF.FileFunction,Copper,L2,Bot,Signal*
%FSLAX46Y46*%
G04 Gerber Fmt 4.6, Leading zero omitted, Abs format (unit mm)*
G04 Created by KiCad (PCBNEW 4.0.7) date 06/30/18 16:29:44*
%MOMM*%
%LPD*%
G01*
G04 APERTURE LIST*
%ADD10C,0.100000*%
%ADD11C,0.300000*%
%ADD12O,1.400000X2.540000*%
%ADD13C,2.200000*%
%ADD14C,3.500000*%
%ADD15O,2.540000X1.400000*%
%ADD16C,2.000000*%
%ADD17C,3.000000*%
%ADD18C,1.800000*%
%ADD19C,0.250000*%
%ADD20C,1.400000*%
%ADD21C,0.800000*%
%ADD22C,0.254000*%
G04 APERTURE END LIST*
D10*
D11*
X129392857Y-77058571D02*
X129392857Y-75558571D01*
X129964285Y-75558571D01*
X130107143Y-75630000D01*
X130178571Y-75701429D01*
X130250000Y-75844286D01*
X130250000Y-76058571D01*
X130178571Y-76201429D01*
X130107143Y-76272857D01*
X129964285Y-76344286D01*
X129392857Y-76344286D01*
X130750000Y-75558571D02*
X131107143Y-77058571D01*
X131392857Y-75987143D01*
X131678571Y-77058571D01*
X132035714Y-75558571D01*
X132607143Y-77058571D02*
X132607143Y-75558571D01*
X133107143Y-76630000D01*
X133607143Y-75558571D01*
X133607143Y-77058571D01*
X92570715Y-75153571D02*
X92570715Y-73653571D01*
X93213572Y-73796429D02*
X93285001Y-73725000D01*
X93427858Y-73653571D01*
X93785001Y-73653571D01*
X93927858Y-73725000D01*
X93999287Y-73796429D01*
X94070715Y-73939286D01*
X94070715Y-74082143D01*
X93999287Y-74296429D01*
X93142144Y-75153571D01*
X94070715Y-75153571D01*
X95570715Y-75010714D02*
X95499286Y-75082143D01*
X95285000Y-75153571D01*
X95142143Y-75153571D01*
X94927858Y-75082143D01*
X94785000Y-74939286D01*
X94713572Y-74796429D01*
X94642143Y-74510714D01*
X94642143Y-74296429D01*
X94713572Y-74010714D01*
X94785000Y-73867857D01*
X94927858Y-73725000D01*
X95142143Y-73653571D01*
X95285000Y-73653571D01*
X95499286Y-73725000D01*
X95570715Y-73796429D01*
X160024286Y-143098571D02*
X160024286Y-141598571D01*
X160595714Y-141598571D01*
X160738572Y-141670000D01*
X160810000Y-141741429D01*
X160881429Y-141884286D01*
X160881429Y-142098571D01*
X160810000Y-142241429D01*
X160738572Y-142312857D01*
X160595714Y-142384286D01*
X160024286Y-142384286D01*
X161738572Y-143098571D02*
X161595714Y-143027143D01*
X161524286Y-142955714D01*
X161452857Y-142812857D01*
X161452857Y-142384286D01*
X161524286Y-142241429D01*
X161595714Y-142170000D01*
X161738572Y-142098571D01*
X161952857Y-142098571D01*
X162095714Y-142170000D01*
X162167143Y-142241429D01*
X162238572Y-142384286D01*
X162238572Y-142812857D01*
X162167143Y-142955714D01*
X162095714Y-143027143D01*
X161952857Y-143098571D01*
X161738572Y-143098571D01*
X162738572Y-142098571D02*
X163024286Y-143098571D01*
X163310000Y-142384286D01*
X163595715Y-143098571D01*
X163881429Y-142098571D01*
X165024286Y-143027143D02*
X164881429Y-143098571D01*
X164595715Y-143098571D01*
X164452858Y-143027143D01*
X164381429Y-142884286D01*
X164381429Y-142312857D01*
X164452858Y-142170000D01*
X164595715Y-142098571D01*
X164881429Y-142098571D01*
X165024286Y-142170000D01*
X165095715Y-142312857D01*
X165095715Y-142455714D01*
X164381429Y-142598571D01*
X165738572Y-143098571D02*
X165738572Y-142098571D01*
X165738572Y-142384286D02*
X165810000Y-142241429D01*
X165881429Y-142170000D01*
X166024286Y-142098571D01*
X166167143Y-142098571D01*
X167738571Y-143027143D02*
X167881428Y-143098571D01*
X168167143Y-143098571D01*
X168310000Y-143027143D01*
X168381428Y-142884286D01*
X168381428Y-142812857D01*
X168310000Y-142670000D01*
X168167143Y-142598571D01*
X167952857Y-142598571D01*
X167810000Y-142527143D01*
X167738571Y-142384286D01*
X167738571Y-142312857D01*
X167810000Y-142170000D01*
X167952857Y-142098571D01*
X168167143Y-142098571D01*
X168310000Y-142170000D01*
X168881429Y-142098571D02*
X169167143Y-143098571D01*
X169452857Y-142384286D01*
X169738572Y-143098571D01*
X170024286Y-142098571D01*
X170595715Y-143098571D02*
X170595715Y-142098571D01*
X170595715Y-141598571D02*
X170524286Y-141670000D01*
X170595715Y-141741429D01*
X170667143Y-141670000D01*
X170595715Y-141598571D01*
X170595715Y-141741429D01*
X171095715Y-142098571D02*
X171667144Y-142098571D01*
X171310001Y-141598571D02*
X171310001Y-142884286D01*
X171381429Y-143027143D01*
X171524287Y-143098571D01*
X171667144Y-143098571D01*
X172810001Y-143027143D02*
X172667144Y-143098571D01*
X172381430Y-143098571D01*
X172238572Y-143027143D01*
X172167144Y-142955714D01*
X172095715Y-142812857D01*
X172095715Y-142384286D01*
X172167144Y-142241429D01*
X172238572Y-142170000D01*
X172381430Y-142098571D01*
X172667144Y-142098571D01*
X172810001Y-142170000D01*
X173452858Y-143098571D02*
X173452858Y-141598571D01*
X174095715Y-143098571D02*
X174095715Y-142312857D01*
X174024286Y-142170000D01*
X173881429Y-142098571D01*
X173667144Y-142098571D01*
X173524286Y-142170000D01*
X173452858Y-142241429D01*
X210847143Y-100877857D02*
X210918571Y-100663571D01*
X210918571Y-100306428D01*
X210847143Y-100163571D01*
X210775714Y-100092142D01*
X210632857Y-100020714D01*
X210490000Y-100020714D01*
X210347143Y-100092142D01*
X210275714Y-100163571D01*
X210204286Y-100306428D01*
X210132857Y-100592142D01*
X210061429Y-100735000D01*
X209990000Y-100806428D01*
X209847143Y-100877857D01*
X209704286Y-100877857D01*
X209561429Y-100806428D01*
X209490000Y-100735000D01*
X209418571Y-100592142D01*
X209418571Y-100235000D01*
X209490000Y-100020714D01*
X210918571Y-99163571D02*
X210847143Y-99306429D01*
X210775714Y-99377857D01*
X210632857Y-99449286D01*
X210204286Y-99449286D01*
X210061429Y-99377857D01*
X209990000Y-99306429D01*
X209918571Y-99163571D01*
X209918571Y-98949286D01*
X209990000Y-98806429D01*
X210061429Y-98735000D01*
X210204286Y-98663571D01*
X210632857Y-98663571D01*
X210775714Y-98735000D01*
X210847143Y-98806429D01*
X210918571Y-98949286D01*
X210918571Y-99163571D01*
X210918571Y-98020714D02*
X209918571Y-98020714D01*
X210204286Y-98020714D02*
X210061429Y-97949286D01*
X209990000Y-97877857D01*
X209918571Y-97735000D01*
X209918571Y-97592143D01*
X209918571Y-97306429D02*
X209918571Y-96735000D01*
X209418571Y-97092143D02*
X210704286Y-97092143D01*
X210847143Y-97020715D01*
X210918571Y-96877857D01*
X210918571Y-96735000D01*
X210918571Y-96235000D02*
X209918571Y-96235000D01*
X209418571Y-96235000D02*
X209490000Y-96306429D01*
X209561429Y-96235000D01*
X209490000Y-96163572D01*
X209418571Y-96235000D01*
X209561429Y-96235000D01*
X210847143Y-94949286D02*
X210918571Y-95092143D01*
X210918571Y-95377857D01*
X210847143Y-95520714D01*
X210704286Y-95592143D01*
X210132857Y-95592143D01*
X209990000Y-95520714D01*
X209918571Y-95377857D01*
X209918571Y-95092143D01*
X209990000Y-94949286D01*
X210132857Y-94877857D01*
X210275714Y-94877857D01*
X210418571Y-95592143D01*
X210847143Y-94306429D02*
X210918571Y-94163572D01*
X210918571Y-93877857D01*
X210847143Y-93735000D01*
X210704286Y-93663572D01*
X210632857Y-93663572D01*
X210490000Y-93735000D01*
X210418571Y-93877857D01*
X210418571Y-94092143D01*
X210347143Y-94235000D01*
X210204286Y-94306429D01*
X210132857Y-94306429D01*
X209990000Y-94235000D01*
X209918571Y-94092143D01*
X209918571Y-93877857D01*
X209990000Y-93735000D01*
X209418571Y-91877857D02*
X210632857Y-91877857D01*
X210775714Y-91806429D01*
X210847143Y-91735000D01*
X210918571Y-91592143D01*
X210918571Y-91306429D01*
X210847143Y-91163571D01*
X210775714Y-91092143D01*
X210632857Y-91020714D01*
X209418571Y-91020714D01*
X210918571Y-89592142D02*
X210918571Y-90306428D01*
X209418571Y-90306428D01*
X210918571Y-89092142D02*
X209418571Y-89092142D01*
X210918571Y-88234999D01*
X209418571Y-88234999D01*
X209561429Y-87592142D02*
X209490000Y-87520713D01*
X209418571Y-87377856D01*
X209418571Y-87020713D01*
X209490000Y-86877856D01*
X209561429Y-86806427D01*
X209704286Y-86734999D01*
X209847143Y-86734999D01*
X210061429Y-86806427D01*
X210918571Y-87663570D01*
X210918571Y-86734999D01*
X210061429Y-85877856D02*
X209990000Y-86020714D01*
X209918571Y-86092142D01*
X209775714Y-86163571D01*
X209704286Y-86163571D01*
X209561429Y-86092142D01*
X209490000Y-86020714D01*
X209418571Y-85877856D01*
X209418571Y-85592142D01*
X209490000Y-85449285D01*
X209561429Y-85377856D01*
X209704286Y-85306428D01*
X209775714Y-85306428D01*
X209918571Y-85377856D01*
X209990000Y-85449285D01*
X210061429Y-85592142D01*
X210061429Y-85877856D01*
X210132857Y-86020714D01*
X210204286Y-86092142D01*
X210347143Y-86163571D01*
X210632857Y-86163571D01*
X210775714Y-86092142D01*
X210847143Y-86020714D01*
X210918571Y-85877856D01*
X210918571Y-85592142D01*
X210847143Y-85449285D01*
X210775714Y-85377856D01*
X210632857Y-85306428D01*
X210347143Y-85306428D01*
X210204286Y-85377856D01*
X210132857Y-85449285D01*
X210061429Y-85592142D01*
X209418571Y-84377857D02*
X209418571Y-84235000D01*
X209490000Y-84092143D01*
X209561429Y-84020714D01*
X209704286Y-83949285D01*
X209990000Y-83877857D01*
X210347143Y-83877857D01*
X210632857Y-83949285D01*
X210775714Y-84020714D01*
X210847143Y-84092143D01*
X210918571Y-84235000D01*
X210918571Y-84377857D01*
X210847143Y-84520714D01*
X210775714Y-84592143D01*
X210632857Y-84663571D01*
X210347143Y-84735000D01*
X209990000Y-84735000D01*
X209704286Y-84663571D01*
X209561429Y-84592143D01*
X209490000Y-84520714D01*
X209418571Y-84377857D01*
X209418571Y-83377857D02*
X209418571Y-82449286D01*
X209990000Y-82949286D01*
X209990000Y-82735000D01*
X210061429Y-82592143D01*
X210132857Y-82520714D01*
X210275714Y-82449286D01*
X210632857Y-82449286D01*
X210775714Y-82520714D01*
X210847143Y-82592143D01*
X210918571Y-82735000D01*
X210918571Y-83163572D01*
X210847143Y-83306429D01*
X210775714Y-83377857D01*
X210918571Y-81163572D02*
X210132857Y-81163572D01*
X209990000Y-81235001D01*
X209918571Y-81377858D01*
X209918571Y-81663572D01*
X209990000Y-81806429D01*
X210847143Y-81163572D02*
X210918571Y-81306429D01*
X210918571Y-81663572D01*
X210847143Y-81806429D01*
X210704286Y-81877858D01*
X210561429Y-81877858D01*
X210418571Y-81806429D01*
X210347143Y-81663572D01*
X210347143Y-81306429D01*
X210275714Y-81163572D01*
X197111429Y-99688571D02*
X197111429Y-100902857D01*
X197182857Y-101045714D01*
X197254286Y-101117143D01*
X197397143Y-101188571D01*
X197682857Y-101188571D01*
X197825715Y-101117143D01*
X197897143Y-101045714D01*
X197968572Y-100902857D01*
X197968572Y-99688571D01*
X98837143Y-138643571D02*
X98837143Y-137143571D01*
X99408571Y-137143571D01*
X99551429Y-137215000D01*
X99622857Y-137286429D01*
X99694286Y-137429286D01*
X99694286Y-137643571D01*
X99622857Y-137786429D01*
X99551429Y-137857857D01*
X99408571Y-137929286D01*
X98837143Y-137929286D01*
X100551429Y-138643571D02*
X100408571Y-138572143D01*
X100337143Y-138500714D01*
X100265714Y-138357857D01*
X100265714Y-137929286D01*
X100337143Y-137786429D01*
X100408571Y-137715000D01*
X100551429Y-137643571D01*
X100765714Y-137643571D01*
X100908571Y-137715000D01*
X100980000Y-137786429D01*
X101051429Y-137929286D01*
X101051429Y-138357857D01*
X100980000Y-138500714D01*
X100908571Y-138572143D01*
X100765714Y-138643571D01*
X100551429Y-138643571D01*
X101908572Y-138643571D02*
X101765714Y-138572143D01*
X101694286Y-138429286D01*
X101694286Y-137143571D01*
X102337143Y-137643571D02*
X102694286Y-138643571D01*
X103051428Y-137643571D02*
X102694286Y-138643571D01*
X102551428Y-139000714D01*
X102480000Y-139072143D01*
X102337143Y-139143571D01*
X103622857Y-138643571D02*
X103622857Y-137643571D01*
X103622857Y-137786429D02*
X103694285Y-137715000D01*
X103837143Y-137643571D01*
X104051428Y-137643571D01*
X104194285Y-137715000D01*
X104265714Y-137857857D01*
X104265714Y-138643571D01*
X104265714Y-137857857D02*
X104337143Y-137715000D01*
X104480000Y-137643571D01*
X104694285Y-137643571D01*
X104837143Y-137715000D01*
X104908571Y-137857857D01*
X104908571Y-138643571D01*
X106265714Y-138643571D02*
X106265714Y-137857857D01*
X106194285Y-137715000D01*
X106051428Y-137643571D01*
X105765714Y-137643571D01*
X105622857Y-137715000D01*
X106265714Y-138572143D02*
X106122857Y-138643571D01*
X105765714Y-138643571D01*
X105622857Y-138572143D01*
X105551428Y-138429286D01*
X105551428Y-138286429D01*
X105622857Y-138143571D01*
X105765714Y-138072143D01*
X106122857Y-138072143D01*
X106265714Y-138000714D01*
X106980000Y-137643571D02*
X106980000Y-138643571D01*
X106980000Y-137786429D02*
X107051428Y-137715000D01*
X107194286Y-137643571D01*
X107408571Y-137643571D01*
X107551428Y-137715000D01*
X107622857Y-137857857D01*
X107622857Y-138643571D01*
X108908571Y-138572143D02*
X108765714Y-138643571D01*
X108480000Y-138643571D01*
X108337143Y-138572143D01*
X108265714Y-138429286D01*
X108265714Y-137857857D01*
X108337143Y-137715000D01*
X108480000Y-137643571D01*
X108765714Y-137643571D01*
X108908571Y-137715000D01*
X108980000Y-137857857D01*
X108980000Y-138000714D01*
X108265714Y-138143571D01*
X109408571Y-137643571D02*
X109980000Y-137643571D01*
X109622857Y-137143571D02*
X109622857Y-138429286D01*
X109694285Y-138572143D01*
X109837143Y-138643571D01*
X109980000Y-138643571D01*
X110265714Y-137643571D02*
X110837143Y-137643571D01*
X110480000Y-137143571D02*
X110480000Y-138429286D01*
X110551428Y-138572143D01*
X110694286Y-138643571D01*
X110837143Y-138643571D01*
X111908571Y-138572143D02*
X111765714Y-138643571D01*
X111480000Y-138643571D01*
X111337143Y-138572143D01*
X111265714Y-138429286D01*
X111265714Y-137857857D01*
X111337143Y-137715000D01*
X111480000Y-137643571D01*
X111765714Y-137643571D01*
X111908571Y-137715000D01*
X111980000Y-137857857D01*
X111980000Y-138000714D01*
X111265714Y-138143571D01*
X113551428Y-137143571D02*
X114408571Y-137143571D01*
X113980000Y-138643571D02*
X113980000Y-137143571D01*
X115551428Y-138643571D02*
X115551428Y-137857857D01*
X115479999Y-137715000D01*
X115337142Y-137643571D01*
X115051428Y-137643571D01*
X114908571Y-137715000D01*
X115551428Y-138572143D02*
X115408571Y-138643571D01*
X115051428Y-138643571D01*
X114908571Y-138572143D01*
X114837142Y-138429286D01*
X114837142Y-138286429D01*
X114908571Y-138143571D01*
X115051428Y-138072143D01*
X115408571Y-138072143D01*
X115551428Y-138000714D01*
X116265714Y-138643571D02*
X116265714Y-137143571D01*
X116265714Y-137715000D02*
X116408571Y-137643571D01*
X116694285Y-137643571D01*
X116837142Y-137715000D01*
X116908571Y-137786429D01*
X116980000Y-137929286D01*
X116980000Y-138357857D01*
X116908571Y-138500714D01*
X116837142Y-138572143D01*
X116694285Y-138643571D01*
X116408571Y-138643571D01*
X116265714Y-138572143D01*
X117837143Y-138643571D02*
X117694285Y-138572143D01*
X117622857Y-138429286D01*
X117622857Y-137143571D01*
X118979999Y-138572143D02*
X118837142Y-138643571D01*
X118551428Y-138643571D01*
X118408571Y-138572143D01*
X118337142Y-138429286D01*
X118337142Y-137857857D01*
X118408571Y-137715000D01*
X118551428Y-137643571D01*
X118837142Y-137643571D01*
X118979999Y-137715000D01*
X119051428Y-137857857D01*
X119051428Y-138000714D01*
X118337142Y-138143571D01*
X98837143Y-141193571D02*
X98837143Y-139693571D01*
X99337143Y-140765000D01*
X99837143Y-139693571D01*
X99837143Y-141193571D01*
X101408572Y-141050714D02*
X101337143Y-141122143D01*
X101122857Y-141193571D01*
X100980000Y-141193571D01*
X100765715Y-141122143D01*
X100622857Y-140979286D01*
X100551429Y-140836429D01*
X100480000Y-140550714D01*
X100480000Y-140336429D01*
X100551429Y-140050714D01*
X100622857Y-139907857D01*
X100765715Y-139765000D01*
X100980000Y-139693571D01*
X101122857Y-139693571D01*
X101337143Y-139765000D01*
X101408572Y-139836429D01*
X101837143Y-139693571D02*
X102694286Y-139693571D01*
X102265715Y-141193571D02*
X102265715Y-139693571D01*
X104265714Y-139836429D02*
X104337143Y-139765000D01*
X104480000Y-139693571D01*
X104837143Y-139693571D01*
X104980000Y-139765000D01*
X105051429Y-139836429D01*
X105122857Y-139979286D01*
X105122857Y-140122143D01*
X105051429Y-140336429D01*
X104194286Y-141193571D01*
X105122857Y-141193571D01*
X106051428Y-139693571D02*
X106194285Y-139693571D01*
X106337142Y-139765000D01*
X106408571Y-139836429D01*
X106480000Y-139979286D01*
X106551428Y-140265000D01*
X106551428Y-140622143D01*
X106480000Y-140907857D01*
X106408571Y-141050714D01*
X106337142Y-141122143D01*
X106194285Y-141193571D01*
X106051428Y-141193571D01*
X105908571Y-141122143D01*
X105837142Y-141050714D01*
X105765714Y-140907857D01*
X105694285Y-140622143D01*
X105694285Y-140265000D01*
X105765714Y-139979286D01*
X105837142Y-139836429D01*
X105908571Y-139765000D01*
X106051428Y-139693571D01*
X107979999Y-141193571D02*
X107122856Y-141193571D01*
X107551428Y-141193571D02*
X107551428Y-139693571D01*
X107408571Y-139907857D01*
X107265713Y-140050714D01*
X107122856Y-140122143D01*
X108479999Y-139693571D02*
X109479999Y-139693571D01*
X108837142Y-141193571D01*
X110051427Y-140622143D02*
X111194284Y-140622143D01*
X111837141Y-139836429D02*
X111908570Y-139765000D01*
X112051427Y-139693571D01*
X112408570Y-139693571D01*
X112551427Y-139765000D01*
X112622856Y-139836429D01*
X112694284Y-139979286D01*
X112694284Y-140122143D01*
X112622856Y-140336429D01*
X111765713Y-141193571D01*
X112694284Y-141193571D01*
X113622855Y-139693571D02*
X113765712Y-139693571D01*
X113908569Y-139765000D01*
X113979998Y-139836429D01*
X114051427Y-139979286D01*
X114122855Y-140265000D01*
X114122855Y-140622143D01*
X114051427Y-140907857D01*
X113979998Y-141050714D01*
X113908569Y-141122143D01*
X113765712Y-141193571D01*
X113622855Y-141193571D01*
X113479998Y-141122143D01*
X113408569Y-141050714D01*
X113337141Y-140907857D01*
X113265712Y-140622143D01*
X113265712Y-140265000D01*
X113337141Y-139979286D01*
X113408569Y-139836429D01*
X113479998Y-139765000D01*
X113622855Y-139693571D01*
X115551426Y-141193571D02*
X114694283Y-141193571D01*
X115122855Y-141193571D02*
X115122855Y-139693571D01*
X114979998Y-139907857D01*
X114837140Y-140050714D01*
X114694283Y-140122143D01*
X116408569Y-140336429D02*
X116265711Y-140265000D01*
X116194283Y-140193571D01*
X116122854Y-140050714D01*
X116122854Y-139979286D01*
X116194283Y-139836429D01*
X116265711Y-139765000D01*
X116408569Y-139693571D01*
X116694283Y-139693571D01*
X116837140Y-139765000D01*
X116908569Y-139836429D01*
X116979997Y-139979286D01*
X116979997Y-140050714D01*
X116908569Y-140193571D01*
X116837140Y-140265000D01*
X116694283Y-140336429D01*
X116408569Y-140336429D01*
X116265711Y-140407857D01*
X116194283Y-140479286D01*
X116122854Y-140622143D01*
X116122854Y-140907857D01*
X116194283Y-141050714D01*
X116265711Y-141122143D01*
X116408569Y-141193571D01*
X116694283Y-141193571D01*
X116837140Y-141122143D01*
X116908569Y-141050714D01*
X116979997Y-140907857D01*
X116979997Y-140622143D01*
X116908569Y-140479286D01*
X116837140Y-140407857D01*
X116694283Y-140336429D01*
X98837143Y-143743571D02*
X98837143Y-142243571D01*
X99408571Y-142243571D01*
X99551429Y-142315000D01*
X99622857Y-142386429D01*
X99694286Y-142529286D01*
X99694286Y-142743571D01*
X99622857Y-142886429D01*
X99551429Y-142957857D01*
X99408571Y-143029286D01*
X98837143Y-143029286D01*
X100337143Y-143743571D02*
X100337143Y-142243571D01*
X101908572Y-143600714D02*
X101837143Y-143672143D01*
X101622857Y-143743571D01*
X101480000Y-143743571D01*
X101265715Y-143672143D01*
X101122857Y-143529286D01*
X101051429Y-143386429D01*
X100980000Y-143100714D01*
X100980000Y-142886429D01*
X101051429Y-142600714D01*
X101122857Y-142457857D01*
X101265715Y-142315000D01*
X101480000Y-142243571D01*
X101622857Y-142243571D01*
X101837143Y-142315000D01*
X101908572Y-142386429D01*
X102837143Y-142243571D02*
X103122857Y-142243571D01*
X103265715Y-142315000D01*
X103408572Y-142457857D01*
X103480000Y-142743571D01*
X103480000Y-143243571D01*
X103408572Y-143529286D01*
X103265715Y-143672143D01*
X103122857Y-143743571D01*
X102837143Y-143743571D01*
X102694286Y-143672143D01*
X102551429Y-143529286D01*
X102480000Y-143243571D01*
X102480000Y-142743571D01*
X102551429Y-142457857D01*
X102694286Y-142315000D01*
X102837143Y-142243571D01*
X103908572Y-142243571D02*
X104765715Y-142243571D01*
X104337144Y-143743571D02*
X104337144Y-142243571D01*
X105051429Y-142243571D02*
X105908572Y-142243571D01*
X105480001Y-143743571D02*
X105480001Y-142243571D01*
X106408572Y-142957857D02*
X106908572Y-142957857D01*
X107122858Y-143743571D02*
X106408572Y-143743571D01*
X106408572Y-142243571D01*
X107122858Y-142243571D01*
X108837143Y-143315000D02*
X109551429Y-143315000D01*
X108694286Y-143743571D02*
X109194286Y-142243571D01*
X109694286Y-143743571D01*
X110408572Y-143743571D02*
X110265714Y-143672143D01*
X110194286Y-143529286D01*
X110194286Y-142243571D01*
X111551428Y-143672143D02*
X111408571Y-143743571D01*
X111122857Y-143743571D01*
X110980000Y-143672143D01*
X110908571Y-143529286D01*
X110908571Y-142957857D01*
X110980000Y-142815000D01*
X111122857Y-142743571D01*
X111408571Y-142743571D01*
X111551428Y-142815000D01*
X111622857Y-142957857D01*
X111622857Y-143100714D01*
X110908571Y-143243571D01*
X112122857Y-143743571D02*
X112908571Y-142743571D01*
X112122857Y-142743571D02*
X112908571Y-143743571D01*
X114122857Y-143743571D02*
X114122857Y-142957857D01*
X114051428Y-142815000D01*
X113908571Y-142743571D01*
X113622857Y-142743571D01*
X113480000Y-142815000D01*
X114122857Y-143672143D02*
X113980000Y-143743571D01*
X113622857Y-143743571D01*
X113480000Y-143672143D01*
X113408571Y-143529286D01*
X113408571Y-143386429D01*
X113480000Y-143243571D01*
X113622857Y-143172143D01*
X113980000Y-143172143D01*
X114122857Y-143100714D01*
X114837143Y-142743571D02*
X114837143Y-143743571D01*
X114837143Y-142886429D02*
X114908571Y-142815000D01*
X115051429Y-142743571D01*
X115265714Y-142743571D01*
X115408571Y-142815000D01*
X115480000Y-142957857D01*
X115480000Y-143743571D01*
X116837143Y-143743571D02*
X116837143Y-142243571D01*
X116837143Y-143672143D02*
X116694286Y-143743571D01*
X116408572Y-143743571D01*
X116265714Y-143672143D01*
X116194286Y-143600714D01*
X116122857Y-143457857D01*
X116122857Y-143029286D01*
X116194286Y-142886429D01*
X116265714Y-142815000D01*
X116408572Y-142743571D01*
X116694286Y-142743571D01*
X116837143Y-142815000D01*
X117551429Y-143743571D02*
X117551429Y-142743571D01*
X117551429Y-143029286D02*
X117622857Y-142886429D01*
X117694286Y-142815000D01*
X117837143Y-142743571D01*
X117980000Y-142743571D01*
X119051428Y-143672143D02*
X118908571Y-143743571D01*
X118622857Y-143743571D01*
X118480000Y-143672143D01*
X118408571Y-143529286D01*
X118408571Y-142957857D01*
X118480000Y-142815000D01*
X118622857Y-142743571D01*
X118908571Y-142743571D01*
X119051428Y-142815000D01*
X119122857Y-142957857D01*
X119122857Y-143100714D01*
X118408571Y-143243571D01*
D10*
X158000000Y-102000000D02*
X152000000Y-102000000D01*
X158000000Y-111000000D02*
X158000000Y-102000000D01*
X152000000Y-111000000D02*
X158000000Y-111000000D01*
X152000000Y-102000000D02*
X152000000Y-111000000D01*
X68000000Y-145500000D02*
G75*
G03X70000000Y-147500000I2000000J0D01*
G01*
X70000000Y-68500000D02*
G75*
G03X68000000Y-70500000I0J-2000000D01*
G01*
X213000000Y-70500000D02*
G75*
G03X211000000Y-68500000I-2000000J0D01*
G01*
X211000000Y-147500000D02*
G75*
G03X213000000Y-145500000I0J2000000D01*
G01*
X213000000Y-70500000D02*
X213000000Y-145500000D01*
X70000000Y-68500000D02*
X211000000Y-68500000D01*
X70000000Y-147500000D02*
X211000000Y-147500000D01*
X68000000Y-70500000D02*
X68000000Y-145500000D01*
D12*
X202425000Y-78285000D03*
X199885000Y-78285000D03*
D13*
X140800000Y-76380000D03*
X138260000Y-76380000D03*
X135720000Y-76380000D03*
X97920000Y-74475000D03*
X100460000Y-74475000D03*
X106100000Y-74475000D03*
X103560000Y-74475000D03*
D14*
X194365000Y-142795000D03*
X194365000Y-137715000D03*
D15*
X196680000Y-78285000D03*
X186520000Y-78285000D03*
X166770000Y-127400000D03*
X161690000Y-127400000D03*
X84910000Y-125305000D03*
X74750000Y-125305000D03*
D16*
X177045000Y-127400000D03*
X172045000Y-127400000D03*
D13*
X208335000Y-109100000D03*
X208335000Y-106560000D03*
X208335000Y-104020000D03*
X208335000Y-112200000D03*
X208335000Y-114740000D03*
X208335000Y-117280000D03*
X208335000Y-125460000D03*
X208335000Y-122920000D03*
X208335000Y-120380000D03*
X195635000Y-83440000D03*
X195635000Y-85980000D03*
X195635000Y-88520000D03*
X195635000Y-96700000D03*
X195635000Y-94160000D03*
X195635000Y-91620000D03*
X71175000Y-125305000D03*
X86250000Y-110500000D03*
X86250000Y-108000000D03*
X86250000Y-105500000D03*
X78000000Y-99750000D03*
X80500000Y-99750000D03*
X75500000Y-99750000D03*
D17*
X84250000Y-113300000D03*
X84250000Y-102700000D03*
X71750000Y-102700000D03*
X71750000Y-113300000D03*
D15*
X81250000Y-115450000D03*
X74750000Y-115450000D03*
X74750000Y-119950000D03*
X81250000Y-119950000D03*
D13*
X195000000Y-127500000D03*
D15*
X193925000Y-104020000D03*
X193925000Y-101480000D03*
X193925000Y-106560000D03*
X193925000Y-109100000D03*
X193925000Y-111640000D03*
X193925000Y-114180000D03*
X193925000Y-116720000D03*
X193925000Y-119260000D03*
X193925000Y-121800000D03*
X202425000Y-121800000D03*
X202425000Y-119260000D03*
X202425000Y-116720000D03*
X202425000Y-114180000D03*
X202425000Y-111640000D03*
X202425000Y-109100000D03*
X202425000Y-106560000D03*
X202425000Y-104020000D03*
X202425000Y-101480000D03*
D12*
X152175000Y-137715000D03*
X157255000Y-137715000D03*
D16*
X152175000Y-142795000D03*
X157255000Y-142795000D03*
D12*
X118956000Y-78640000D03*
X113876000Y-78640000D03*
D16*
X118956000Y-73560000D03*
X113876000Y-73560000D03*
D13*
X140800000Y-131960000D03*
X135720000Y-131960000D03*
X133180000Y-131960000D03*
X130640000Y-131960000D03*
X128100000Y-131960000D03*
X125560000Y-131960000D03*
X123020000Y-131960000D03*
X120480000Y-131960000D03*
X176360000Y-83700000D03*
X173820000Y-83700000D03*
X171280000Y-83700000D03*
X168740000Y-83700000D03*
X166200000Y-83700000D03*
X163660000Y-83700000D03*
X161120000Y-83700000D03*
X158580000Y-83700000D03*
X153500000Y-83700000D03*
X150960000Y-83700000D03*
X148420000Y-83700000D03*
X145880000Y-83700000D03*
X143340000Y-83700000D03*
X140800000Y-83700000D03*
X138260000Y-83700000D03*
X135720000Y-83700000D03*
X116416000Y-83700000D03*
X131656000Y-83700000D03*
X129116000Y-83700000D03*
X126576000Y-83700000D03*
X108796000Y-83700000D03*
X111336000Y-83700000D03*
X113876000Y-83700000D03*
X118956000Y-83700000D03*
X121496000Y-83700000D03*
X124036000Y-83700000D03*
X117940000Y-131960000D03*
X143340000Y-131960000D03*
X145880000Y-131960000D03*
X148420000Y-131960000D03*
X150960000Y-131960000D03*
X153500000Y-131960000D03*
X156040000Y-131960000D03*
X158580000Y-131960000D03*
X163660000Y-131960000D03*
X166200000Y-131960000D03*
X168740000Y-131960000D03*
X171280000Y-131960000D03*
X173820000Y-131960000D03*
X176360000Y-131960000D03*
X178900000Y-131960000D03*
X181440000Y-131960000D03*
X183980000Y-83700000D03*
X186520000Y-83700000D03*
X183980000Y-86240000D03*
X186520000Y-86240000D03*
X183980000Y-88780000D03*
X186520000Y-88780000D03*
X183980000Y-91320000D03*
X186520000Y-91320000D03*
X183980000Y-93860000D03*
X186520000Y-93860000D03*
X183980000Y-96400000D03*
X186520000Y-96400000D03*
X183980000Y-98940000D03*
X186520000Y-98940000D03*
X183980000Y-101480000D03*
X186520000Y-101480000D03*
X183980000Y-104020000D03*
X186520000Y-104020000D03*
X183980000Y-106560000D03*
X186520000Y-106560000D03*
X183980000Y-109100000D03*
X186520000Y-109100000D03*
X183980000Y-111640000D03*
X186520000Y-111640000D03*
X183980000Y-114180000D03*
X186520000Y-114180000D03*
X183980000Y-116720000D03*
X186520000Y-116720000D03*
X183980000Y-119260000D03*
X186520000Y-119260000D03*
X183980000Y-121800000D03*
X186520000Y-121800000D03*
X183980000Y-124340000D03*
X186520000Y-124340000D03*
X183980000Y-126880000D03*
X186520000Y-126880000D03*
D18*
X190555000Y-85905000D03*
X190555000Y-88445000D03*
X190555000Y-94160000D03*
X190555000Y-91620000D03*
D19*
X160115000Y-123370000D02*
X162655000Y-123370000D01*
X165830000Y-123370000D02*
X168370000Y-123370000D01*
X167100000Y-122100000D02*
X167100000Y-124640000D01*
D20*
X166770000Y-127400000D02*
X164935000Y-127400000D01*
X161345000Y-132895000D02*
X160075000Y-134165000D01*
X152175000Y-136350000D02*
X152175000Y-137715000D01*
X154360000Y-134165000D02*
X160075000Y-134165000D01*
X152175000Y-136350000D02*
X154360000Y-134165000D01*
X161345000Y-130990000D02*
X161345000Y-132895000D01*
X164935000Y-127400000D02*
X161345000Y-130990000D01*
X194365000Y-137715000D02*
X157255000Y-137715000D01*
X186520000Y-83700000D02*
X186520000Y-78285000D01*
D21*
X186520000Y-104020000D02*
X193925000Y-104020000D01*
X193925000Y-101480000D02*
X186520000Y-101480000D01*
X193925000Y-106560000D02*
X186520000Y-106560000D01*
X186520000Y-109100000D02*
X193925000Y-109100000D01*
X193925000Y-111640000D02*
X186520000Y-111640000D01*
X186520000Y-114180000D02*
X193925000Y-114180000D01*
X193925000Y-116720000D02*
X186520000Y-116720000D01*
X186520000Y-119260000D02*
X193925000Y-119260000D01*
X190555000Y-85905000D02*
X189285000Y-85905000D01*
X188950000Y-86240000D02*
X186520000Y-86240000D01*
X189285000Y-85905000D02*
X188950000Y-86240000D01*
X189285000Y-88445000D02*
X190555000Y-88445000D01*
X186520000Y-88780000D02*
X188950000Y-88780000D01*
X189285000Y-88445000D02*
X188950000Y-88780000D01*
X188985000Y-93860000D02*
X186520000Y-93860000D01*
X189285000Y-94160000D02*
X188985000Y-93860000D01*
X190555000Y-94160000D02*
X189285000Y-94160000D01*
X188985000Y-91320000D02*
X186520000Y-91320000D01*
X189285000Y-91620000D02*
X188985000Y-91320000D01*
X190555000Y-91620000D02*
X189285000Y-91620000D01*
D22*
G36*
X182995918Y-125810004D02*
X183156139Y-125876534D01*
X183980000Y-126700395D01*
X184803305Y-125877090D01*
X184961515Y-125811719D01*
X185250075Y-125523662D01*
X185535918Y-125810004D01*
X185696139Y-125876534D01*
X186520000Y-126700395D01*
X187343305Y-125877090D01*
X187501515Y-125811719D01*
X187911950Y-125402000D01*
X197413000Y-125402000D01*
X197413000Y-145468000D01*
X191317000Y-145468000D01*
X191317000Y-144489528D01*
X192850077Y-144489528D01*
X193040364Y-144834271D01*
X193921591Y-145185956D01*
X194870323Y-145173641D01*
X195689636Y-144834271D01*
X195879923Y-144489528D01*
X194365000Y-142974605D01*
X192850077Y-144489528D01*
X191317000Y-144489528D01*
X191317000Y-142351591D01*
X191974044Y-142351591D01*
X191986359Y-143300323D01*
X192325729Y-144119636D01*
X192670472Y-144309923D01*
X194185395Y-142795000D01*
X194544605Y-142795000D01*
X196059528Y-144309923D01*
X196404271Y-144119636D01*
X196755956Y-143238409D01*
X196743641Y-142289677D01*
X196404271Y-141470364D01*
X196059528Y-141280077D01*
X194544605Y-142795000D01*
X194185395Y-142795000D01*
X192670472Y-141280077D01*
X192325729Y-141470364D01*
X191974044Y-142351591D01*
X191317000Y-142351591D01*
X191317000Y-141100472D01*
X192850077Y-141100472D01*
X194365000Y-142615395D01*
X195879923Y-141100472D01*
X195689636Y-140755729D01*
X194808409Y-140404044D01*
X193859677Y-140416359D01*
X193040364Y-140755729D01*
X192850077Y-141100472D01*
X191317000Y-141100472D01*
X191317000Y-139050000D01*
X192336037Y-139050000D01*
X192341916Y-139064229D01*
X193012242Y-139735726D01*
X193888513Y-140099585D01*
X194837325Y-140100413D01*
X195714229Y-139738084D01*
X196385726Y-139067758D01*
X196749585Y-138191487D01*
X196750413Y-137242675D01*
X196388084Y-136365771D01*
X195717758Y-135694274D01*
X194841487Y-135330415D01*
X193892675Y-135329587D01*
X193015771Y-135691916D01*
X192344274Y-136362242D01*
X192336900Y-136380000D01*
X191317000Y-136380000D01*
X191317000Y-128724868D01*
X193954737Y-128724868D01*
X194065641Y-129002099D01*
X194711593Y-129245323D01*
X195401453Y-129222836D01*
X195934359Y-129002099D01*
X196045263Y-128724868D01*
X195000000Y-127679605D01*
X193954737Y-128724868D01*
X191317000Y-128724868D01*
X191317000Y-128450000D01*
X191306994Y-128400590D01*
X191278553Y-128358965D01*
X191236159Y-128331685D01*
X191190000Y-128323000D01*
X187478001Y-128323000D01*
X187565263Y-128104868D01*
X186520000Y-127059605D01*
X185474737Y-128104868D01*
X185561999Y-128323000D01*
X184938001Y-128323000D01*
X185025263Y-128104868D01*
X183980000Y-127059605D01*
X182934737Y-128104868D01*
X183021999Y-128323000D01*
X181792000Y-128323000D01*
X181792000Y-126591593D01*
X182234677Y-126591593D01*
X182257164Y-127281453D01*
X182477901Y-127814359D01*
X182755132Y-127925263D01*
X183800395Y-126880000D01*
X184159605Y-126880000D01*
X184964116Y-127684511D01*
X185017901Y-127814359D01*
X185144682Y-127865077D01*
X185204868Y-127925263D01*
X185250000Y-127907208D01*
X185295132Y-127925263D01*
X185355318Y-127865077D01*
X185482099Y-127814359D01*
X185528037Y-127692358D01*
X186340395Y-126880000D01*
X186699605Y-126880000D01*
X187744868Y-127925263D01*
X188022099Y-127814359D01*
X188249061Y-127211593D01*
X193254677Y-127211593D01*
X193277164Y-127901453D01*
X193497901Y-128434359D01*
X193775132Y-128545263D01*
X194820395Y-127500000D01*
X195179605Y-127500000D01*
X196224868Y-128545263D01*
X196502099Y-128434359D01*
X196745323Y-127788407D01*
X196722836Y-127098547D01*
X196502099Y-126565641D01*
X196224868Y-126454737D01*
X195179605Y-127500000D01*
X194820395Y-127500000D01*
X193775132Y-126454737D01*
X193497901Y-126565641D01*
X193254677Y-127211593D01*
X188249061Y-127211593D01*
X188265323Y-127168407D01*
X188242836Y-126478547D01*
X188158579Y-126275132D01*
X193954737Y-126275132D01*
X195000000Y-127320395D01*
X196045263Y-126275132D01*
X195934359Y-125997901D01*
X195288407Y-125754677D01*
X194598547Y-125777164D01*
X194065641Y-125997901D01*
X193954737Y-126275132D01*
X188158579Y-126275132D01*
X188022099Y-125945641D01*
X187744868Y-125834737D01*
X186699605Y-126880000D01*
X186340395Y-126880000D01*
X185535884Y-126075489D01*
X185482099Y-125945641D01*
X185355318Y-125894923D01*
X185295132Y-125834737D01*
X185250000Y-125852792D01*
X185204868Y-125834737D01*
X185144682Y-125894923D01*
X185017901Y-125945641D01*
X184971963Y-126067642D01*
X184159605Y-126880000D01*
X183800395Y-126880000D01*
X182755132Y-125834737D01*
X182477901Y-125945641D01*
X182234677Y-126591593D01*
X181792000Y-126591593D01*
X181792000Y-125402000D01*
X182588626Y-125402000D01*
X182995918Y-125810004D01*
X182995918Y-125810004D01*
G37*
X182995918Y-125810004D02*
X183156139Y-125876534D01*
X183980000Y-126700395D01*
X184803305Y-125877090D01*
X184961515Y-125811719D01*
X185250075Y-125523662D01*
X185535918Y-125810004D01*
X185696139Y-125876534D01*
X186520000Y-126700395D01*
X187343305Y-125877090D01*
X187501515Y-125811719D01*
X187911950Y-125402000D01*
X197413000Y-125402000D01*
X197413000Y-145468000D01*
X191317000Y-145468000D01*
X191317000Y-144489528D01*
X192850077Y-144489528D01*
X193040364Y-144834271D01*
X193921591Y-145185956D01*
X194870323Y-145173641D01*
X195689636Y-144834271D01*
X195879923Y-144489528D01*
X194365000Y-142974605D01*
X192850077Y-144489528D01*
X191317000Y-144489528D01*
X191317000Y-142351591D01*
X191974044Y-142351591D01*
X191986359Y-143300323D01*
X192325729Y-144119636D01*
X192670472Y-144309923D01*
X194185395Y-142795000D01*
X194544605Y-142795000D01*
X196059528Y-144309923D01*
X196404271Y-144119636D01*
X196755956Y-143238409D01*
X196743641Y-142289677D01*
X196404271Y-141470364D01*
X196059528Y-141280077D01*
X194544605Y-142795000D01*
X194185395Y-142795000D01*
X192670472Y-141280077D01*
X192325729Y-141470364D01*
X191974044Y-142351591D01*
X191317000Y-142351591D01*
X191317000Y-141100472D01*
X192850077Y-141100472D01*
X194365000Y-142615395D01*
X195879923Y-141100472D01*
X195689636Y-140755729D01*
X194808409Y-140404044D01*
X193859677Y-140416359D01*
X193040364Y-140755729D01*
X192850077Y-141100472D01*
X191317000Y-141100472D01*
X191317000Y-139050000D01*
X192336037Y-139050000D01*
X192341916Y-139064229D01*
X193012242Y-139735726D01*
X193888513Y-140099585D01*
X194837325Y-140100413D01*
X195714229Y-139738084D01*
X196385726Y-139067758D01*
X196749585Y-138191487D01*
X196750413Y-137242675D01*
X196388084Y-136365771D01*
X195717758Y-135694274D01*
X194841487Y-135330415D01*
X193892675Y-135329587D01*
X193015771Y-135691916D01*
X192344274Y-136362242D01*
X192336900Y-136380000D01*
X191317000Y-136380000D01*
X191317000Y-128724868D01*
X193954737Y-128724868D01*
X194065641Y-129002099D01*
X194711593Y-129245323D01*
X195401453Y-129222836D01*
X195934359Y-129002099D01*
X196045263Y-128724868D01*
X195000000Y-127679605D01*
X193954737Y-128724868D01*
X191317000Y-128724868D01*
X191317000Y-128450000D01*
X191306994Y-128400590D01*
X191278553Y-128358965D01*
X191236159Y-128331685D01*
X191190000Y-128323000D01*
X187478001Y-128323000D01*
X187565263Y-128104868D01*
X186520000Y-127059605D01*
X185474737Y-128104868D01*
X185561999Y-128323000D01*
X184938001Y-128323000D01*
X185025263Y-128104868D01*
X183980000Y-127059605D01*
X182934737Y-128104868D01*
X183021999Y-128323000D01*
X181792000Y-128323000D01*
X181792000Y-126591593D01*
X182234677Y-126591593D01*
X182257164Y-127281453D01*
X182477901Y-127814359D01*
X182755132Y-127925263D01*
X183800395Y-126880000D01*
X184159605Y-126880000D01*
X184964116Y-127684511D01*
X185017901Y-127814359D01*
X185144682Y-127865077D01*
X185204868Y-127925263D01*
X185250000Y-127907208D01*
X185295132Y-127925263D01*
X185355318Y-127865077D01*
X185482099Y-127814359D01*
X185528037Y-127692358D01*
X186340395Y-126880000D01*
X186699605Y-126880000D01*
X187744868Y-127925263D01*
X188022099Y-127814359D01*
X188249061Y-127211593D01*
X193254677Y-127211593D01*
X193277164Y-127901453D01*
X193497901Y-128434359D01*
X193775132Y-128545263D01*
X194820395Y-127500000D01*
X195179605Y-127500000D01*
X196224868Y-128545263D01*
X196502099Y-128434359D01*
X196745323Y-127788407D01*
X196722836Y-127098547D01*
X196502099Y-126565641D01*
X196224868Y-126454737D01*
X195179605Y-127500000D01*
X194820395Y-127500000D01*
X193775132Y-126454737D01*
X193497901Y-126565641D01*
X193254677Y-127211593D01*
X188249061Y-127211593D01*
X188265323Y-127168407D01*
X188242836Y-126478547D01*
X188158579Y-126275132D01*
X193954737Y-126275132D01*
X195000000Y-127320395D01*
X196045263Y-126275132D01*
X195934359Y-125997901D01*
X195288407Y-125754677D01*
X194598547Y-125777164D01*
X194065641Y-125997901D01*
X193954737Y-126275132D01*
X188158579Y-126275132D01*
X188022099Y-125945641D01*
X187744868Y-125834737D01*
X186699605Y-126880000D01*
X186340395Y-126880000D01*
X185535884Y-126075489D01*
X185482099Y-125945641D01*
X185355318Y-125894923D01*
X185295132Y-125834737D01*
X185250000Y-125852792D01*
X185204868Y-125834737D01*
X185144682Y-125894923D01*
X185017901Y-125945641D01*
X184971963Y-126067642D01*
X184159605Y-126880000D01*
X183800395Y-126880000D01*
X182755132Y-125834737D01*
X182477901Y-125945641D01*
X182234677Y-126591593D01*
X181792000Y-126591593D01*
X181792000Y-125402000D01*
X182588626Y-125402000D01*
X182995918Y-125810004D01*
M02*
