M48
;DRILL file {KiCad 4.0.7} date 06/30/18 16:29:46
;FORMAT={-:-/ absolute / metric / decimal}
FMAT,2
METRIC,TZ
T1C0.800
T2C1.300
T3C3.200
%
G90
G05
M71
T1
X113.876Y-73.56
X118.956Y-73.56
X152.175Y-142.795
X157.255Y-142.795
T2
X71.75Y-102.7
X71.75Y-113.3
X84.25Y-102.7
X84.25Y-113.3
X97.92Y-71.935
X100.46Y-71.935
X103.56Y-71.935
X106.1Y-71.935
X135.72Y-73.84
X138.26Y-73.84
X140.8Y-73.84
X198.175Y-83.44
X198.175Y-85.98
X198.175Y-88.52
X198.175Y-91.62
X198.175Y-94.16
X198.175Y-96.7
X210.875Y-104.02
X210.875Y-106.56
X210.875Y-109.1
X210.875Y-112.2
X210.875Y-114.74
X210.875Y-117.28
X210.875Y-120.38
X210.875Y-122.92
X210.875Y-125.46
T3
X73.Y-73.5
X73.Y-142.5
X208.Y-73.5
X208.Y-142.5
T0
M30
