M48
;DRILL file {KiCad (5.0.0)} date 05/16/19 09:18:09
;FORMAT={-:-/ absolute / metric / decimal}
FMAT,2
METRIC,TZ
T1C0.800
%
G90
G05
M71
T1
X111.76Y-111.76
X121.92Y-111.76
X137.795Y-115.57
X113.665Y-115.57
X123.825Y-115.57
X120.269Y-122.428
X121.539Y-119.888
X122.809Y-122.428
X124.079Y-119.888
X125.349Y-122.428
X126.619Y-119.888
X127.889Y-122.428
X129.159Y-119.888
X111.76Y-104.14
X121.92Y-104.14
X131.445Y-104.14
X131.445Y-111.76
X141.605Y-104.14
X141.605Y-111.76
X127.635Y-115.57
T0
M30
